<?xml version="1.0" encoding="UTF-8" standalone="no"?>
<svg
   xmlns:dc="http://purl.org/dc/elements/1.1/"
   xmlns:cc="http://creativecommons.org/ns#"
   xmlns:rdf="http://www.w3.org/1999/02/22-rdf-syntax-ns#"
   xmlns:svg="http://www.w3.org/2000/svg"
   xmlns="http://www.w3.org/2000/svg"
   xmlns:sodipodi="http://sodipodi.sourceforge.net/DTD/sodipodi-0.dtd"
   xmlns:inkscape="http://www.inkscape.org/namespaces/inkscape"
   style="fill-opacity:1; color-rendering:auto; color-interpolation:auto; stroke:black; text-rendering:auto; stroke-linecap:square; stroke-miterlimit:10; stroke-opacity:1; shape-rendering:auto; fill:black; stroke-dasharray:none; font-weight:normal; stroke-width:1; font-family:'Dialog'; font-style:normal; stroke-linejoin:miter; font-size:12px; stroke-dashoffset:0; image-rendering:auto;"
   width="288"
   height="216"
   id="svg2"
   version="1.1"
   inkscape:version="0.91 r13725"
   sodipodi:docname="fitcomparison.svg"
   inkscape:export-filename="/Users/danielreeves/Dropbox/_ongoing/reservoir ecology/Natcomm2/code/matlab/fitcomparison.png"
   inkscape:export-xdpi="600"
   inkscape:export-ydpi="600">
  <metadata
     id="metadata375">
    <rdf:RDF>
      <cc:Work
         rdf:about="">
        <dc:format>image/svg+xml</dc:format>
        <dc:type
           rdf:resource="http://purl.org/dc/dcmitype/StillImage" />
      </cc:Work>
    </rdf:RDF>
  </metadata>
  <sodipodi:namedview
     pagecolor="#ffffff"
     bordercolor="#666666"
     borderopacity="1"
     objecttolerance="10"
     gridtolerance="10"
     guidetolerance="10"
     inkscape:pageopacity="0"
     inkscape:pageshadow="2"
     inkscape:window-width="1157"
     inkscape:window-height="719"
     id="namedview373"
     showgrid="false"
     inkscape:zoom="1.0763889"
     inkscape:cx="144"
     inkscape:cy="108"
     inkscape:window-x="0"
     inkscape:window-y="0"
     inkscape:window-maximized="0"
     inkscape:current-layer="g5" />
  <!--Generated by the Batik Graphics2D SVG Generator-->
  <defs
     id="genericDefs" />
  <g
     id="g5">
    <defs
       id="defs1">
      <clipPath
         clipPathUnits="userSpaceOnUse"
         id="clipPath1">
        <path
           d="M0 0 L288 0 L288 216 L0 216 L0 0 Z"
           id="path9" />
      </clipPath>
    </defs>
    <g
       style="fill:white; stroke:white;"
       id="g11">
      <rect
         x="0"
         y="0"
         width="288"
         style="clip-path:url(#clipPath1); stroke:none;"
         height="216"
         id="rect13"
         clip-path="url(#clipPath1)" />
    </g>
    <g
       style="fill:white; text-rendering:optimizeSpeed; color-rendering:optimizeSpeed; image-rendering:optimizeSpeed; shape-rendering:crispEdges; color-interpolation:sRGB; stroke:white;"
       id="g15">
      <rect
         x="0"
         width="288"
         height="216"
         y="0"
         style="stroke:none;"
         id="rect17" />
      <path
         style="stroke:none;"
         d="M42 182 L261 182 L261 16 L42 16 Z"
         id="path19" />
    </g>
    <g
       style="fill:rgb(38,38,38); text-rendering:geometricPrecision; color-rendering:optimizeQuality; image-rendering:optimizeQuality; stroke-linejoin:round; color-interpolation:linearRGB; stroke:rgb(38,38,38); stroke-width:0.5;"
       id="g21">
      <line
         y2="182"
         style="fill:none;"
         x1="42"
         x2="261"
         y1="182"
         id="line23" />
      <line
         y2="179.81"
         style="fill:none;"
         x1="48.8531"
         x2="48.8531"
         y1="182"
         id="line25" />
      <line
         y2="179.81"
         style="fill:none;"
         x1="119.5687"
         x2="119.5687"
         y1="182"
         id="line27" />
      <line
         y2="179.81"
         style="fill:none;"
         x1="190.2843"
         x2="190.2843"
         y1="182"
         id="line29" />
      <line
         y2="179.81"
         style="fill:none;"
         x1="261"
         x2="261"
         y1="182"
         id="line31" />
      <line
         y2="180.905"
         style="fill:none;"
         x1="42"
         x2="42"
         y1="182"
         id="line33" />
      <line
         y2="180.905"
         style="fill:none;"
         x1="45.6173"
         x2="45.6173"
         y1="182"
         id="line35" />
      <line
         y2="180.905"
         style="fill:none;"
         x1="48.8531"
         x2="48.8531"
         y1="182"
         id="line37" />
      <line
         y2="180.905"
         style="fill:none;"
         x1="70.1406"
         x2="70.1406"
         y1="182"
         id="line39" />
      <line
         y2="180.905"
         style="fill:none;"
         x1="82.593"
         x2="82.593"
         y1="182"
         id="line41" />
      <line
         y2="180.905"
         style="fill:none;"
         x1="91.4281"
         x2="91.4281"
         y1="182"
         id="line43" />
      <line
         y2="180.905"
         style="fill:none;"
         x1="98.2812"
         x2="98.2812"
         y1="182"
         id="line45" />
      <line
         y2="180.905"
         style="fill:none;"
         x1="103.8805"
         x2="103.8805"
         y1="182"
         id="line47" />
      <line
         y2="180.905"
         style="fill:none;"
         x1="108.6147"
         x2="108.6147"
         y1="182"
         id="line49" />
      <line
         y2="180.905"
         style="fill:none;"
         x1="112.7156"
         x2="112.7156"
         y1="182"
         id="line51" />
      <line
         y2="180.905"
         style="fill:none;"
         x1="116.3329"
         x2="116.3329"
         y1="182"
         id="line53" />
      <line
         y2="180.905"
         style="fill:none;"
         x1="119.5687"
         x2="119.5687"
         y1="182"
         id="line55" />
      <line
         y2="180.905"
         style="fill:none;"
         x1="140.8562"
         x2="140.8562"
         y1="182"
         id="line57" />
      <line
         y2="180.905"
         style="fill:none;"
         x1="153.3086"
         x2="153.3086"
         y1="182"
         id="line59" />
      <line
         y2="180.905"
         style="fill:none;"
         x1="162.1438"
         x2="162.1438"
         y1="182"
         id="line61" />
      <line
         y2="180.905"
         style="fill:none;"
         x1="168.9968"
         x2="168.9968"
         y1="182"
         id="line63" />
      <line
         y2="180.905"
         style="fill:none;"
         x1="174.5962"
         x2="174.5962"
         y1="182"
         id="line65" />
      <line
         y2="180.905"
         style="fill:none;"
         x1="179.3304"
         x2="179.3304"
         y1="182"
         id="line67" />
      <line
         y2="180.905"
         style="fill:none;"
         x1="183.4313"
         x2="183.4313"
         y1="182"
         id="line69" />
      <line
         y2="180.905"
         style="fill:none;"
         x1="187.0486"
         x2="187.0486"
         y1="182"
         id="line71" />
      <line
         y2="180.905"
         style="fill:none;"
         x1="190.2843"
         x2="190.2843"
         y1="182"
         id="line73" />
      <line
         y2="180.905"
         style="fill:none;"
         x1="211.5719"
         x2="211.5719"
         y1="182"
         id="line75" />
      <line
         y2="180.905"
         style="fill:none;"
         x1="224.0243"
         x2="224.0243"
         y1="182"
         id="line77" />
      <line
         y2="180.905"
         style="fill:none;"
         x1="232.8594"
         x2="232.8594"
         y1="182"
         id="line79" />
      <line
         y2="180.905"
         style="fill:none;"
         x1="239.7125"
         x2="239.7125"
         y1="182"
         id="line81" />
      <line
         y2="180.905"
         style="fill:none;"
         x1="245.3118"
         x2="245.3118"
         y1="182"
         id="line83" />
      <line
         y2="180.905"
         style="fill:none;"
         x1="250.046"
         x2="250.046"
         y1="182"
         id="line85" />
      <line
         y2="180.905"
         style="fill:none;"
         x1="254.1469"
         x2="254.1469"
         y1="182"
         id="line87" />
      <line
         y2="180.905"
         style="fill:none;"
         x1="257.7642"
         x2="257.7642"
         y1="182"
         id="line89" />
      <line
         y2="180.905"
         style="fill:none;"
         x1="261"
         x2="261"
         y1="182"
         id="line91" />
    </g>
    <g
       transform="translate(39,200)"
       style="fill:rgb(38,38,38); text-rendering:geometricPrecision; color-rendering:optimizeQuality; image-rendering:optimizeQuality; font-family:'Myriad Pro'; color-interpolation:linearRGB; stroke:rgb(38,38,38);"
       id="g93">
      <path
         style="stroke:none;"
         d="M2.832 0 L3.852 0 L3.852 -7.8 L2.952 -7.8 L1.248 -6.888 L1.452 -6.084 L2.808 -6.816 L2.832 -6.816 ZM9.3 -7.932 C7.716 -7.932 6.588 -6.492 6.588 -3.876 C6.612 -1.296 7.644 0.132 9.168 0.132 C10.896 0.132 11.88 -1.332 11.88 -3.984 C11.88 -6.468 10.944 -7.932 9.3 -7.932 ZM9.24 -7.116 C10.332 -7.116 10.824 -5.856 10.824 -3.936 C10.824 -1.944 10.308 -0.684 9.228 -0.684 C8.268 -0.684 7.644 -1.836 7.644 -3.864 C7.644 -5.988 8.316 -7.116 9.24 -7.116 Z"
         id="path95" />
    </g>
    <g
       transform="translate(52,194)"
       style="font-size:10px; fill:rgb(38,38,38); text-rendering:geometricPrecision; color-rendering:optimizeQuality; image-rendering:optimizeQuality; font-family:'Myriad Pro'; color-interpolation:linearRGB; stroke:rgb(38,38,38);"
       id="g97">
      <path
         style="stroke:none;"
         d="M2.62 -6.61 C1.3 -6.61 0.36 -5.41 0.36 -3.23 C0.38 -1.08 1.24 0.11 2.51 0.11 C3.95 0.11 4.77 -1.11 4.77 -3.32 C4.77 -5.39 3.99 -6.61 2.62 -6.61 ZM2.57 -5.93 C3.48 -5.93 3.89 -4.88 3.89 -3.28 C3.89 -1.62 3.46 -0.57 2.56 -0.57 C1.76 -0.57 1.24 -1.53 1.24 -3.22 C1.24 -4.99 1.8 -5.93 2.57 -5.93 Z"
         id="path99" />
    </g>
    <g
       transform="translate(110,200)"
       style="fill:rgb(38,38,38); text-rendering:geometricPrecision; color-rendering:optimizeQuality; image-rendering:optimizeQuality; font-family:'Myriad Pro'; color-interpolation:linearRGB; stroke:rgb(38,38,38);"
       id="g101">
      <path
         style="stroke:none;"
         d="M2.832 0 L3.852 0 L3.852 -7.8 L2.952 -7.8 L1.248 -6.888 L1.452 -6.084 L2.808 -6.816 L2.832 -6.816 ZM9.3 -7.932 C7.716 -7.932 6.588 -6.492 6.588 -3.876 C6.612 -1.296 7.644 0.132 9.168 0.132 C10.896 0.132 11.88 -1.332 11.88 -3.984 C11.88 -6.468 10.944 -7.932 9.3 -7.932 ZM9.24 -7.116 C10.332 -7.116 10.824 -5.856 10.824 -3.936 C10.824 -1.944 10.308 -0.684 9.228 -0.684 C8.268 -0.684 7.644 -1.836 7.644 -3.864 C7.644 -5.988 8.316 -7.116 9.24 -7.116 Z"
         id="path103" />
    </g>
    <g
       transform="translate(123,194)"
       style="font-size:10px; fill:rgb(38,38,38); text-rendering:geometricPrecision; color-rendering:optimizeQuality; image-rendering:optimizeQuality; font-family:'Myriad Pro'; color-interpolation:linearRGB; stroke:rgb(38,38,38);"
       id="g105">
      <path
         style="stroke:none;"
         d="M2.36 0 L3.21 0 L3.21 -6.5 L2.46 -6.5 L1.04 -5.74 L1.21 -5.07 L2.34 -5.68 L2.36 -5.68 Z"
         id="path107" />
    </g>
    <g
       transform="translate(180,200)"
       style="fill:rgb(38,38,38); text-rendering:geometricPrecision; color-rendering:optimizeQuality; image-rendering:optimizeQuality; font-family:'Myriad Pro'; color-interpolation:linearRGB; stroke:rgb(38,38,38);"
       id="g109">
      <path
         style="stroke:none;"
         d="M2.832 0 L3.852 0 L3.852 -7.8 L2.952 -7.8 L1.248 -6.888 L1.452 -6.084 L2.808 -6.816 L2.832 -6.816 ZM9.3 -7.932 C7.716 -7.932 6.588 -6.492 6.588 -3.876 C6.612 -1.296 7.644 0.132 9.168 0.132 C10.896 0.132 11.88 -1.332 11.88 -3.984 C11.88 -6.468 10.944 -7.932 9.3 -7.932 ZM9.24 -7.116 C10.332 -7.116 10.824 -5.856 10.824 -3.936 C10.824 -1.944 10.308 -0.684 9.228 -0.684 C8.268 -0.684 7.644 -1.836 7.644 -3.864 C7.644 -5.988 8.316 -7.116 9.24 -7.116 Z"
         id="path111" />
    </g>
    <g
       transform="translate(193,194)"
       style="font-size:10px; fill:rgb(38,38,38); text-rendering:geometricPrecision; color-rendering:optimizeQuality; image-rendering:optimizeQuality; font-family:'Myriad Pro'; color-interpolation:linearRGB; stroke:rgb(38,38,38);"
       id="g113">
      <path
         style="stroke:none;"
         d="M4.6 0 L4.6 -0.73 L1.68 -0.73 L1.68 -0.75 L2.2 -1.23 C3.57 -2.55 4.44 -3.52 4.44 -4.72 C4.44 -5.65 3.85 -6.61 2.45 -6.61 C1.7 -6.61 1.06 -6.33 0.61 -5.95 L0.89 -5.33 C1.19 -5.58 1.68 -5.88 2.27 -5.88 C3.24 -5.88 3.56 -5.27 3.56 -4.61 C3.55 -3.63 2.8 -2.79 1.14 -1.21 L0.45 -0.54 L0.45 0 Z"
         id="path115" />
    </g>
    <g
       transform="translate(251,200)"
       style="fill:rgb(38,38,38); text-rendering:geometricPrecision; color-rendering:optimizeQuality; image-rendering:optimizeQuality; font-family:'Myriad Pro'; color-interpolation:linearRGB; stroke:rgb(38,38,38);"
       id="g117">
      <path
         style="stroke:none;"
         d="M2.832 0 L3.852 0 L3.852 -7.8 L2.952 -7.8 L1.248 -6.888 L1.452 -6.084 L2.808 -6.816 L2.832 -6.816 ZM9.3 -7.932 C7.716 -7.932 6.588 -6.492 6.588 -3.876 C6.612 -1.296 7.644 0.132 9.168 0.132 C10.896 0.132 11.88 -1.332 11.88 -3.984 C11.88 -6.468 10.944 -7.932 9.3 -7.932 ZM9.24 -7.116 C10.332 -7.116 10.824 -5.856 10.824 -3.936 C10.824 -1.944 10.308 -0.684 9.228 -0.684 C8.268 -0.684 7.644 -1.836 7.644 -3.864 C7.644 -5.988 8.316 -7.116 9.24 -7.116 Z"
         id="path119" />
    </g>
    <g
       transform="translate(264,194)"
       style="font-size:10px; fill:rgb(38,38,38); text-rendering:geometricPrecision; color-rendering:optimizeQuality; image-rendering:optimizeQuality; font-family:'Myriad Pro'; color-interpolation:linearRGB; stroke:rgb(38,38,38);"
       id="g121">
      <path
         style="stroke:none;"
         d="M0.42 -0.33 C0.74 -0.12 1.38 0.11 2.11 0.11 C3.67 0.11 4.48 -0.8 4.48 -1.84 C4.48 -2.75 3.83 -3.35 3.03 -3.51 L3.03 -3.53 C3.83 -3.82 4.23 -4.39 4.23 -5.06 C4.23 -5.85 3.65 -6.61 2.37 -6.61 C1.67 -6.61 1.01 -6.36 0.67 -6.11 L0.9 -5.47 C1.18 -5.67 1.68 -5.9 2.2 -5.9 C3.01 -5.9 3.34 -5.44 3.34 -4.92 C3.34 -4.15 2.53 -3.82 1.89 -3.82 L1.4 -3.82 L1.4 -3.16 L1.89 -3.16 C2.74 -3.16 3.56 -2.77 3.57 -1.86 C3.58 -1.32 3.23 -0.6 2.1 -0.6 C1.49 -0.6 0.91 -0.85 0.66 -1.01 Z"
         id="path123" />
    </g>
    <g
       transform="translate(151.5001,204.4)"
       style="fill:rgb(38,38,38); text-rendering:geometricPrecision; color-rendering:optimizeQuality; image-rendering:optimizeQuality; font-family:'Myriad Pro'; color-interpolation:linearRGB; stroke:rgb(38,38,38);"
       id="g125">
      <path
         style="stroke:none;"
         d="M-10.124 9 L-9.08 9 L-9.08 5.904 C-9.08 5.724 -9.056 5.556 -9.032 5.412 C-8.888 4.62 -8.36 4.056 -7.616 4.056 C-7.472 4.056 -7.364 4.068 -7.256 4.092 L-7.256 3.096 C-7.352 3.072 -7.436 3.06 -7.556 3.06 C-8.264 3.06 -8.9 3.552 -9.164 4.332 L-9.212 4.332 L-9.248 3.192 L-10.172 3.192 C-10.136 3.732 -10.124 4.32 -10.124 5.004 ZM-2.12 5.436 C-2.12 4.272 -2.552 3.06 -4.328 3.06 C-5.06 3.06 -5.756 3.264 -6.236 3.576 L-5.996 4.272 C-5.588 4.008 -5.024 3.84 -4.484 3.84 C-3.296 3.84 -3.164 4.704 -3.164 5.184 L-3.164 5.304 C-5.408 5.292 -6.656 6.06 -6.656 7.464 C-6.656 8.304 -6.056 9.132 -4.88 9.132 C-4.052 9.132 -3.428 8.724 -3.104 8.268 L-3.068 8.268 L-2.984 9 L-2.024 9 C-2.096 8.604 -2.12 8.112 -2.12 7.608 ZM-3.14 7.044 C-3.14 7.152 -3.164 7.272 -3.2 7.38 C-3.368 7.872 -3.848 8.352 -4.604 8.352 C-5.144 8.352 -5.6 8.028 -5.6 7.344 C-5.6 6.216 -4.292 6.012 -3.14 6.036 ZM-0.416 9 L0.64 9 L0.64 5.508 C0.64 5.328 0.664 5.148 0.712 5.016 C0.892 4.428 1.432 3.936 2.128 3.936 C3.124 3.936 3.472 4.716 3.472 5.652 L3.472 9 L4.528 9 L4.528 5.532 C4.528 3.54 3.28 3.06 2.476 3.06 C1.516 3.06 0.844 3.6 0.556 4.152 L0.532 4.152 L0.472 3.192 L-0.464 3.192 C-0.428 3.672 -0.416 4.164 -0.416 4.764 ZM7.288 0.48 L6.244 0.48 L6.244 9 L7.288 9 L7.288 6.816 L7.828 6.216 L9.832 9 L11.116 9 L8.56 5.58 L10.804 3.192 L9.532 3.192 L7.828 5.196 C7.66 5.4 7.456 5.652 7.312 5.856 L7.288 5.856 Z"
         id="path127" />
    </g>
    <g
       style="fill:rgb(38,38,38); text-rendering:geometricPrecision; color-rendering:optimizeQuality; image-rendering:optimizeQuality; stroke-linejoin:round; color-interpolation:linearRGB; stroke:rgb(38,38,38); stroke-width:0.5;"
       id="g129">
      <line
         y2="16"
         style="fill:none;"
         x1="42"
         x2="42"
         y1="182"
         id="line131" />
      <line
         y2="160.2832"
         style="fill:none;"
         x1="42"
         x2="44.19"
         y1="160.2832"
         id="line133" />
      <line
         y2="88.1416"
         style="fill:none;"
         x1="42"
         x2="44.19"
         y1="88.1416"
         id="line135" />
      <line
         y2="16"
         style="fill:none;"
         x1="42"
         x2="44.19"
         y1="16"
         id="line137" />
      <line
         y2="182"
         style="fill:none;"
         x1="42"
         x2="43.095"
         y1="182"
         id="line139" />
      <line
         y2="176.2877"
         style="fill:none;"
         x1="42"
         x2="43.095"
         y1="176.2877"
         id="line141" />
      <line
         y2="171.4581"
         style="fill:none;"
         x1="42"
         x2="43.095"
         y1="171.4581"
         id="line143" />
      <line
         y2="167.2745"
         style="fill:none;"
         x1="42"
         x2="43.095"
         y1="167.2745"
         id="line145" />
      <line
         y2="163.5842"
         style="fill:none;"
         x1="42"
         x2="43.095"
         y1="163.5842"
         id="line147" />
      <line
         y2="160.2832"
         style="fill:none;"
         x1="42"
         x2="43.095"
         y1="160.2832"
         id="line149" />
      <line
         y2="138.5664"
         style="fill:none;"
         x1="42"
         x2="43.095"
         y1="138.5664"
         id="line151" />
      <line
         y2="125.8629"
         style="fill:none;"
         x1="42"
         x2="43.095"
         y1="125.8629"
         id="line153" />
      <line
         y2="116.8496"
         style="fill:none;"
         x1="42"
         x2="43.095"
         y1="116.8496"
         id="line155" />
      <line
         y2="109.8584"
         style="fill:none;"
         x1="42"
         x2="43.095"
         y1="109.8584"
         id="line157" />
      <line
         y2="104.1461"
         style="fill:none;"
         x1="42"
         x2="43.095"
         y1="104.1461"
         id="line159" />
      <line
         y2="99.3165"
         style="fill:none;"
         x1="42"
         x2="43.095"
         y1="99.3165"
         id="line161" />
      <line
         y2="95.1329"
         style="fill:none;"
         x1="42"
         x2="43.095"
         y1="95.1329"
         id="line163" />
      <line
         y2="91.4426"
         style="fill:none;"
         x1="42"
         x2="43.095"
         y1="91.4426"
         id="line165" />
      <line
         y2="88.1416"
         style="fill:none;"
         x1="42"
         x2="43.095"
         y1="88.1416"
         id="line167" />
      <line
         y2="66.4248"
         style="fill:none;"
         x1="42"
         x2="43.095"
         y1="66.4248"
         id="line169" />
      <line
         y2="53.7213"
         style="fill:none;"
         x1="42"
         x2="43.095"
         y1="53.7213"
         id="line171" />
      <line
         y2="44.708"
         style="fill:none;"
         x1="42"
         x2="43.095"
         y1="44.708"
         id="line173" />
      <line
         y2="37.7168"
         style="fill:none;"
         x1="42"
         x2="43.095"
         y1="37.7168"
         id="line175" />
      <line
         y2="32.0045"
         style="fill:none;"
         x1="42"
         x2="43.095"
         y1="32.0045"
         id="line177" />
      <line
         y2="27.1749"
         style="fill:none;"
         x1="42"
         x2="43.095"
         y1="27.1749"
         id="line179" />
      <line
         y2="22.9912"
         style="fill:none;"
         x1="42"
         x2="43.095"
         y1="22.9912"
         id="line181" />
      <line
         y2="19.301"
         style="fill:none;"
         x1="42"
         x2="43.095"
         y1="19.301"
         id="line183" />
      <line
         y2="16"
         style="fill:none;"
         x1="42"
         x2="43.095"
         y1="16"
         id="line185" />
    </g>
    <g
       transform="translate(16,166)"
       style="fill:rgb(38,38,38); text-rendering:geometricPrecision; color-rendering:optimizeQuality; image-rendering:optimizeQuality; font-family:'Myriad Pro'; color-interpolation:linearRGB; stroke:rgb(38,38,38);"
       id="g187">
      <path
         style="stroke:none;"
         d="M2.832 0 L3.852 0 L3.852 -7.8 L2.952 -7.8 L1.248 -6.888 L1.452 -6.084 L2.808 -6.816 L2.832 -6.816 ZM9.3 -7.932 C7.716 -7.932 6.588 -6.492 6.588 -3.876 C6.612 -1.296 7.644 0.132 9.168 0.132 C10.896 0.132 11.88 -1.332 11.88 -3.984 C11.88 -6.468 10.944 -7.932 9.3 -7.932 ZM9.24 -7.116 C10.332 -7.116 10.824 -5.856 10.824 -3.936 C10.824 -1.944 10.308 -0.684 9.228 -0.684 C8.268 -0.684 7.644 -1.836 7.644 -3.864 C7.644 -5.988 8.316 -7.116 9.24 -7.116 Z"
         id="path189" />
    </g>
    <g
       transform="translate(29,160)"
       style="font-size:10px; fill:rgb(38,38,38); text-rendering:geometricPrecision; color-rendering:optimizeQuality; image-rendering:optimizeQuality; font-family:'Myriad Pro'; color-interpolation:linearRGB; stroke:rgb(38,38,38);"
       id="g191">
      <path
         style="stroke:none;"
         d="M0.3 -3.03 L0.3 -2.38 L2.77 -2.38 L2.77 -3.03 ZM7.67 0 L7.67 -0.73 L4.75 -0.73 L4.75 -0.75 L5.27 -1.23 C6.64 -2.55 7.51 -3.52 7.51 -4.72 C7.51 -5.65 6.92 -6.61 5.52 -6.61 C4.77 -6.61 4.13 -6.33 3.68 -5.95 L3.96 -5.33 C4.26 -5.58 4.75 -5.88 5.34 -5.88 C6.31 -5.88 6.63 -5.27 6.63 -4.61 C6.62 -3.63 5.87 -2.79 4.21 -1.21 L3.52 -0.54 L3.52 0 Z"
         id="path193" />
    </g>
    <g
       transform="translate(16,94)"
       style="fill:rgb(38,38,38); text-rendering:geometricPrecision; color-rendering:optimizeQuality; image-rendering:optimizeQuality; font-family:'Myriad Pro'; color-interpolation:linearRGB; stroke:rgb(38,38,38);"
       id="g195">
      <path
         style="stroke:none;"
         d="M2.832 0 L3.852 0 L3.852 -7.8 L2.952 -7.8 L1.248 -6.888 L1.452 -6.084 L2.808 -6.816 L2.832 -6.816 ZM9.3 -7.932 C7.716 -7.932 6.588 -6.492 6.588 -3.876 C6.612 -1.296 7.644 0.132 9.168 0.132 C10.896 0.132 11.88 -1.332 11.88 -3.984 C11.88 -6.468 10.944 -7.932 9.3 -7.932 ZM9.24 -7.116 C10.332 -7.116 10.824 -5.856 10.824 -3.936 C10.824 -1.944 10.308 -0.684 9.228 -0.684 C8.268 -0.684 7.644 -1.836 7.644 -3.864 C7.644 -5.988 8.316 -7.116 9.24 -7.116 Z"
         id="path197" />
    </g>
    <g
       transform="translate(29,88)"
       style="font-size:10px; fill:rgb(38,38,38); text-rendering:geometricPrecision; color-rendering:optimizeQuality; image-rendering:optimizeQuality; font-family:'Myriad Pro'; color-interpolation:linearRGB; stroke:rgb(38,38,38);"
       id="g199">
      <path
         style="stroke:none;"
         d="M0.3 -3.03 L0.3 -2.38 L2.77 -2.38 L2.77 -3.03 ZM5.43 0 L6.28 0 L6.28 -6.5 L5.53 -6.5 L4.11 -5.74 L4.28 -5.07 L5.41 -5.68 L5.43 -5.68 Z"
         id="path201" />
    </g>
    <g
       transform="translate(19,22)"
       style="fill:rgb(38,38,38); text-rendering:geometricPrecision; color-rendering:optimizeQuality; image-rendering:optimizeQuality; font-family:'Myriad Pro'; color-interpolation:linearRGB; stroke:rgb(38,38,38);"
       id="g203">
      <path
         style="stroke:none;"
         d="M2.832 0 L3.852 0 L3.852 -7.8 L2.952 -7.8 L1.248 -6.888 L1.452 -6.084 L2.808 -6.816 L2.832 -6.816 ZM9.3 -7.932 C7.716 -7.932 6.588 -6.492 6.588 -3.876 C6.612 -1.296 7.644 0.132 9.168 0.132 C10.896 0.132 11.88 -1.332 11.88 -3.984 C11.88 -6.468 10.944 -7.932 9.3 -7.932 ZM9.24 -7.116 C10.332 -7.116 10.824 -5.856 10.824 -3.936 C10.824 -1.944 10.308 -0.684 9.228 -0.684 C8.268 -0.684 7.644 -1.836 7.644 -3.864 C7.644 -5.988 8.316 -7.116 9.24 -7.116 Z"
         id="path205" />
    </g>
    <g
       transform="translate(32,16)"
       style="font-size:10px; fill:rgb(38,38,38); text-rendering:geometricPrecision; color-rendering:optimizeQuality; image-rendering:optimizeQuality; font-family:'Myriad Pro'; color-interpolation:linearRGB; stroke:rgb(38,38,38);"
       id="g207">
      <path
         style="stroke:none;"
         d="M2.62 -6.61 C1.3 -6.61 0.36 -5.41 0.36 -3.23 C0.38 -1.08 1.24 0.11 2.51 0.11 C3.95 0.11 4.77 -1.11 4.77 -3.32 C4.77 -5.39 3.99 -6.61 2.62 -6.61 ZM2.57 -5.93 C3.48 -5.93 3.89 -4.88 3.89 -3.28 C3.89 -1.62 3.46 -0.57 2.56 -0.57 C1.76 -0.57 1.24 -1.53 1.24 -3.22 C1.24 -4.99 1.8 -5.93 2.57 -5.93 Z"
         id="path209" />
    </g>
    <g
       transform="translate(11.6,98.9999) rotate(-90)"
       style="fill:rgb(38,38,38); text-rendering:geometricPrecision; color-rendering:optimizeQuality; image-rendering:optimizeQuality; font-family:'Myriad Pro'; color-interpolation:linearRGB; stroke:rgb(38,38,38);"
       id="g211">
      <path
         style="stroke:none;"
         d="M-60.624 -0.624 L-59.58 -0.624 L-59.58 -3.78 L-59.556 -3.78 C-59.208 -3.204 -58.536 -2.868 -57.768 -2.868 C-56.4 -2.868 -55.128 -3.9 -55.128 -5.988 C-55.128 -7.752 -56.184 -8.94 -57.588 -8.94 C-58.536 -8.94 -59.22 -8.52 -59.652 -7.812 L-59.676 -7.812 L-59.724 -8.808 L-60.672 -8.808 C-60.648 -8.256 -60.624 -7.656 -60.624 -6.912 ZM-59.58 -6.36 C-59.58 -6.504 -59.544 -6.66 -59.508 -6.792 C-59.304 -7.584 -58.632 -8.1 -57.912 -8.1 C-56.796 -8.1 -56.184 -7.104 -56.184 -5.94 C-56.184 -4.608 -56.832 -3.696 -57.948 -3.696 C-58.704 -3.696 -59.34 -4.2 -59.532 -4.932 C-59.556 -5.064 -59.58 -5.208 -59.58 -5.364 ZM-53.796 -3 L-52.752 -3 L-52.752 -6.096 C-52.752 -6.276 -52.728 -6.444 -52.704 -6.588 C-52.56 -7.38 -52.032 -7.944 -51.288 -7.944 C-51.144 -7.944 -51.036 -7.932 -50.928 -7.908 L-50.928 -8.904 C-51.024 -8.928 -51.108 -8.94 -51.228 -8.94 C-51.936 -8.94 -52.572 -8.448 -52.836 -7.668 L-52.884 -7.668 L-52.92 -8.808 L-53.844 -8.808 C-53.808 -8.268 -53.796 -7.68 -53.796 -6.996 ZM-47.412 -8.94 C-49.02 -8.94 -50.292 -7.8 -50.292 -5.856 C-50.292 -4.02 -49.08 -2.868 -47.508 -2.868 C-46.104 -2.868 -44.616 -3.804 -44.616 -5.952 C-44.616 -7.728 -45.744 -8.94 -47.412 -8.94 ZM-47.436 -8.148 C-46.188 -8.148 -45.696 -6.9 -45.696 -5.916 C-45.696 -4.608 -46.452 -3.66 -47.46 -3.66 C-48.492 -3.66 -49.224 -4.62 -49.224 -5.892 C-49.224 -6.996 -48.684 -8.148 -47.436 -8.148 ZM-43.284 -0.624 L-42.24 -0.624 L-42.24 -3.78 L-42.216 -3.78 C-41.868 -3.204 -41.196 -2.868 -40.428 -2.868 C-39.06 -2.868 -37.788 -3.9 -37.788 -5.988 C-37.788 -7.752 -38.844 -8.94 -40.248 -8.94 C-41.196 -8.94 -41.88 -8.52 -42.312 -7.812 L-42.336 -7.812 L-42.384 -8.808 L-43.332 -8.808 C-43.308 -8.256 -43.284 -7.656 -43.284 -6.912 ZM-42.24 -6.36 C-42.24 -6.504 -42.204 -6.66 -42.168 -6.792 C-41.964 -7.584 -41.292 -8.1 -40.572 -8.1 C-39.456 -8.1 -38.844 -7.104 -38.844 -5.94 C-38.844 -4.608 -39.492 -3.696 -40.608 -3.696 C-41.364 -3.696 -42 -4.2 -42.192 -4.932 C-42.216 -5.064 -42.24 -5.208 -42.24 -5.364 ZM-33.996 -8.94 C-35.604 -8.94 -36.876 -7.8 -36.876 -5.856 C-36.876 -4.02 -35.664 -2.868 -34.092 -2.868 C-32.688 -2.868 -31.2 -3.804 -31.2 -5.952 C-31.2 -7.728 -32.328 -8.94 -33.996 -8.94 ZM-34.02 -8.148 C-32.772 -8.148 -32.28 -6.9 -32.28 -5.916 C-32.28 -4.608 -33.036 -3.66 -34.044 -3.66 C-35.076 -3.66 -35.808 -4.62 -35.808 -5.892 C-35.808 -6.996 -35.268 -8.148 -34.02 -8.148 ZM-29.868 -3 L-28.824 -3 L-28.824 -6.096 C-28.824 -6.276 -28.8 -6.444 -28.776 -6.588 C-28.632 -7.38 -28.104 -7.944 -27.36 -7.944 C-27.216 -7.944 -27.108 -7.932 -27 -7.908 L-27 -8.904 C-27.096 -8.928 -27.18 -8.94 -27.3 -8.94 C-28.008 -8.94 -28.644 -8.448 -28.908 -7.668 L-28.956 -7.668 L-28.992 -8.808 L-29.916 -8.808 C-29.88 -8.268 -29.868 -7.68 -29.868 -6.996 ZM-25.704 -9.876 L-25.704 -8.808 L-26.604 -8.808 L-26.604 -8.004 L-25.704 -8.004 L-25.704 -4.836 C-25.704 -4.152 -25.596 -3.636 -25.296 -3.324 C-25.044 -3.036 -24.648 -2.868 -24.156 -2.868 C-23.748 -2.868 -23.424 -2.94 -23.22 -3.024 L-23.268 -3.816 C-23.424 -3.768 -23.592 -3.744 -23.88 -3.744 C-24.468 -3.744 -24.672 -4.152 -24.672 -4.872 L-24.672 -8.004 L-23.16 -8.004 L-23.16 -8.808 L-24.672 -8.808 L-24.672 -10.2 ZM-20.916 -3 L-20.916 -8.808 L-21.972 -8.808 L-21.972 -3 ZM-21.444 -11.1 C-21.828 -11.1 -22.104 -10.812 -22.104 -10.44 C-22.104 -10.08 -21.84 -9.792 -21.468 -9.792 C-21.048 -9.792 -20.784 -10.08 -20.796 -10.44 C-20.796 -10.812 -21.048 -11.1 -21.444 -11.1 ZM-16.704 -8.94 C-18.312 -8.94 -19.584 -7.8 -19.584 -5.856 C-19.584 -4.02 -18.372 -2.868 -16.8 -2.868 C-15.396 -2.868 -13.908 -3.804 -13.908 -5.952 C-13.908 -7.728 -15.036 -8.94 -16.704 -8.94 ZM-16.728 -8.148 C-15.48 -8.148 -14.988 -6.9 -14.988 -5.916 C-14.988 -4.608 -15.744 -3.66 -16.752 -3.66 C-17.784 -3.66 -18.516 -4.62 -18.516 -5.892 C-18.516 -6.996 -17.976 -8.148 -16.728 -8.148 ZM-12.576 -3 L-11.52 -3 L-11.52 -6.492 C-11.52 -6.672 -11.496 -6.852 -11.448 -6.984 C-11.268 -7.572 -10.728 -8.064 -10.032 -8.064 C-9.036 -8.064 -8.688 -7.284 -8.688 -6.348 L-8.688 -3 L-7.632 -3 L-7.632 -6.468 C-7.632 -8.46 -8.88 -8.94 -9.684 -8.94 C-10.644 -8.94 -11.316 -8.4 -11.604 -7.848 L-11.628 -7.848 L-11.688 -8.808 L-12.624 -8.808 C-12.588 -8.328 -12.576 -7.836 -12.576 -7.236 ZM-1.836 -6.564 C-1.836 -7.728 -2.268 -8.94 -4.044 -8.94 C-4.776 -8.94 -5.472 -8.736 -5.952 -8.424 L-5.712 -7.728 C-5.304 -7.992 -4.74 -8.16 -4.2 -8.16 C-3.012 -8.16 -2.88 -7.296 -2.88 -6.816 L-2.88 -6.696 C-5.124 -6.708 -6.372 -5.94 -6.372 -4.536 C-6.372 -3.696 -5.772 -2.868 -4.596 -2.868 C-3.768 -2.868 -3.144 -3.276 -2.82 -3.732 L-2.784 -3.732 L-2.7 -3 L-1.74 -3 C-1.812 -3.396 -1.836 -3.888 -1.836 -4.392 ZM-2.856 -4.956 C-2.856 -4.848 -2.88 -4.728 -2.916 -4.62 C-3.084 -4.128 -3.564 -3.648 -4.32 -3.648 C-4.86 -3.648 -5.316 -3.972 -5.316 -4.656 C-5.316 -5.784 -4.008 -5.988 -2.856 -5.964 ZM-0.132 -3 L0.924 -3 L0.924 -11.52 L-0.132 -11.52 ZM9.324 -6.564 C9.324 -7.728 8.892 -8.94 7.116 -8.94 C6.384 -8.94 5.688 -8.736 5.208 -8.424 L5.448 -7.728 C5.856 -7.992 6.42 -8.16 6.96 -8.16 C8.148 -8.16 8.28 -7.296 8.28 -6.816 L8.28 -6.696 C6.036 -6.708 4.788 -5.94 4.788 -4.536 C4.788 -3.696 5.388 -2.868 6.564 -2.868 C7.392 -2.868 8.016 -3.276 8.34 -3.732 L8.376 -3.732 L8.46 -3 L9.42 -3 C9.348 -3.396 9.324 -3.888 9.324 -4.392 ZM8.304 -4.956 C8.304 -4.848 8.28 -4.728 8.244 -4.62 C8.076 -4.128 7.596 -3.648 6.84 -3.648 C6.3 -3.648 5.844 -3.972 5.844 -4.656 C5.844 -5.784 7.152 -5.988 8.304 -5.964 ZM11.028 -4.5 C11.028 -3.984 11.004 -3.396 10.98 -3 L11.892 -3 L11.94 -3.96 L11.976 -3.96 C12.408 -3.192 13.08 -2.868 13.92 -2.868 C15.216 -2.868 16.524 -3.9 16.524 -5.976 C16.536 -7.74 15.516 -8.94 14.076 -8.94 C13.14 -8.94 12.468 -8.52 12.096 -7.872 L12.072 -7.872 L12.072 -11.52 L11.028 -11.52 ZM12.072 -6.372 C12.072 -6.54 12.108 -6.684 12.132 -6.804 C12.348 -7.608 13.02 -8.1 13.74 -8.1 C14.868 -8.1 15.468 -7.104 15.468 -5.94 C15.468 -4.608 14.808 -3.708 13.704 -3.708 C12.936 -3.708 12.324 -4.212 12.12 -4.944 C12.096 -5.064 12.072 -5.196 12.072 -5.328 ZM22.716 -8.808 L21.66 -8.808 L21.66 -5.244 C21.66 -5.052 21.624 -4.86 21.564 -4.704 C21.372 -4.236 20.88 -3.744 20.172 -3.744 C19.212 -3.744 18.876 -4.488 18.876 -5.592 L18.876 -8.808 L17.82 -8.808 L17.82 -5.412 C17.82 -3.372 18.912 -2.868 19.824 -2.868 C20.856 -2.868 21.468 -3.48 21.744 -3.948 L21.768 -3.948 L21.828 -3 L22.764 -3 C22.728 -3.456 22.716 -3.984 22.716 -4.584 ZM24.468 -3 L25.524 -3 L25.524 -6.492 C25.524 -6.672 25.548 -6.852 25.596 -6.984 C25.776 -7.572 26.316 -8.064 27.012 -8.064 C28.008 -8.064 28.356 -7.284 28.356 -6.348 L28.356 -3 L29.412 -3 L29.412 -6.468 C29.412 -8.46 28.164 -8.94 27.36 -8.94 C26.4 -8.94 25.728 -8.4 25.44 -7.848 L25.416 -7.848 L25.356 -8.808 L24.42 -8.808 C24.456 -8.328 24.468 -7.836 24.468 -7.236 ZM35.088 -11.52 L35.088 -8.052 L35.064 -8.052 C34.8 -8.52 34.2 -8.94 33.312 -8.94 C31.896 -8.94 30.696 -7.752 30.708 -5.82 C30.708 -4.056 31.788 -2.868 33.192 -2.868 C34.14 -2.868 34.848 -3.36 35.172 -4.008 L35.196 -4.008 L35.244 -3 L36.192 -3 C36.156 -3.396 36.144 -3.984 36.144 -4.5 L36.144 -11.52 ZM35.088 -5.436 C35.088 -5.268 35.076 -5.124 35.04 -4.98 C34.848 -4.188 34.2 -3.72 33.492 -3.72 C32.352 -3.72 31.776 -4.692 31.776 -5.868 C31.776 -7.152 32.424 -8.112 33.516 -8.112 C34.308 -8.112 34.884 -7.56 35.04 -6.888 C35.076 -6.756 35.088 -6.576 35.088 -6.444 ZM41.976 -6.564 C41.976 -7.728 41.544 -8.94 39.768 -8.94 C39.036 -8.94 38.34 -8.736 37.86 -8.424 L38.1 -7.728 C38.508 -7.992 39.072 -8.16 39.612 -8.16 C40.8 -8.16 40.932 -7.296 40.932 -6.816 L40.932 -6.696 C38.688 -6.708 37.44 -5.94 37.44 -4.536 C37.44 -3.696 38.04 -2.868 39.216 -2.868 C40.044 -2.868 40.668 -3.276 40.992 -3.732 L41.028 -3.732 L41.112 -3 L42.072 -3 C42 -3.396 41.976 -3.888 41.976 -4.392 ZM40.956 -4.956 C40.956 -4.848 40.932 -4.728 40.896 -4.62 C40.728 -4.128 40.248 -3.648 39.492 -3.648 C38.952 -3.648 38.496 -3.972 38.496 -4.656 C38.496 -5.784 39.804 -5.988 40.956 -5.964 ZM43.68 -3 L44.736 -3 L44.736 -6.492 C44.736 -6.672 44.76 -6.852 44.808 -6.984 C44.988 -7.572 45.528 -8.064 46.224 -8.064 C47.22 -8.064 47.568 -7.284 47.568 -6.348 L47.568 -3 L48.624 -3 L48.624 -6.468 C48.624 -8.46 47.376 -8.94 46.572 -8.94 C45.612 -8.94 44.94 -8.4 44.652 -7.848 L44.628 -7.848 L44.568 -8.808 L43.632 -8.808 C43.668 -8.328 43.68 -7.836 43.68 -7.236 ZM54.3 -4.008 C54 -3.876 53.604 -3.72 53.004 -3.72 C51.852 -3.72 50.988 -4.548 50.988 -5.892 C50.988 -7.104 51.708 -8.088 53.04 -8.088 C53.616 -8.088 54.012 -7.956 54.264 -7.812 L54.504 -8.628 C54.216 -8.772 53.664 -8.928 53.04 -8.928 C51.144 -8.928 49.92 -7.632 49.92 -5.844 C49.92 -4.068 51.06 -2.868 52.812 -2.868 C53.592 -2.868 54.204 -3.072 54.48 -3.216 ZM60.384 -5.712 C60.396 -5.82 60.42 -5.988 60.42 -6.204 C60.42 -7.272 59.916 -8.94 58.02 -8.94 C56.328 -8.94 55.296 -7.56 55.296 -5.808 C55.296 -4.056 56.364 -2.868 58.152 -2.868 C59.076 -2.868 59.712 -3.072 60.084 -3.24 L59.904 -3.996 C59.508 -3.828 59.052 -3.696 58.296 -3.696 C57.24 -3.696 56.328 -4.284 56.304 -5.712 ZM56.316 -6.468 C56.4 -7.2 56.868 -8.184 57.936 -8.184 C59.124 -8.184 59.412 -7.14 59.4 -6.468 Z"
         id="path213" />
    </g>
    <g
       style="stroke-linecap:butt; fill:rgb(204,0,255); text-rendering:geometricPrecision; color-rendering:optimizeQuality; image-rendering:optimizeQuality; stroke-linejoin:round; color-interpolation:linearRGB; stroke:rgb(204,0,255); stroke-width:3;"
       id="g215">
      <path
         d="M48.8531 46.0097 L70.1406 78.5849 L82.593 97.6401 L91.4281 111.16 L98.2812 121.6469 L103.8805 130.2153 L108.6147 137.4598 L112.7156 143.7352 L116.3329 149.2706 L119.5687 154.2221 L122.4958 158.7013 L125.1681 162.7905 L127.6263 166.5522 L129.9022 170.0349 L132.0211 173.2773 L134.0032 176.3104 L135.8651 179.1595 L137.6205 181.8457 L137.7342 182.0198"
         style="fill:none; fill-rule:evenodd;"
         id="path217" />
    </g>
    <g
       transform="translate(48.8531,51.6993)"
       style="text-rendering:geometricPrecision; color-interpolation:linearRGB; color-rendering:optimizeQuality; stroke-linecap:butt; image-rendering:optimizeQuality;"
       id="g219">
      <circle
         r="5"
         style="fill:none;"
         cx="-0.5"
         cy="-0.5"
         id="circle221" />
      <circle
         r="5"
         style="fill:none;"
         cx="-0.5"
         transform="translate(21.2875,18.0266)"
         cy="-0.5"
         id="circle223" />
      <circle
         r="5"
         style="fill:none;"
         cx="-0.5"
         transform="translate(33.7399,43.4336)"
         cy="-0.5"
         id="circle225" />
      <circle
         r="5"
         style="fill:none;"
         cx="-0.5"
         transform="translate(42.5751,47.6172)"
         cy="-0.5"
         id="circle227" />
      <circle
         r="5"
         style="fill:none;"
         cx="-0.5"
         transform="translate(49.4281,65.1504)"
         cy="-0.5"
         id="circle229" />
      <circle
         r="5"
         style="fill:none;"
         cx="-0.5"
         transform="translate(55.0275,86.8671)"
         cy="-0.5"
         id="circle231" />
      <circle
         r="5"
         style="fill:none;"
         cx="-0.5"
         transform="translate(59.7617,86.8671)"
         cy="-0.5"
         id="circle233" />
      <circle
         r="5"
         style="fill:none;"
         cx="-0.5"
         transform="translate(63.8626,86.8671)"
         cy="-0.5"
         id="circle235" />
      <circle
         r="5"
         style="fill:none;"
         cx="-0.5"
         transform="translate(67.4799,86.8671)"
         cy="-0.5"
         id="circle237" />
      <circle
         r="5"
         style="fill:none;"
         cx="-0.5"
         transform="translate(70.7156,86.8671)"
         cy="-0.5"
         id="circle239" />
      <circle
         r="5"
         style="fill:none;"
         cx="-0.5"
         transform="translate(73.6428,108.5839)"
         cy="-0.5"
         id="circle241" />
      <circle
         r="5"
         style="fill:none;"
         cx="-0.5"
         transform="translate(76.315,108.5839)"
         cy="-0.5"
         id="circle243" />
      <circle
         r="5"
         style="fill:none;"
         cx="-0.5"
         transform="translate(78.7732,108.5839)"
         cy="-0.5"
         id="circle245" />
      <circle
         r="5"
         style="fill:none;"
         cx="-0.5"
         transform="translate(81.0492,108.5839)"
         cy="-0.5"
         id="circle247" />
      <circle
         r="5"
         style="fill:none;"
         cx="-0.5"
         transform="translate(83.168,108.5839)"
         cy="-0.5"
         id="circle249" />
      <circle
         r="5"
         style="fill:none;"
         cx="-0.5"
         transform="translate(85.1501,108.5839)"
         cy="-0.5"
         id="circle251" />
      <circle
         r="5"
         style="fill:none;"
         cx="-0.5"
         transform="translate(87.012,108.5839)"
         cy="-0.5"
         id="circle253" />
      <circle
         r="5"
         style="fill:none;"
         cx="-0.5"
         transform="translate(88.7674,108.5839)"
         cy="-0.5"
         id="circle255" />
      <circle
         r="5"
         style="fill:none;"
         cx="-0.5"
         transform="translate(90.4279,108.5839)"
         cy="-0.5"
         id="circle257" />
      <circle
         r="5"
         style="fill:none;"
         cx="-0.5"
         transform="translate(92.0032,108.5839)"
         cy="-0.5"
         id="circle259" />
      <circle
         r="5"
         style="fill:none;"
         cx="-0.5"
         transform="translate(93.5016,108.5839)"
         cy="-0.5"
         id="circle261" />
      <circle
         r="5"
         style="fill:none;"
         cx="-0.5"
         transform="translate(94.9303,108.5839)"
         cy="-0.5"
         id="circle263" />
      <circle
         r="5"
         style="fill:none;"
         cx="-0.5"
         transform="translate(96.2955,108.5839)"
         cy="-0.5"
         id="circle265" />
      <circle
         r="5"
         style="fill:none;"
         cx="-0.5"
         transform="translate(97.6025,108.5839)"
         cy="-0.5"
         id="circle267" />
      <circle
         r="5"
         style="fill:none;"
         cx="-0.5"
         transform="translate(98.8562,108.5839)"
         cy="-0.5"
         id="circle269" />
      <circle
         r="5"
         style="fill:none;"
         cx="-0.5"
         transform="translate(100.0608,108.5839)"
         cy="-0.5"
         id="circle271" />
      <circle
         r="5"
         style="fill:none;"
         cx="-0.5"
         transform="translate(101.2198,108.5839)"
         cy="-0.5"
         id="circle273" />
      <circle
         r="5"
         style="fill:none;"
         cx="-0.5"
         transform="translate(102.3367,108.5839)"
         cy="-0.5"
         id="circle275" />
      <circle
         r="5"
         style="fill:none;"
         cx="-0.5"
         transform="translate(103.4144,108.5839)"
         cy="-0.5"
         id="circle277" />
      <circle
         r="5"
         style="fill:none;"
         cx="-0.5"
         transform="translate(104.4556,108.5839)"
         cy="-0.5"
         id="circle279" />
      <circle
         r="5"
         style="fill:none;"
         cx="-0.5"
         transform="translate(105.4626,108.5839)"
         cy="-0.5"
         id="circle281" />
    </g>
    <g
       style="stroke-linecap:butt; fill:red; text-rendering:geometricPrecision; color-rendering:optimizeQuality; image-rendering:optimizeQuality; stroke-linejoin:bevel; stroke-dasharray:10,6; color-interpolation:linearRGB; stroke:red; stroke-miterlimit:1;"
       id="g283">
      <path
         d="M48.8531 86.4338 L70.1406 108.3176 L82.593 121.1188 L91.4281 130.2014 L98.2812 137.2464 L103.8805 143.0026 L108.6147 147.8694 L112.7156 152.0853 L116.3329 155.8039 L119.5687 159.1303 L122.4958 162.1394 L125.1681 164.8865 L127.6263 167.4135 L129.9022 169.7533 L132.0211 171.9315 L134.0032 173.9691 L135.8651 175.8831 L137.6205 177.6877 L139.2809 179.3947 L140.8562 181.0141 L141.8345 182.0198"
         style="fill:none; fill-rule:evenodd;"
         id="path285" />
      <path
         d="M48.8531 30.4953 L70.1406 75.3299 L82.593 101.5565 L91.4281 120.1646 L98.2812 134.5981 L103.8805 146.3912 L108.6147 156.3621 L112.7156 164.9992 L116.3329 172.6178 L119.5687 179.4328 L120.797 182.0198"
         style="fill:none; fill-rule:evenodd; stroke:lime;"
         id="path287" />
    </g>
    <g
       style="text-rendering:geometricPrecision; color-interpolation:linearRGB; color-rendering:optimizeQuality; stroke-linejoin:round; stroke-linecap:butt; image-rendering:optimizeQuality;"
       id="g289">
      <path
         d="M48.8531 50.3092 L70.1406 80.9299 L82.593 98.8419 L91.4281 111.5506 L98.2812 121.4082 L103.8805 129.4625 L108.6147 136.2723 L112.7156 142.1712 L116.3329 147.3745 L119.5687 152.0289 L122.4958 156.2394 L125.1681 160.0832 L127.6263 163.6192 L129.9022 166.893 L132.0211 169.9409 L134.0032 172.7919 L135.8651 175.4701 L137.6205 177.9951 L139.2809 180.3836 L140.4184 182.0198"
         style="fill:none; fill-rule:evenodd;"
         id="path291" />
    </g>
    <g
       style="fill:white; text-rendering:optimizeSpeed; color-rendering:optimizeSpeed; image-rendering:optimizeSpeed; shape-rendering:crispEdges; color-interpolation:sRGB; stroke:white;"
       id="g293">
      <path
         style="stroke:none;"
         d="M116 92 L116 26 L251 26 L251 92 Z"
         id="path295" />
    </g>
    <g
       transform="translate(153,37)"
       style="text-rendering:geometricPrecision; font-family:'Myriad Pro'; color-interpolation:linearRGB; color-rendering:optimizeQuality; image-rendering:optimizeQuality;"
       id="g297">
      <path
         style="stroke:none;"
         d="M1.116 -6.876 L1.116 -5.808 L0.216 -5.808 L0.216 -5.004 L1.116 -5.004 L1.116 -1.836 C1.116 -1.152 1.224 -0.636 1.524 -0.324 C1.776 -0.036 2.172 0.132 2.664 0.132 C3.072 0.132 3.396 0.06 3.6 -0.024 L3.552 -0.816 C3.396 -0.768 3.228 -0.744 2.94 -0.744 C2.352 -0.744 2.148 -1.152 2.148 -1.872 L2.148 -5.004 L3.66 -5.004 L3.66 -5.808 L2.148 -5.808 L2.148 -7.2 ZM4.848 0 L5.892 0 L5.892 -3.096 C5.892 -3.276 5.916 -3.444 5.94 -3.588 C6.084 -4.38 6.612 -4.944 7.356 -4.944 C7.5 -4.944 7.608 -4.932 7.716 -4.908 L7.716 -5.904 C7.62 -5.928 7.536 -5.94 7.416 -5.94 C6.708 -5.94 6.072 -5.448 5.808 -4.668 L5.76 -4.668 L5.724 -5.808 L4.8 -5.808 C4.836 -5.268 4.848 -4.68 4.848 -3.996 ZM13.632 -5.808 L12.576 -5.808 L12.576 -2.244 C12.576 -2.052 12.54 -1.86 12.48 -1.704 C12.288 -1.236 11.796 -0.744 11.088 -0.744 C10.128 -0.744 9.792 -1.488 9.792 -2.592 L9.792 -5.808 L8.736 -5.808 L8.736 -2.412 C8.736 -0.372 9.828 0.132 10.74 0.132 C11.772 0.132 12.384 -0.48 12.66 -0.948 L12.684 -0.948 L12.744 0 L13.68 0 C13.644 -0.456 13.632 -0.984 13.632 -1.584 ZM20.052 -2.712 C20.064 -2.82 20.088 -2.988 20.088 -3.204 C20.088 -4.272 19.584 -5.94 17.688 -5.94 C15.996 -5.94 14.964 -4.56 14.964 -2.808 C14.964 -1.056 16.032 0.132 17.82 0.132 C18.744 0.132 19.38 -0.072 19.752 -0.24 L19.572 -0.996 C19.176 -0.828 18.72 -0.696 17.964 -0.696 C16.908 -0.696 15.996 -1.284 15.972 -2.712 ZM15.984 -3.468 C16.068 -4.2 16.536 -5.184 17.604 -5.184 C18.792 -5.184 19.08 -4.14 19.068 -3.468 Z"
         id="path299" />
    </g>
    <g
       transform="translate(177,37)"
       style="text-rendering:geometricPrecision; font-family:'mwb_cmmi10'; color-interpolation:linearRGB; color-rendering:optimizeQuality; image-rendering:optimizeQuality;"
       id="g301">
      <path
         style="stroke:none;"
         d="M2.4219 0.1406 Q1.8438 0.1406 1.4062 -0.1328 Q0.9688 -0.4062 0.7266 -0.8594 Q0.4844 -1.3125 0.4844 -1.9062 Q0.4844 -2.7188 0.9375 -3.5156 Q1.3906 -4.3125 2.1406 -4.8047 Q2.8906 -5.2969 3.7188 -5.2969 Q4.3281 -5.2969 4.7891 -4.9844 Q5.25 -4.6719 5.4922 -4.1406 Q5.7344 -3.6094 5.7344 -3 L5.75 -2.2031 Q6.1562 -2.7656 6.4453 -3.375 Q6.7344 -3.9844 6.875 -4.6406 Q6.9062 -4.7188 6.9688 -4.7188 L7.1094 -4.7188 Q7.2188 -4.7188 7.2188 -4.6094 Q7.2188 -4.5938 7.2188 -4.5781 Q7.0781 -4.0156 6.8672 -3.5078 Q6.6562 -3 6.3672 -2.5312 Q6.0781 -2.0625 5.75 -1.6719 Q5.75 -0.1875 6.0938 -0.1875 Q6.3125 -0.1875 6.4609 -0.3203 Q6.6094 -0.4531 6.7188 -0.6406 Q6.8281 -0.8281 6.8438 -0.8438 L7 -0.8438 Q7.0938 -0.8438 7.0938 -0.7188 Q7.0938 -0.4219 6.75 -0.1406 Q6.4062 0.1406 6.0781 0.1406 Q5.6406 0.1406 5.3516 -0.1406 Q5.0625 -0.4219 4.9531 -0.875 Q4.3906 -0.4062 3.7344 -0.1328 Q3.0781 0.1406 2.4219 0.1406 ZM2.4375 -0.1875 Q3.7188 -0.1875 4.9062 -1.2344 Q4.8906 -1.3125 4.8828 -1.4141 Q4.875 -1.5156 4.875 -1.5312 L4.875 -2.8125 Q4.875 -5 3.7031 -5 Q3 -5 2.4688 -4.3984 Q1.9375 -3.7969 1.6719 -2.9609 Q1.4062 -2.125 1.4062 -1.4375 Q1.4062 -0.9062 1.6719 -0.5469 Q1.9375 -0.1875 2.4375 -0.1875 Z"
         id="path303" />
    </g>
    <g
       transform="translate(185,37)"
       style="text-rendering:geometricPrecision; font-family:'Myriad Pro'; color-interpolation:linearRGB; color-rendering:optimizeQuality; image-rendering:optimizeQuality;"
       id="g305">
      <path
         style="stroke:none;"
         d="M9.216 -4.044 L9.216 -4.764 L3.024 -4.764 L3.024 -4.044 ZM9.216 -1.692 L9.216 -2.412 L3.024 -2.412 L3.024 -1.692 ZM15.072 0 L16.092 0 L16.092 -7.8 L15.192 -7.8 L13.488 -6.888 L13.692 -6.084 L15.048 -6.816 L15.072 -6.816 ZM19.728 0.132 C20.172 0.132 20.448 -0.192 20.448 -0.624 C20.448 -1.068 20.16 -1.38 19.74 -1.38 C19.32 -1.38 19.02 -1.068 19.02 -0.624 C19.02 -0.192 19.308 0.132 19.716 0.132 ZM26.076 -7.8 L22.344 -7.8 L21.84 -4.056 C22.128 -4.092 22.476 -4.14 22.92 -4.14 C24.48 -4.14 25.152 -3.42 25.164 -2.412 C25.164 -1.368 24.312 -0.72 23.316 -0.72 C22.608 -0.72 21.972 -0.96 21.648 -1.152 L21.384 -0.348 C21.756 -0.108 22.476 0.132 23.328 0.132 C25.02 0.132 26.232 -1.008 26.232 -2.532 C26.232 -3.516 25.728 -4.188 25.116 -4.536 C24.636 -4.824 24.036 -4.956 23.436 -4.956 C23.148 -4.956 22.98 -4.932 22.8 -4.908 L23.1 -6.912 L26.076 -6.912 Z"
         id="path307" />
    </g>
    <g
       style="stroke-linecap:butt; fill:rgb(204,0,255); text-rendering:geometricPrecision; color-rendering:optimizeQuality; image-rendering:optimizeQuality; stroke-linejoin:round; color-interpolation:linearRGB; stroke:rgb(204,0,255); stroke-width:3;"
       id="g309">
      <line
         y2="34"
         style="fill:none;"
         x1="120"
         x2="150"
         y1="34"
         id="line311" />
    </g>
    <g
       transform="translate(153,46.5)"
       style="text-rendering:geometricPrecision; font-family:'Myriad Pro'; color-interpolation:linearRGB; color-rendering:optimizeQuality; image-rendering:optimizeQuality;"
       id="g313">
      <path
         style="stroke:none;"
         d="M3.336 -2.94 C1.728 -2.94 0.456 -1.8 0.456 0.144 C0.456 1.98 1.668 3.132 3.24 3.132 C4.644 3.132 6.132 2.196 6.132 0.048 C6.132 -1.728 5.004 -2.94 3.336 -2.94 ZM3.312 -2.148 C4.56 -2.148 5.052 -0.9 5.052 0.084 C5.052 1.392 4.296 2.34 3.288 2.34 C2.256 2.34 1.524 1.38 1.524 0.108 C1.524 -0.996 2.064 -2.148 3.312 -2.148 ZM7.464 1.5 C7.464 2.016 7.44 2.604 7.416 3 L8.328 3 L8.376 2.04 L8.412 2.04 C8.844 2.808 9.516 3.132 10.356 3.132 C11.652 3.132 12.96 2.1 12.96 0.024 C12.972 -1.74 11.952 -2.94 10.512 -2.94 C9.576 -2.94 8.904 -2.52 8.532 -1.872 L8.508 -1.872 L8.508 -5.52 L7.464 -5.52 ZM8.508 -0.372 C8.508 -0.54 8.544 -0.684 8.568 -0.804 C8.784 -1.608 9.456 -2.1 10.176 -2.1 C11.304 -2.1 11.904 -1.104 11.904 0.06 C11.904 1.392 11.244 2.292 10.14 2.292 C9.372 2.292 8.76 1.788 8.556 1.056 C8.532 0.936 8.508 0.804 8.508 0.672 ZM13.884 2.724 C14.292 2.964 14.88 3.132 15.516 3.132 C16.896 3.132 17.688 2.4 17.688 1.38 C17.688 0.516 17.172 0.012 16.164 -0.372 C15.408 -0.66 15.06 -0.876 15.06 -1.356 C15.06 -1.788 15.408 -2.148 16.032 -2.148 C16.572 -2.148 16.992 -1.956 17.22 -1.812 L17.484 -2.58 C17.16 -2.772 16.644 -2.94 16.056 -2.94 C14.808 -2.94 14.052 -2.172 14.052 -1.236 C14.052 -0.54 14.544 0.036 15.588 0.408 C16.368 0.696 16.668 0.972 16.668 1.476 C16.668 1.956 16.308 2.34 15.54 2.34 C15.012 2.34 14.46 2.124 14.148 1.92 ZM23.712 0.288 C23.724 0.18 23.748 0.012 23.748 -0.204 C23.748 -1.272 23.244 -2.94 21.348 -2.94 C19.656 -2.94 18.624 -1.56 18.624 0.192 C18.624 1.944 19.692 3.132 21.48 3.132 C22.404 3.132 23.04 2.928 23.412 2.76 L23.232 2.004 C22.836 2.172 22.38 2.304 21.624 2.304 C20.568 2.304 19.656 1.716 19.632 0.288 ZM19.644 -0.468 C19.728 -1.2 20.196 -2.184 21.264 -2.184 C22.452 -2.184 22.74 -1.14 22.728 -0.468 ZM25.056 3 L26.1 3 L26.1 -0.096 C26.1 -0.276 26.124 -0.444 26.148 -0.588 C26.292 -1.38 26.82 -1.944 27.564 -1.944 C27.708 -1.944 27.816 -1.932 27.924 -1.908 L27.924 -2.904 C27.828 -2.928 27.744 -2.94 27.624 -2.94 C26.916 -2.94 26.28 -2.448 26.016 -1.668 L25.968 -1.668 L25.932 -2.808 L25.008 -2.808 C25.044 -2.268 25.056 -1.68 25.056 -0.996 ZM28.26 -2.808 L30.468 3 L31.476 3 L33.756 -2.808 L32.652 -2.808 L31.524 0.456 C31.332 0.984 31.164 1.464 31.032 1.944 L30.996 1.944 C30.876 1.464 30.72 0.984 30.528 0.456 L29.388 -2.808 ZM39.42 0.288 C39.432 0.18 39.456 0.012 39.456 -0.204 C39.456 -1.272 38.952 -2.94 37.056 -2.94 C35.364 -2.94 34.332 -1.56 34.332 0.192 C34.332 1.944 35.4 3.132 37.188 3.132 C38.112 3.132 38.748 2.928 39.12 2.76 L38.94 2.004 C38.544 2.172 38.088 2.304 37.332 2.304 C36.276 2.304 35.364 1.716 35.34 0.288 ZM35.352 -0.468 C35.436 -1.2 35.904 -2.184 36.972 -2.184 C38.16 -2.184 38.448 -1.14 38.436 -0.468 ZM44.724 -5.52 L44.724 -2.052 L44.7 -2.052 C44.436 -2.52 43.836 -2.94 42.948 -2.94 C41.532 -2.94 40.332 -1.752 40.344 0.18 C40.344 1.944 41.424 3.132 42.828 3.132 C43.776 3.132 44.484 2.64 44.808 1.992 L44.832 1.992 L44.88 3 L45.828 3 C45.792 2.604 45.78 2.016 45.78 1.5 L45.78 -5.52 ZM44.724 0.564 C44.724 0.732 44.712 0.876 44.676 1.02 C44.484 1.812 43.836 2.28 43.128 2.28 C41.988 2.28 41.412 1.308 41.412 0.132 C41.412 -1.152 42.06 -2.112 43.152 -2.112 C43.944 -2.112 44.52 -1.56 44.676 -0.888 C44.712 -0.756 44.724 -0.576 44.724 -0.444 ZM49.668 2.724 C50.076 2.964 50.664 3.132 51.3 3.132 C52.68 3.132 53.472 2.4 53.472 1.38 C53.472 0.516 52.956 0.012 51.948 -0.372 C51.192 -0.66 50.844 -0.876 50.844 -1.356 C50.844 -1.788 51.192 -2.148 51.816 -2.148 C52.356 -2.148 52.776 -1.956 53.004 -1.812 L53.268 -2.58 C52.944 -2.772 52.428 -2.94 51.84 -2.94 C50.592 -2.94 49.836 -2.172 49.836 -1.236 C49.836 -0.54 50.328 0.036 51.372 0.408 C52.152 0.696 52.452 0.972 52.452 1.476 C52.452 1.956 52.092 2.34 51.324 2.34 C50.796 2.34 50.244 2.124 49.932 1.92 ZM58.908 -0.564 C58.908 -1.728 58.476 -2.94 56.7 -2.94 C55.968 -2.94 55.272 -2.736 54.792 -2.424 L55.032 -1.728 C55.44 -1.992 56.004 -2.16 56.544 -2.16 C57.732 -2.16 57.864 -1.296 57.864 -0.816 L57.864 -0.696 C55.62 -0.708 54.372 0.06 54.372 1.464 C54.372 2.304 54.972 3.132 56.148 3.132 C56.976 3.132 57.6 2.724 57.924 2.268 L57.96 2.268 L58.044 3 L59.004 3 C58.932 2.604 58.908 2.112 58.908 1.608 ZM57.888 1.044 C57.888 1.152 57.864 1.272 57.828 1.38 C57.66 1.872 57.18 2.352 56.424 2.352 C55.884 2.352 55.428 2.028 55.428 1.344 C55.428 0.216 56.736 0.012 57.888 0.036 ZM60.612 3 L61.644 3 L61.644 -0.504 C61.644 -0.684 61.668 -0.864 61.728 -1.02 C61.896 -1.548 62.376 -2.076 63.036 -2.076 C63.84 -2.076 64.248 -1.404 64.248 -0.48 L64.248 3 L65.28 3 L65.28 -0.588 C65.28 -0.78 65.316 -0.972 65.364 -1.116 C65.544 -1.632 66.012 -2.076 66.612 -2.076 C67.464 -2.076 67.872 -1.404 67.872 -0.288 L67.872 3 L68.904 3 L68.904 -0.42 C68.904 -2.436 67.764 -2.94 66.996 -2.94 C66.444 -2.94 66.06 -2.796 65.712 -2.532 C65.472 -2.352 65.244 -2.1 65.064 -1.776 L65.04 -1.776 C64.788 -2.46 64.188 -2.94 63.396 -2.94 C62.436 -2.94 61.896 -2.424 61.572 -1.872 L61.536 -1.872 L61.488 -2.808 L60.564 -2.808 C60.6 -2.328 60.612 -1.836 60.612 -1.236 ZM70.62 5.376 L71.664 5.376 L71.664 2.22 L71.688 2.22 C72.036 2.796 72.708 3.132 73.476 3.132 C74.844 3.132 76.116 2.1 76.116 0.012 C76.116 -1.752 75.06 -2.94 73.656 -2.94 C72.708 -2.94 72.024 -2.52 71.592 -1.812 L71.568 -1.812 L71.52 -2.808 L70.572 -2.808 C70.596 -2.256 70.62 -1.656 70.62 -0.912 ZM71.664 -0.36 C71.664 -0.504 71.7 -0.66 71.736 -0.792 C71.94 -1.584 72.612 -2.1 73.332 -2.1 C74.448 -2.1 75.06 -1.104 75.06 0.06 C75.06 1.392 74.412 2.304 73.296 2.304 C72.54 2.304 71.904 1.8 71.712 1.068 C71.688 0.936 71.664 0.792 71.664 0.636 ZM77.448 3 L78.504 3 L78.504 -5.52 L77.448 -5.52 ZM84.948 0.288 C84.96 0.18 84.984 0.012 84.984 -0.204 C84.984 -1.272 84.48 -2.94 82.584 -2.94 C80.892 -2.94 79.86 -1.56 79.86 0.192 C79.86 1.944 80.928 3.132 82.716 3.132 C83.64 3.132 84.276 2.928 84.648 2.76 L84.468 2.004 C84.072 2.172 83.616 2.304 82.86 2.304 C81.804 2.304 80.892 1.716 80.868 0.288 ZM80.88 -0.468 C80.964 -1.2 81.432 -2.184 82.5 -2.184 C83.688 -2.184 83.976 -1.14 83.964 -0.468 ZM85.884 2.724 C86.292 2.964 86.88 3.132 87.516 3.132 C88.896 3.132 89.688 2.4 89.688 1.38 C89.688 0.516 89.172 0.012 88.164 -0.372 C87.408 -0.66 87.06 -0.876 87.06 -1.356 C87.06 -1.788 87.408 -2.148 88.032 -2.148 C88.572 -2.148 88.992 -1.956 89.22 -1.812 L89.484 -2.58 C89.16 -2.772 88.644 -2.94 88.056 -2.94 C86.808 -2.94 86.052 -2.172 86.052 -1.236 C86.052 -0.54 86.544 0.036 87.588 0.408 C88.368 0.696 88.668 0.972 88.668 1.476 C88.668 1.956 88.308 2.34 87.54 2.34 C87.012 2.34 86.46 2.124 86.148 1.92 Z"
         id="path315" />
    </g>
    <g
       transform="translate(135,46.5)"
       style="text-rendering:geometricPrecision; color-interpolation:linearRGB; color-rendering:optimizeQuality; stroke-linecap:butt; image-rendering:optimizeQuality;"
       id="g317">
      <circle
         r="5"
         style="fill:none;"
         cx="-0.5"
         cy="-0.5"
         id="circle319" />
    </g>
    <g
       transform="translate(153,62)"
       style="text-rendering:geometricPrecision; font-family:'Myriad Pro'; color-interpolation:linearRGB; color-rendering:optimizeQuality; image-rendering:optimizeQuality;"
       id="g321">
      <path
         style="stroke:none;"
         d="M0.876 0 L1.932 0 L1.932 -3.492 C1.932 -3.672 1.956 -3.852 2.004 -3.984 C2.184 -4.572 2.724 -5.064 3.42 -5.064 C4.416 -5.064 4.764 -4.284 4.764 -3.348 L4.764 0 L5.82 0 L5.82 -3.468 C5.82 -5.46 4.572 -5.94 3.768 -5.94 C2.808 -5.94 2.136 -5.4 1.848 -4.848 L1.824 -4.848 L1.764 -5.808 L0.828 -5.808 C0.864 -5.328 0.876 -4.836 0.876 -4.236 ZM11.616 -3.564 C11.616 -4.728 11.184 -5.94 9.408 -5.94 C8.676 -5.94 7.98 -5.736 7.5 -5.424 L7.74 -4.728 C8.148 -4.992 8.712 -5.16 9.252 -5.16 C10.44 -5.16 10.572 -4.296 10.572 -3.816 L10.572 -3.696 C8.328 -3.708 7.08 -2.94 7.08 -1.536 C7.08 -0.696 7.68 0.132 8.856 0.132 C9.684 0.132 10.308 -0.276 10.632 -0.732 L10.668 -0.732 L10.752 0 L11.712 0 C11.64 -0.396 11.616 -0.888 11.616 -1.392 ZM10.596 -1.956 C10.596 -1.848 10.572 -1.728 10.536 -1.62 C10.368 -1.128 9.888 -0.648 9.132 -0.648 C8.592 -0.648 8.136 -0.972 8.136 -1.656 C8.136 -2.784 9.444 -2.988 10.596 -2.964 ZM14.376 0 L14.376 -5.808 L13.32 -5.808 L13.32 0 ZM13.848 -8.1 C13.464 -8.1 13.188 -7.812 13.188 -7.44 C13.188 -7.08 13.452 -6.792 13.824 -6.792 C14.244 -6.792 14.508 -7.08 14.496 -7.44 C14.496 -7.812 14.244 -8.1 13.848 -8.1 ZM15.408 -5.808 L17.616 0 L18.624 0 L20.904 -5.808 L19.8 -5.808 L18.672 -2.544 C18.48 -2.016 18.312 -1.536 18.18 -1.056 L18.144 -1.056 C18.024 -1.536 17.868 -2.016 17.676 -2.544 L16.536 -5.808 ZM26.568 -2.712 C26.58 -2.82 26.604 -2.988 26.604 -3.204 C26.604 -4.272 26.1 -5.94 24.204 -5.94 C22.512 -5.94 21.48 -4.56 21.48 -2.808 C21.48 -1.056 22.548 0.132 24.336 0.132 C25.26 0.132 25.896 -0.072 26.268 -0.24 L26.088 -0.996 C25.692 -0.828 25.236 -0.696 24.48 -0.696 C23.424 -0.696 22.512 -1.284 22.488 -2.712 ZM22.5 -3.468 C22.584 -4.2 23.052 -5.184 24.12 -5.184 C25.308 -5.184 25.596 -4.14 25.584 -3.468 Z"
         id="path323" />
    </g>
    <g
       transform="translate(183,62)"
       style="text-rendering:geometricPrecision; font-family:'mwb_cmmi10'; color-interpolation:linearRGB; color-rendering:optimizeQuality; image-rendering:optimizeQuality;"
       id="g325">
      <path
         style="stroke:none;"
         d="M2.4219 0.1406 Q1.8438 0.1406 1.4062 -0.1328 Q0.9688 -0.4062 0.7266 -0.8594 Q0.4844 -1.3125 0.4844 -1.9062 Q0.4844 -2.7188 0.9375 -3.5156 Q1.3906 -4.3125 2.1406 -4.8047 Q2.8906 -5.2969 3.7188 -5.2969 Q4.3281 -5.2969 4.7891 -4.9844 Q5.25 -4.6719 5.4922 -4.1406 Q5.7344 -3.6094 5.7344 -3 L5.75 -2.2031 Q6.1562 -2.7656 6.4453 -3.375 Q6.7344 -3.9844 6.875 -4.6406 Q6.9062 -4.7188 6.9688 -4.7188 L7.1094 -4.7188 Q7.2188 -4.7188 7.2188 -4.6094 Q7.2188 -4.5938 7.2188 -4.5781 Q7.0781 -4.0156 6.8672 -3.5078 Q6.6562 -3 6.3672 -2.5312 Q6.0781 -2.0625 5.75 -1.6719 Q5.75 -0.1875 6.0938 -0.1875 Q6.3125 -0.1875 6.4609 -0.3203 Q6.6094 -0.4531 6.7188 -0.6406 Q6.8281 -0.8281 6.8438 -0.8438 L7 -0.8438 Q7.0938 -0.8438 7.0938 -0.7188 Q7.0938 -0.4219 6.75 -0.1406 Q6.4062 0.1406 6.0781 0.1406 Q5.6406 0.1406 5.3516 -0.1406 Q5.0625 -0.4219 4.9531 -0.875 Q4.3906 -0.4062 3.7344 -0.1328 Q3.0781 0.1406 2.4219 0.1406 ZM2.4375 -0.1875 Q3.7188 -0.1875 4.9062 -1.2344 Q4.8906 -1.3125 4.8828 -1.4141 Q4.875 -1.5156 4.875 -1.5312 L4.875 -2.8125 Q4.875 -5 3.7031 -5 Q3 -5 2.4688 -4.3984 Q1.9375 -3.7969 1.6719 -2.9609 Q1.4062 -2.125 1.4062 -1.4375 Q1.4062 -0.9062 1.6719 -0.5469 Q1.9375 -0.1875 2.4375 -0.1875 Z"
         id="path327" />
    </g>
    <g
       transform="translate(191,62)"
       style="text-rendering:geometricPrecision; font-family:'Myriad Pro'; color-interpolation:linearRGB; color-rendering:optimizeQuality; image-rendering:optimizeQuality;"
       id="g329">
      <path
         style="stroke:none;"
         d="M9.216 -4.044 L9.216 -4.764 L3.024 -4.764 L3.024 -4.044 ZM9.216 -1.692 L9.216 -2.412 L3.024 -2.412 L3.024 -1.692 ZM15.072 0 L16.092 0 L16.092 -7.8 L15.192 -7.8 L13.488 -6.888 L13.692 -6.084 L15.048 -6.816 L15.072 -6.816 ZM19.728 0.132 C20.172 0.132 20.448 -0.192 20.448 -0.624 C20.448 -1.068 20.16 -1.38 19.74 -1.38 C19.32 -1.38 19.02 -1.068 19.02 -0.624 C19.02 -0.192 19.308 0.132 19.716 0.132 ZM24.024 -7.932 C22.44 -7.932 21.312 -6.492 21.312 -3.876 C21.336 -1.296 22.368 0.132 23.892 0.132 C25.62 0.132 26.604 -1.332 26.604 -3.984 C26.604 -6.468 25.668 -7.932 24.024 -7.932 ZM23.964 -7.116 C25.056 -7.116 25.548 -5.856 25.548 -3.936 C25.548 -1.944 25.032 -0.684 23.952 -0.684 C22.992 -0.684 22.368 -1.836 22.368 -3.864 C22.368 -5.988 23.04 -7.116 23.964 -7.116 ZM29.868 0 L30.888 0 L30.888 -7.8 L29.988 -7.8 L28.284 -6.888 L28.488 -6.084 L29.844 -6.816 L29.868 -6.816 Z"
         id="path331" />
    </g>
    <g
       style="stroke-linecap:butt; fill:red; text-rendering:geometricPrecision; color-rendering:optimizeQuality; image-rendering:optimizeQuality; stroke-linejoin:bevel; stroke-dasharray:10,6; color-interpolation:linearRGB; stroke:red; stroke-miterlimit:1;"
       id="g333">
      <line
         y2="59"
         style="fill:none;"
         x1="120"
         x2="150"
         y1="59"
         id="line335" />
    </g>
    <g
       transform="translate(153,75)"
       style="text-rendering:geometricPrecision; font-family:'Myriad Pro'; color-interpolation:linearRGB; color-rendering:optimizeQuality; image-rendering:optimizeQuality;"
       id="g337">
      <path
         style="stroke:none;"
         d="M6.348 -1.092 C5.928 -0.888 5.28 -0.756 4.644 -0.756 C2.676 -0.756 1.536 -2.028 1.536 -4.008 C1.536 -6.132 2.796 -7.344 4.692 -7.344 C5.364 -7.344 5.928 -7.2 6.324 -7.008 L6.576 -7.86 C6.3 -8.004 5.664 -8.22 4.656 -8.22 C2.148 -8.22 0.432 -6.504 0.432 -3.972 C0.432 -1.32 2.148 0.132 4.428 0.132 C5.412 0.132 6.18 -0.072 6.564 -0.264 ZM7.32 0 L13.224 0 L13.224 -0.876 L8.7 -0.876 L8.7 -0.912 L13.164 -7.452 L13.164 -8.088 L7.704 -8.088 L7.704 -7.212 L11.808 -7.212 L11.808 -7.176 L7.32 -0.612 ZM21.528 0 L22.548 0 L22.044 -8.088 L20.712 -8.088 L19.272 -4.176 C18.912 -3.156 18.624 -2.268 18.42 -1.452 L18.384 -1.452 C18.18 -2.292 17.904 -3.18 17.568 -4.176 L16.188 -8.088 L14.856 -8.088 L14.292 0 L15.288 0 L15.504 -3.468 C15.576 -4.68 15.636 -6.036 15.66 -7.044 L15.684 -7.044 C15.912 -6.084 16.236 -5.04 16.62 -3.9 L17.928 -0.048 L18.72 -0.048 L20.148 -3.972 C20.556 -5.076 20.892 -6.096 21.168 -7.044 L21.204 -7.044 C21.192 -6.036 21.264 -4.68 21.324 -3.552 Z"
         id="path339" />
    </g>
    <g
       transform="translate(179,75)"
       style="text-rendering:geometricPrecision; font-family:'mwb_cmmi10'; color-interpolation:linearRGB; color-rendering:optimizeQuality; image-rendering:optimizeQuality;"
       id="g341">
      <path
         style="stroke:none;"
         d="M2.4219 0.1406 Q1.8438 0.1406 1.4062 -0.1328 Q0.9688 -0.4062 0.7266 -0.8594 Q0.4844 -1.3125 0.4844 -1.9062 Q0.4844 -2.7188 0.9375 -3.5156 Q1.3906 -4.3125 2.1406 -4.8047 Q2.8906 -5.2969 3.7188 -5.2969 Q4.3281 -5.2969 4.7891 -4.9844 Q5.25 -4.6719 5.4922 -4.1406 Q5.7344 -3.6094 5.7344 -3 L5.75 -2.2031 Q6.1562 -2.7656 6.4453 -3.375 Q6.7344 -3.9844 6.875 -4.6406 Q6.9062 -4.7188 6.9688 -4.7188 L7.1094 -4.7188 Q7.2188 -4.7188 7.2188 -4.6094 Q7.2188 -4.5938 7.2188 -4.5781 Q7.0781 -4.0156 6.8672 -3.5078 Q6.6562 -3 6.3672 -2.5312 Q6.0781 -2.0625 5.75 -1.6719 Q5.75 -0.1875 6.0938 -0.1875 Q6.3125 -0.1875 6.4609 -0.3203 Q6.6094 -0.4531 6.7188 -0.6406 Q6.8281 -0.8281 6.8438 -0.8438 L7 -0.8438 Q7.0938 -0.8438 7.0938 -0.7188 Q7.0938 -0.4219 6.75 -0.1406 Q6.4062 0.1406 6.0781 0.1406 Q5.6406 0.1406 5.3516 -0.1406 Q5.0625 -0.4219 4.9531 -0.875 Q4.3906 -0.4062 3.7344 -0.1328 Q3.0781 0.1406 2.4219 0.1406 ZM2.4375 -0.1875 Q3.7188 -0.1875 4.9062 -1.2344 Q4.8906 -1.3125 4.8828 -1.4141 Q4.875 -1.5156 4.875 -1.5312 L4.875 -2.8125 Q4.875 -5 3.7031 -5 Q3 -5 2.4688 -4.3984 Q1.9375 -3.7969 1.6719 -2.9609 Q1.4062 -2.125 1.4062 -1.4375 Q1.4062 -0.9062 1.6719 -0.5469 Q1.9375 -0.1875 2.4375 -0.1875 Z"
         id="path343" />
    </g>
    <g
       transform="translate(187,75)"
       style="text-rendering:geometricPrecision; font-family:'Myriad Pro'; color-interpolation:linearRGB; color-rendering:optimizeQuality; image-rendering:optimizeQuality;"
       id="g345">
      <path
         style="stroke:none;"
         d="M9.216 -4.044 L9.216 -4.764 L3.024 -4.764 L3.024 -4.044 ZM9.216 -1.692 L9.216 -2.412 L3.024 -2.412 L3.024 -1.692 ZM17.76 0 L17.76 -0.876 L14.256 -0.876 L14.256 -0.9 L14.88 -1.476 C16.524 -3.06 17.568 -4.224 17.568 -5.664 C17.568 -6.78 16.86 -7.932 15.18 -7.932 C14.28 -7.932 13.512 -7.596 12.972 -7.14 L13.308 -6.396 C13.668 -6.696 14.256 -7.056 14.964 -7.056 C16.128 -7.056 16.512 -6.324 16.512 -5.532 C16.5 -4.356 15.6 -3.348 13.608 -1.452 L12.78 -0.648 L12.78 0 ZM19.728 0.132 C20.172 0.132 20.448 -0.192 20.448 -0.624 C20.448 -1.068 20.16 -1.38 19.74 -1.38 C19.32 -1.38 19.02 -1.068 19.02 -0.624 C19.02 -0.192 19.308 0.132 19.716 0.132 ZM24.024 -7.932 C22.44 -7.932 21.312 -6.492 21.312 -3.876 C21.336 -1.296 22.368 0.132 23.892 0.132 C25.62 0.132 26.604 -1.332 26.604 -3.984 C26.604 -6.468 25.668 -7.932 24.024 -7.932 ZM23.964 -7.116 C25.056 -7.116 25.548 -5.856 25.548 -3.936 C25.548 -1.944 25.032 -0.684 23.952 -0.684 C22.992 -0.684 22.368 -1.836 22.368 -3.864 C22.368 -5.988 23.04 -7.116 23.964 -7.116 ZM32.028 -7.92 C31.836 -7.92 31.572 -7.908 31.26 -7.86 C30.276 -7.74 29.412 -7.344 28.764 -6.708 C27.996 -5.94 27.444 -4.728 27.444 -3.192 C27.444 -1.164 28.536 0.132 30.204 0.132 C31.824 0.132 32.796 -1.188 32.796 -2.616 C32.796 -4.14 31.824 -5.136 30.444 -5.136 C29.58 -5.136 28.932 -4.728 28.56 -4.236 L28.524 -4.236 C28.704 -5.52 29.58 -6.732 31.236 -7.008 C31.536 -7.056 31.812 -7.068 32.028 -7.056 ZM30.204 -0.684 C29.1 -0.684 28.512 -1.632 28.488 -2.916 C28.488 -3.108 28.536 -3.264 28.608 -3.384 C28.896 -3.948 29.484 -4.344 30.12 -4.344 C31.092 -4.344 31.728 -3.672 31.728 -2.556 C31.728 -1.44 31.116 -0.684 30.216 -0.684 Z"
         id="path347" />
    </g>
    <g
       style="stroke-linecap:butt; fill:lime; text-rendering:geometricPrecision; color-rendering:optimizeQuality; image-rendering:optimizeQuality; stroke-linejoin:bevel; stroke-dasharray:10,6; color-interpolation:linearRGB; stroke:lime; stroke-miterlimit:1;"
       id="g349">
      <line
         y2="71.5"
         style="fill:none;"
         x1="120"
         x2="150"
         y1="71.5"
         id="line351" />
    </g>
    <g
       transform="translate(153,87)"
       style="text-rendering:geometricPrecision; font-family:'Myriad Pro'; color-interpolation:linearRGB; color-rendering:optimizeQuality; image-rendering:optimizeQuality;"
       id="g353">
      <path
         style="stroke:none;"
         d="M3.336 -5.94 C1.728 -5.94 0.456 -4.8 0.456 -2.856 C0.456 -1.02 1.668 0.132 3.24 0.132 C4.644 0.132 6.132 -0.804 6.132 -2.952 C6.132 -4.728 5.004 -5.94 3.336 -5.94 ZM3.312 -5.148 C4.56 -5.148 5.052 -3.9 5.052 -2.916 C5.052 -1.608 4.296 -0.66 3.288 -0.66 C2.256 -0.66 1.524 -1.62 1.524 -2.892 C1.524 -3.996 2.064 -5.148 3.312 -5.148 ZM12.324 -5.808 L11.268 -5.808 L11.268 -2.244 C11.268 -2.052 11.232 -1.86 11.172 -1.704 C10.98 -1.236 10.488 -0.744 9.78 -0.744 C8.82 -0.744 8.484 -1.488 8.484 -2.592 L8.484 -5.808 L7.428 -5.808 L7.428 -2.412 C7.428 -0.372 8.52 0.132 9.432 0.132 C10.464 0.132 11.076 -0.48 11.352 -0.948 L11.376 -0.948 L11.436 0 L12.372 0 C12.336 -0.456 12.324 -0.984 12.324 -1.584 ZM14.076 0 L15.12 0 L15.12 -3.096 C15.12 -3.276 15.144 -3.444 15.168 -3.588 C15.312 -4.38 15.84 -4.944 16.584 -4.944 C16.728 -4.944 16.836 -4.932 16.944 -4.908 L16.944 -5.904 C16.848 -5.928 16.764 -5.94 16.644 -5.94 C15.936 -5.94 15.3 -5.448 15.036 -4.668 L14.988 -4.668 L14.952 -5.808 L14.028 -5.808 C14.064 -5.268 14.076 -4.68 14.076 -3.996 ZM20.544 0 L21.576 0 L21.576 -3.504 C21.576 -3.684 21.6 -3.864 21.66 -4.02 C21.828 -4.548 22.308 -5.076 22.968 -5.076 C23.772 -5.076 24.18 -4.404 24.18 -3.48 L24.18 0 L25.212 0 L25.212 -3.588 C25.212 -3.78 25.248 -3.972 25.296 -4.116 C25.476 -4.632 25.944 -5.076 26.544 -5.076 C27.396 -5.076 27.804 -4.404 27.804 -3.288 L27.804 0 L28.836 0 L28.836 -3.42 C28.836 -5.436 27.696 -5.94 26.928 -5.94 C26.376 -5.94 25.992 -5.796 25.644 -5.532 C25.404 -5.352 25.176 -5.1 24.996 -4.776 L24.972 -4.776 C24.72 -5.46 24.12 -5.94 23.328 -5.94 C22.368 -5.94 21.828 -5.424 21.504 -4.872 L21.468 -4.872 L21.42 -5.808 L20.496 -5.808 C20.532 -5.328 20.544 -4.836 20.544 -4.236 ZM33.012 -5.94 C31.404 -5.94 30.132 -4.8 30.132 -2.856 C30.132 -1.02 31.344 0.132 32.916 0.132 C34.32 0.132 35.808 -0.804 35.808 -2.952 C35.808 -4.728 34.68 -5.94 33.012 -5.94 ZM32.988 -5.148 C34.236 -5.148 34.728 -3.9 34.728 -2.916 C34.728 -1.608 33.972 -0.66 32.964 -0.66 C31.932 -0.66 31.2 -1.62 31.2 -2.892 C31.2 -3.996 31.74 -5.148 32.988 -5.148 ZM41.1 -8.52 L41.1 -5.052 L41.076 -5.052 C40.812 -5.52 40.212 -5.94 39.324 -5.94 C37.908 -5.94 36.708 -4.752 36.72 -2.82 C36.72 -1.056 37.8 0.132 39.204 0.132 C40.152 0.132 40.86 -0.36 41.184 -1.008 L41.208 -1.008 L41.256 0 L42.204 0 C42.168 -0.396 42.156 -0.984 42.156 -1.5 L42.156 -8.52 ZM41.1 -2.436 C41.1 -2.268 41.088 -2.124 41.052 -1.98 C40.86 -1.188 40.212 -0.72 39.504 -0.72 C38.364 -0.72 37.788 -1.692 37.788 -2.868 C37.788 -4.152 38.436 -5.112 39.528 -5.112 C40.32 -5.112 40.896 -4.56 41.052 -3.888 C41.088 -3.756 41.1 -3.576 41.1 -3.444 ZM48.576 -2.712 C48.588 -2.82 48.612 -2.988 48.612 -3.204 C48.612 -4.272 48.108 -5.94 46.212 -5.94 C44.52 -5.94 43.488 -4.56 43.488 -2.808 C43.488 -1.056 44.556 0.132 46.344 0.132 C47.268 0.132 47.904 -0.072 48.276 -0.24 L48.096 -0.996 C47.7 -0.828 47.244 -0.696 46.488 -0.696 C45.432 -0.696 44.52 -1.284 44.496 -2.712 ZM44.508 -3.468 C44.592 -4.2 45.06 -5.184 46.128 -5.184 C47.316 -5.184 47.604 -4.14 47.592 -3.468 ZM49.92 0 L50.976 0 L50.976 -8.52 L49.92 -8.52 Z"
         id="path355" />
    </g>
    <g
       transform="translate(208,87)"
       style="text-rendering:geometricPrecision; font-family:'mwb_cmmi10'; color-interpolation:linearRGB; color-rendering:optimizeQuality; image-rendering:optimizeQuality;"
       id="g357">
      <path
         style="stroke:none;"
         d="M2.4219 0.1406 Q1.8438 0.1406 1.4062 -0.1328 Q0.9688 -0.4062 0.7266 -0.8594 Q0.4844 -1.3125 0.4844 -1.9062 Q0.4844 -2.7188 0.9375 -3.5156 Q1.3906 -4.3125 2.1406 -4.8047 Q2.8906 -5.2969 3.7188 -5.2969 Q4.3281 -5.2969 4.7891 -4.9844 Q5.25 -4.6719 5.4922 -4.1406 Q5.7344 -3.6094 5.7344 -3 L5.75 -2.2031 Q6.1562 -2.7656 6.4453 -3.375 Q6.7344 -3.9844 6.875 -4.6406 Q6.9062 -4.7188 6.9688 -4.7188 L7.1094 -4.7188 Q7.2188 -4.7188 7.2188 -4.6094 Q7.2188 -4.5938 7.2188 -4.5781 Q7.0781 -4.0156 6.8672 -3.5078 Q6.6562 -3 6.3672 -2.5312 Q6.0781 -2.0625 5.75 -1.6719 Q5.75 -0.1875 6.0938 -0.1875 Q6.3125 -0.1875 6.4609 -0.3203 Q6.6094 -0.4531 6.7188 -0.6406 Q6.8281 -0.8281 6.8438 -0.8438 L7 -0.8438 Q7.0938 -0.8438 7.0938 -0.7188 Q7.0938 -0.4219 6.75 -0.1406 Q6.4062 0.1406 6.0781 0.1406 Q5.6406 0.1406 5.3516 -0.1406 Q5.0625 -0.4219 4.9531 -0.875 Q4.3906 -0.4062 3.7344 -0.1328 Q3.0781 0.1406 2.4219 0.1406 ZM2.4375 -0.1875 Q3.7188 -0.1875 4.9062 -1.2344 Q4.8906 -1.3125 4.8828 -1.4141 Q4.875 -1.5156 4.875 -1.5312 L4.875 -2.8125 Q4.875 -5 3.7031 -5 Q3 -5 2.4688 -4.3984 Q1.9375 -3.7969 1.6719 -2.9609 Q1.4062 -2.125 1.4062 -1.4375 Q1.4062 -0.9062 1.6719 -0.5469 Q1.9375 -0.1875 2.4375 -0.1875 Z"
         id="path359" />
    </g>
    <g
       transform="translate(216,87)"
       style="text-rendering:geometricPrecision; font-family:'Myriad Pro'; color-interpolation:linearRGB; color-rendering:optimizeQuality; image-rendering:optimizeQuality;"
       id="g361">
      <path
         style="stroke:none;"
         d="M6.672 -4.044 L6.672 -4.764 L0.48 -4.764 L0.48 -4.044 ZM6.672 -1.692 L6.672 -2.412 L0.48 -2.412 L0.48 -1.692 ZM12.528 0 L13.548 0 L13.548 -7.8 L12.648 -7.8 L10.944 -6.888 L11.148 -6.084 L12.504 -6.816 L12.528 -6.816 ZM17.184 0.132 C17.628 0.132 17.904 -0.192 17.904 -0.624 C17.904 -1.068 17.616 -1.38 17.196 -1.38 C16.776 -1.38 16.476 -1.068 16.476 -0.624 C16.476 -0.192 16.764 0.132 17.172 0.132 ZM23.136 0 L23.136 -2.124 L24.228 -2.124 L24.228 -2.952 L23.136 -2.952 L23.136 -7.8 L21.996 -7.8 L18.516 -2.82 L18.516 -2.124 L22.14 -2.124 L22.14 0 ZM19.584 -2.952 L19.584 -2.976 L21.492 -5.628 C21.708 -5.988 21.9 -6.324 22.14 -6.78 L22.176 -6.78 C22.152 -6.372 22.14 -5.964 22.14 -5.556 L22.14 -2.952 ZM27.324 0 L28.344 0 L28.344 -7.8 L27.444 -7.8 L25.74 -6.888 L25.944 -6.084 L27.3 -6.816 L27.324 -6.816 Z"
         id="path363" />
    </g>
    <g
       style="text-rendering:geometricPrecision; color-interpolation:linearRGB; color-rendering:optimizeQuality; stroke-linejoin:round; stroke-linecap:butt; image-rendering:optimizeQuality;"
       id="g365">
      <line
         y2="84"
         style="fill:none;"
         x1="120"
         x2="150"
         y1="84"
         id="line367" />
    </g>
  </g>
</svg>
