<?xml version="1.0" encoding="UTF-8" standalone="no"?>
<svg
   xmlns:dc="http://purl.org/dc/elements/1.1/"
   xmlns:cc="http://creativecommons.org/ns#"
   xmlns:rdf="http://www.w3.org/1999/02/22-rdf-syntax-ns#"
   xmlns:svg="http://www.w3.org/2000/svg"
   xmlns="http://www.w3.org/2000/svg"
   xmlns:sodipodi="http://sodipodi.sourceforge.net/DTD/sodipodi-0.dtd"
   xmlns:inkscape="http://www.inkscape.org/namespaces/inkscape"
   style="fill-opacity:1; color-rendering:auto; color-interpolation:auto; stroke:black; text-rendering:auto; stroke-linecap:square; stroke-miterlimit:10; stroke-opacity:1; shape-rendering:auto; fill:black; stroke-dasharray:none; font-weight:normal; stroke-width:1; font-family:'Dialog'; font-style:normal; stroke-linejoin:miter; font-size:12px; stroke-dashoffset:0; image-rendering:auto;"
   width="504"
   height="216"
   id="svg2"
   version="1.1"
   inkscape:version="0.91 r13725"
   sodipodi:docname="maxrichness.svg"
   inkscape:export-filename="/Users/danielreeves/Dropbox/_ongoing/reservoir ecology/Natcomm2/code/matlab/maxrichness.png"
   inkscape:export-xdpi="600"
   inkscape:export-ydpi="600">
  <metadata
     id="metadata379">
    <rdf:RDF>
      <cc:Work
         rdf:about="">
        <dc:format>image/svg+xml</dc:format>
        <dc:type
           rdf:resource="http://purl.org/dc/dcmitype/StillImage" />
      </cc:Work>
    </rdf:RDF>
  </metadata>
  <sodipodi:namedview
     pagecolor="#ffffff"
     bordercolor="#666666"
     borderopacity="1"
     objecttolerance="10"
     gridtolerance="10"
     guidetolerance="10"
     inkscape:pageopacity="0"
     inkscape:pageshadow="2"
     inkscape:window-width="1185"
     inkscape:window-height="777"
     id="namedview377"
     showgrid="false"
     inkscape:zoom="1.5219183"
     inkscape:cx="252"
     inkscape:cy="108"
     inkscape:window-x="0"
     inkscape:window-y="0"
     inkscape:window-maximized="0"
     inkscape:current-layer="g5" />
  <!--Generated by the Batik Graphics2D SVG Generator-->
  <defs
     id="genericDefs" />
  <g
     id="g5">
    <defs
       id="defs1">
      <clipPath
         clipPathUnits="userSpaceOnUse"
         id="clipPath1">
        <path
           d="M0 0 L504 0 L504 216 L0 216 L0 0 Z"
           id="path9" />
      </clipPath>
    </defs>
    <g
       style="fill:white; stroke:white;"
       id="g11">
      <rect
         x="0"
         y="0"
         width="504"
         style="clip-path:url(#clipPath1); stroke:none;"
         height="216"
         id="rect13"
         clip-path="url(#clipPath1)" />
    </g>
    <g
       style="fill:white; text-rendering:optimizeSpeed; color-rendering:optimizeSpeed; image-rendering:optimizeSpeed; shape-rendering:crispEdges; color-interpolation:sRGB; stroke:white;"
       id="g15">
      <rect
         x="0"
         width="504"
         height="216"
         y="0"
         style="stroke:none;"
         id="rect17" />
      <path
         style="stroke:none;"
         d="M66 181 L234 181 L234 20 L66 20 Z"
         id="path19" />
    </g>
    <g
       style="fill:rgb(38,38,38); text-rendering:geometricPrecision; color-rendering:optimizeQuality; image-rendering:optimizeQuality; stroke-linejoin:round; color-interpolation:linearRGB; stroke:rgb(38,38,38); stroke-width:0.5;"
       id="g21">
      <line
         y2="181"
         style="fill:none;"
         x1="66"
         x2="234"
         y1="181"
         id="line23" />
      <line
         y2="20"
         style="fill:none;"
         x1="66"
         x2="234"
         y1="20"
         id="line25" />
      <line
         y2="179.32"
         style="fill:none;"
         x1="66"
         x2="66"
         y1="181"
         id="line27" />
      <line
         y2="179.32"
         style="fill:none;"
         x1="90"
         x2="90"
         y1="181"
         id="line29" />
      <line
         y2="179.32"
         style="fill:none;"
         x1="114"
         x2="114"
         y1="181"
         id="line31" />
      <line
         y2="179.32"
         style="fill:none;"
         x1="138"
         x2="138"
         y1="181"
         id="line33" />
      <line
         y2="179.32"
         style="fill:none;"
         x1="162"
         x2="162"
         y1="181"
         id="line35" />
      <line
         y2="179.32"
         style="fill:none;"
         x1="186"
         x2="186"
         y1="181"
         id="line37" />
      <line
         y2="179.32"
         style="fill:none;"
         x1="210"
         x2="210"
         y1="181"
         id="line39" />
      <line
         y2="179.32"
         style="fill:none;"
         x1="234"
         x2="234"
         y1="181"
         id="line41" />
      <line
         y2="21.68"
         style="fill:none;"
         x1="66"
         x2="66"
         y1="20"
         id="line43" />
      <line
         y2="21.68"
         style="fill:none;"
         x1="90"
         x2="90"
         y1="20"
         id="line45" />
      <line
         y2="21.68"
         style="fill:none;"
         x1="114"
         x2="114"
         y1="20"
         id="line47" />
      <line
         y2="21.68"
         style="fill:none;"
         x1="138"
         x2="138"
         y1="20"
         id="line49" />
      <line
         y2="21.68"
         style="fill:none;"
         x1="162"
         x2="162"
         y1="20"
         id="line51" />
      <line
         y2="21.68"
         style="fill:none;"
         x1="186"
         x2="186"
         y1="20"
         id="line53" />
      <line
         y2="21.68"
         style="fill:none;"
         x1="210"
         x2="210"
         y1="20"
         id="line55" />
      <line
         y2="21.68"
         style="fill:none;"
         x1="234"
         x2="234"
         y1="20"
         id="line57" />
    </g>
    <g
       transform="translate(66,185.4)"
       style="fill:rgb(38,38,38); text-rendering:geometricPrecision; color-rendering:optimizeQuality; image-rendering:optimizeQuality; font-family:'Myriad Pro'; color-interpolation:linearRGB; stroke:rgb(38,38,38);"
       id="g59">
      <path
         style="stroke:none;"
         d="M-2.996 8.604 C-2.612 8.856 -1.844 9.132 -0.968 9.132 C0.904 9.132 1.876 8.04 1.876 6.792 C1.876 5.7 1.096 4.98 0.136 4.788 L0.136 4.764 C1.096 4.416 1.576 3.732 1.576 2.928 C1.576 1.98 0.88 1.068 -0.656 1.068 C-1.496 1.068 -2.288 1.368 -2.696 1.668 L-2.42 2.436 C-2.084 2.196 -1.484 1.92 -0.86 1.92 C0.112 1.92 0.508 2.472 0.508 3.096 C0.508 4.02 -0.464 4.416 -1.232 4.416 L-1.82 4.416 L-1.82 5.208 L-1.232 5.208 C-0.212 5.208 0.772 5.676 0.784 6.768 C0.796 7.416 0.376 8.28 -0.98 8.28 C-1.712 8.28 -2.408 7.98 -2.708 7.788 Z"
         id="path61" />
    </g>
    <g
       transform="translate(90,185.4)"
       style="fill:rgb(38,38,38); text-rendering:geometricPrecision; color-rendering:optimizeQuality; image-rendering:optimizeQuality; font-family:'Myriad Pro'; color-interpolation:linearRGB; stroke:rgb(38,38,38);"
       id="g63">
      <path
         style="stroke:none;"
         d="M1.3 9 L1.3 6.876 L2.392 6.876 L2.392 6.048 L1.3 6.048 L1.3 1.2 L0.16 1.2 L-3.32 6.18 L-3.32 6.876 L0.304 6.876 L0.304 9 ZM-2.252 6.048 L-2.252 6.024 L-0.344 3.372 C-0.128 3.012 0.064 2.676 0.304 2.22 L0.34 2.22 C0.316 2.628 0.304 3.036 0.304 3.444 L0.304 6.048 Z"
         id="path65" />
    </g>
    <g
       transform="translate(114,185.4)"
       style="fill:rgb(38,38,38); text-rendering:geometricPrecision; color-rendering:optimizeQuality; image-rendering:optimizeQuality; font-family:'Myriad Pro'; color-interpolation:linearRGB; stroke:rgb(38,38,38);"
       id="g67">
      <path
         style="stroke:none;"
         d="M1.696 1.2 L-2.036 1.2 L-2.54 4.944 C-2.252 4.908 -1.904 4.86 -1.46 4.86 C0.1 4.86 0.772 5.58 0.784 6.588 C0.784 7.632 -0.068 8.28 -1.064 8.28 C-1.772 8.28 -2.408 8.04 -2.732 7.848 L-2.996 8.652 C-2.624 8.892 -1.904 9.132 -1.052 9.132 C0.64 9.132 1.852 7.992 1.852 6.468 C1.852 5.484 1.348 4.812 0.736 4.464 C0.256 4.176 -0.344 4.044 -0.944 4.044 C-1.232 4.044 -1.4 4.068 -1.58 4.092 L-1.28 2.088 L1.696 2.088 Z"
         id="path69" />
    </g>
    <g
       transform="translate(138,185.4)"
       style="fill:rgb(38,38,38); text-rendering:geometricPrecision; color-rendering:optimizeQuality; image-rendering:optimizeQuality; font-family:'Myriad Pro'; color-interpolation:linearRGB; stroke:rgb(38,38,38);"
       id="g71">
      <path
         style="stroke:none;"
         d="M1.492 1.08 C1.3 1.08 1.036 1.092 0.724 1.14 C-0.26 1.26 -1.124 1.656 -1.772 2.292 C-2.54 3.06 -3.092 4.272 -3.092 5.808 C-3.092 7.836 -2 9.132 -0.332 9.132 C1.288 9.132 2.26 7.812 2.26 6.384 C2.26 4.86 1.288 3.864 -0.092 3.864 C-0.956 3.864 -1.604 4.272 -1.976 4.764 L-2.012 4.764 C-1.832 3.48 -0.956 2.268 0.7 1.992 C1 1.944 1.276 1.932 1.492 1.944 ZM-0.332 8.316 C-1.436 8.316 -2.024 7.368 -2.048 6.084 C-2.048 5.892 -2 5.736 -1.928 5.616 C-1.64 5.052 -1.052 4.656 -0.416 4.656 C0.556 4.656 1.192 5.328 1.192 6.444 C1.192 7.56 0.58 8.316 -0.32 8.316 Z"
         id="path73" />
    </g>
    <g
       transform="translate(162,185.4)"
       style="fill:rgb(38,38,38); text-rendering:geometricPrecision; color-rendering:optimizeQuality; image-rendering:optimizeQuality; font-family:'Myriad Pro'; color-interpolation:linearRGB; stroke:rgb(38,38,38);"
       id="g75">
      <path
         style="stroke:none;"
         d="M-2.816 1.2 L-2.816 2.076 L1 2.076 L1 2.1 L-2.384 9 L-1.292 9 L2.104 1.896 L2.104 1.2 Z"
         id="path77" />
    </g>
    <g
       transform="translate(186,185.4)"
       style="fill:rgb(38,38,38); text-rendering:geometricPrecision; color-rendering:optimizeQuality; image-rendering:optimizeQuality; font-family:'Myriad Pro'; color-interpolation:linearRGB; stroke:rgb(38,38,38);"
       id="g79">
      <path
         style="stroke:none;"
         d="M-1.508 4.932 C-2.468 5.34 -3.056 6.036 -3.056 7.02 C-3.056 8.16 -2.072 9.132 -0.44 9.132 C1.048 9.132 2.212 8.22 2.212 6.864 C2.212 5.916 1.612 5.232 0.64 4.848 L0.64 4.812 C1.6 4.356 1.924 3.648 1.924 2.988 C1.924 2.016 1.168 1.068 -0.344 1.068 C-1.712 1.068 -2.756 1.908 -2.756 3.144 C-2.756 3.816 -2.384 4.488 -1.52 4.896 ZM-0.416 8.364 C-1.412 8.364 -2.012 7.668 -1.976 6.876 C-1.976 6.132 -1.484 5.532 -0.572 5.268 C0.484 5.568 1.144 6.024 1.144 6.972 C1.144 7.764 0.532 8.364 -0.416 8.364 ZM-0.404 1.824 C0.544 1.824 0.916 2.472 0.916 3.096 C0.916 3.804 0.4 4.284 -0.272 4.512 C-1.172 4.272 -1.76 3.852 -1.76 3.072 C-1.76 2.4 -1.28 1.824 -0.404 1.824 Z"
         id="path81" />
    </g>
    <g
       transform="translate(210,185.4)"
       style="fill:rgb(38,38,38); text-rendering:geometricPrecision; color-rendering:optimizeQuality; image-rendering:optimizeQuality; font-family:'Myriad Pro'; color-interpolation:linearRGB; stroke:rgb(38,38,38);"
       id="g83">
      <path
         style="stroke:none;"
         d="M-2.348 9.12 C-2.096 9.132 -1.76 9.12 -1.376 9.06 C-0.536 8.964 0.292 8.604 0.892 8.016 C1.66 7.272 2.236 6.072 2.236 4.356 C2.236 2.364 1.252 1.068 -0.344 1.068 C-1.94 1.068 -3.008 2.364 -3.008 3.84 C-3.008 5.172 -2.108 6.228 -0.704 6.228 C0.076 6.228 0.7 5.916 1.132 5.388 L1.168 5.388 C1.024 6.312 0.652 6.996 0.136 7.464 C-0.308 7.884 -0.884 8.136 -1.496 8.22 C-1.856 8.256 -2.12 8.28 -2.348 8.256 ZM-0.428 1.872 C0.676 1.872 1.168 2.892 1.168 4.224 C1.168 4.392 1.132 4.512 1.072 4.608 C0.796 5.076 0.244 5.424 -0.464 5.424 C-1.376 5.424 -1.964 4.74 -1.964 3.768 C-1.964 2.664 -1.328 1.872 -0.44 1.872 Z"
         id="path85" />
    </g>
    <g
       transform="translate(234,185.4)"
       style="fill:rgb(38,38,38); text-rendering:geometricPrecision; color-rendering:optimizeQuality; image-rendering:optimizeQuality; font-family:'Myriad Pro'; color-interpolation:linearRGB; stroke:rgb(38,38,38);"
       id="g87">
      <path
         style="stroke:none;"
         d="M-3.668 9 L-2.648 9 L-2.648 1.2 L-3.548 1.2 L-5.252 2.112 L-5.048 2.916 L-3.692 2.184 L-3.668 2.184 ZM2.8 1.068 C1.216 1.068 0.088 2.508 0.088 5.124 C0.112 7.704 1.144 9.132 2.668 9.132 C4.396 9.132 5.38 7.668 5.38 5.016 C5.38 2.532 4.444 1.068 2.8 1.068 ZM2.74 1.884 C3.832 1.884 4.324 3.144 4.324 5.064 C4.324 7.056 3.808 8.316 2.728 8.316 C1.768 8.316 1.144 7.164 1.144 5.136 C1.144 3.012 1.816 1.884 2.74 1.884 Z"
         id="path89" />
    </g>
    <g
       transform="translate(83,207)"
       style="fill:rgb(38,38,38); text-rendering:geometricPrecision; color-rendering:optimizeQuality; image-rendering:optimizeQuality; font-family:'Myriad Pro'; color-interpolation:linearRGB; stroke:rgb(38,38,38);"
       id="g91">
      <path
         style="stroke:none;"
         d="M0.876 0 L1.908 0 L1.908 -3.504 C1.908 -3.684 1.932 -3.864 1.992 -4.02 C2.16 -4.548 2.64 -5.076 3.3 -5.076 C4.104 -5.076 4.512 -4.404 4.512 -3.48 L4.512 0 L5.544 0 L5.544 -3.588 C5.544 -3.78 5.58 -3.972 5.628 -4.116 C5.808 -4.632 6.276 -5.076 6.876 -5.076 C7.728 -5.076 8.136 -4.404 8.136 -3.288 L8.136 0 L9.168 0 L9.168 -3.42 C9.168 -5.436 8.028 -5.94 7.26 -5.94 C6.708 -5.94 6.324 -5.796 5.976 -5.532 C5.736 -5.352 5.508 -5.1 5.328 -4.776 L5.304 -4.776 C5.052 -5.46 4.452 -5.94 3.66 -5.94 C2.7 -5.94 2.16 -5.424 1.836 -4.872 L1.8 -4.872 L1.752 -5.808 L0.828 -5.808 C0.864 -5.328 0.876 -4.836 0.876 -4.236 ZM14.964 -3.564 C14.964 -4.728 14.532 -5.94 12.756 -5.94 C12.024 -5.94 11.328 -5.736 10.848 -5.424 L11.088 -4.728 C11.496 -4.992 12.06 -5.16 12.6 -5.16 C13.788 -5.16 13.92 -4.296 13.92 -3.816 L13.92 -3.696 C11.676 -3.708 10.428 -2.94 10.428 -1.536 C10.428 -0.696 11.028 0.132 12.204 0.132 C13.032 0.132 13.656 -0.276 13.98 -0.732 L14.016 -0.732 L14.1 0 L15.06 0 C14.988 -0.396 14.964 -0.888 14.964 -1.392 ZM13.944 -1.956 C13.944 -1.848 13.92 -1.728 13.884 -1.62 C13.716 -1.128 13.236 -0.648 12.48 -0.648 C11.94 -0.648 11.484 -0.972 11.484 -1.656 C11.484 -2.784 12.792 -2.988 13.944 -2.964 ZM15.984 -5.808 L17.952 -2.964 L15.888 0 L17.052 0 L17.892 -1.308 C18.108 -1.656 18.312 -1.956 18.504 -2.316 L18.528 -2.316 C18.732 -1.968 18.924 -1.644 19.152 -1.308 L20.004 0 L21.204 0 L19.164 -3 L21.144 -5.808 L20.004 -5.808 L19.188 -4.572 C18.996 -4.26 18.804 -3.96 18.612 -3.612 L18.576 -3.612 C18.384 -3.936 18.204 -4.236 17.988 -4.56 L17.16 -5.808 ZM23.28 0 L23.28 -5.808 L22.224 -5.808 L22.224 0 ZM22.752 -8.1 C22.368 -8.1 22.092 -7.812 22.092 -7.44 C22.092 -7.08 22.356 -6.792 22.728 -6.792 C23.148 -6.792 23.412 -7.08 23.4 -7.44 C23.4 -7.812 23.148 -8.1 22.752 -8.1 ZM25.032 0 L26.064 0 L26.064 -3.504 C26.064 -3.684 26.088 -3.864 26.148 -4.02 C26.316 -4.548 26.796 -5.076 27.456 -5.076 C28.26 -5.076 28.668 -4.404 28.668 -3.48 L28.668 0 L29.7 0 L29.7 -3.588 C29.7 -3.78 29.736 -3.972 29.784 -4.116 C29.964 -4.632 30.432 -5.076 31.032 -5.076 C31.884 -5.076 32.292 -4.404 32.292 -3.288 L32.292 0 L33.324 0 L33.324 -3.42 C33.324 -5.436 32.184 -5.94 31.416 -5.94 C30.864 -5.94 30.48 -5.796 30.132 -5.532 C29.892 -5.352 29.664 -5.1 29.484 -4.776 L29.46 -4.776 C29.208 -5.46 28.608 -5.94 27.816 -5.94 C26.856 -5.94 26.316 -5.424 25.992 -4.872 L25.956 -4.872 L25.908 -5.808 L24.984 -5.808 C25.02 -5.328 25.032 -4.836 25.032 -4.236 ZM39.9 -5.808 L38.844 -5.808 L38.844 -2.244 C38.844 -2.052 38.808 -1.86 38.748 -1.704 C38.556 -1.236 38.064 -0.744 37.356 -0.744 C36.396 -0.744 36.06 -1.488 36.06 -2.592 L36.06 -5.808 L35.004 -5.808 L35.004 -2.412 C35.004 -0.372 36.096 0.132 37.008 0.132 C38.04 0.132 38.652 -0.48 38.928 -0.948 L38.952 -0.948 L39.012 0 L39.948 0 C39.912 -0.456 39.9 -0.984 39.9 -1.584 ZM41.652 0 L42.684 0 L42.684 -3.504 C42.684 -3.684 42.708 -3.864 42.768 -4.02 C42.936 -4.548 43.416 -5.076 44.076 -5.076 C44.88 -5.076 45.288 -4.404 45.288 -3.48 L45.288 0 L46.32 0 L46.32 -3.588 C46.32 -3.78 46.356 -3.972 46.404 -4.116 C46.584 -4.632 47.052 -5.076 47.652 -5.076 C48.504 -5.076 48.912 -4.404 48.912 -3.288 L48.912 0 L49.944 0 L49.944 -3.42 C49.944 -5.436 48.804 -5.94 48.036 -5.94 C47.484 -5.94 47.1 -5.796 46.752 -5.532 C46.512 -5.352 46.284 -5.1 46.104 -4.776 L46.08 -4.776 C45.828 -5.46 45.228 -5.94 44.436 -5.94 C43.476 -5.94 42.936 -5.424 42.612 -4.872 L42.576 -4.872 L42.528 -5.808 L41.604 -5.808 C41.64 -5.328 41.652 -4.836 41.652 -4.236 ZM54.204 0 L55.248 0 L55.248 -3.096 C55.248 -3.276 55.272 -3.444 55.296 -3.588 C55.44 -4.38 55.968 -4.944 56.712 -4.944 C56.856 -4.944 56.964 -4.932 57.072 -4.908 L57.072 -5.904 C56.976 -5.928 56.892 -5.94 56.772 -5.94 C56.064 -5.94 55.428 -5.448 55.164 -4.668 L55.116 -4.668 L55.08 -5.808 L54.156 -5.808 C54.192 -5.268 54.204 -4.68 54.204 -3.996 ZM59.184 0 L59.184 -5.808 L58.128 -5.808 L58.128 0 ZM58.656 -8.1 C58.272 -8.1 57.996 -7.812 57.996 -7.44 C57.996 -7.08 58.26 -6.792 58.632 -6.792 C59.052 -6.792 59.316 -7.08 59.304 -7.44 C59.304 -7.812 59.052 -8.1 58.656 -8.1 ZM64.896 -1.008 C64.596 -0.876 64.2 -0.72 63.6 -0.72 C62.448 -0.72 61.584 -1.548 61.584 -2.892 C61.584 -4.104 62.304 -5.088 63.636 -5.088 C64.212 -5.088 64.608 -4.956 64.86 -4.812 L65.1 -5.628 C64.812 -5.772 64.26 -5.928 63.636 -5.928 C61.74 -5.928 60.516 -4.632 60.516 -2.844 C60.516 -1.068 61.656 0.132 63.408 0.132 C64.188 0.132 64.8 -0.072 65.076 -0.216 ZM66.312 0 L67.368 0 L67.368 -3.504 C67.368 -3.708 67.38 -3.864 67.44 -4.008 C67.632 -4.584 68.172 -5.064 68.856 -5.064 C69.852 -5.064 70.2 -4.272 70.2 -3.336 L70.2 0 L71.256 0 L71.256 -3.456 C71.256 -5.46 70.008 -5.94 69.228 -5.94 C68.832 -5.94 68.46 -5.82 68.148 -5.64 C67.824 -5.46 67.56 -5.196 67.392 -4.896 L67.368 -4.896 L67.368 -8.52 L66.312 -8.52 ZM72.972 0 L74.028 0 L74.028 -3.492 C74.028 -3.672 74.052 -3.852 74.1 -3.984 C74.28 -4.572 74.82 -5.064 75.516 -5.064 C76.512 -5.064 76.86 -4.284 76.86 -3.348 L76.86 0 L77.916 0 L77.916 -3.468 C77.916 -5.46 76.668 -5.94 75.864 -5.94 C74.904 -5.94 74.232 -5.4 73.944 -4.848 L73.92 -4.848 L73.86 -5.808 L72.924 -5.808 C72.96 -5.328 72.972 -4.836 72.972 -4.236 ZM84.3 -2.712 C84.312 -2.82 84.336 -2.988 84.336 -3.204 C84.336 -4.272 83.832 -5.94 81.936 -5.94 C80.244 -5.94 79.212 -4.56 79.212 -2.808 C79.212 -1.056 80.28 0.132 82.068 0.132 C82.992 0.132 83.628 -0.072 84 -0.24 L83.82 -0.996 C83.424 -0.828 82.968 -0.696 82.212 -0.696 C81.156 -0.696 80.244 -1.284 80.22 -2.712 ZM80.232 -3.468 C80.316 -4.2 80.784 -5.184 81.852 -5.184 C83.04 -5.184 83.328 -4.14 83.316 -3.468 ZM85.236 -0.276 C85.644 -0.036 86.232 0.132 86.868 0.132 C88.248 0.132 89.04 -0.6 89.04 -1.62 C89.04 -2.484 88.524 -2.988 87.516 -3.372 C86.76 -3.66 86.412 -3.876 86.412 -4.356 C86.412 -4.788 86.76 -5.148 87.384 -5.148 C87.924 -5.148 88.344 -4.956 88.572 -4.812 L88.836 -5.58 C88.512 -5.772 87.996 -5.94 87.408 -5.94 C86.16 -5.94 85.404 -5.172 85.404 -4.236 C85.404 -3.54 85.896 -2.964 86.94 -2.592 C87.72 -2.304 88.02 -2.028 88.02 -1.524 C88.02 -1.044 87.66 -0.66 86.892 -0.66 C86.364 -0.66 85.812 -0.876 85.5 -1.08 ZM89.988 -0.276 C90.396 -0.036 90.984 0.132 91.62 0.132 C93 0.132 93.792 -0.6 93.792 -1.62 C93.792 -2.484 93.276 -2.988 92.268 -3.372 C91.512 -3.66 91.164 -3.876 91.164 -4.356 C91.164 -4.788 91.512 -5.148 92.136 -5.148 C92.676 -5.148 93.096 -4.956 93.324 -4.812 L93.588 -5.58 C93.264 -5.772 92.748 -5.94 92.16 -5.94 C90.912 -5.94 90.156 -5.172 90.156 -4.236 C90.156 -3.54 90.648 -2.964 91.692 -2.592 C92.472 -2.304 92.772 -2.028 92.772 -1.524 C92.772 -1.044 92.412 -0.66 91.644 -0.66 C91.116 -0.66 90.564 -0.876 90.252 -1.08 ZM95.22 1.404 C95.556 0.84 96.084 -0.492 96.36 -1.512 L95.184 -1.392 C95.052 -0.516 94.728 0.768 94.476 1.476 ZM100.176 0 L101.232 0 L101.232 -8.52 L100.176 -8.52 ZM105.468 -5.94 C103.86 -5.94 102.588 -4.8 102.588 -2.856 C102.588 -1.02 103.8 0.132 105.372 0.132 C106.776 0.132 108.264 -0.804 108.264 -2.952 C108.264 -4.728 107.136 -5.94 105.468 -5.94 ZM105.444 -5.148 C106.692 -5.148 107.184 -3.9 107.184 -2.916 C107.184 -1.608 106.428 -0.66 105.42 -0.66 C104.388 -0.66 103.656 -1.62 103.656 -2.892 C103.656 -3.996 104.196 -5.148 105.444 -5.148 ZM114.552 -4.212 C114.552 -4.92 114.576 -5.388 114.6 -5.808 L113.676 -5.808 L113.628 -4.932 L113.604 -4.932 C113.352 -5.412 112.8 -5.94 111.792 -5.94 C110.46 -5.94 109.176 -4.824 109.176 -2.856 C109.176 -1.248 110.208 -0.024 111.648 -0.024 C112.548 -0.024 113.172 -0.456 113.496 -0.996 L113.52 -0.996 L113.52 -0.348 C113.52 1.116 112.728 1.68 111.648 1.68 C110.928 1.68 110.328 1.464 109.944 1.224 L109.68 2.028 C110.148 2.34 110.916 2.508 111.612 2.508 C112.344 2.508 113.16 2.34 113.724 1.812 C114.288 1.308 114.552 0.492 114.552 -0.84 ZM113.508 -2.472 C113.508 -2.292 113.484 -2.088 113.424 -1.908 C113.196 -1.236 112.608 -0.828 111.96 -0.828 C110.82 -0.828 110.244 -1.776 110.244 -2.916 C110.244 -4.26 110.964 -5.112 111.972 -5.112 C112.74 -5.112 113.256 -4.608 113.448 -3.996 C113.496 -3.852 113.508 -3.696 113.508 -3.516 Z"
         id="path93" />
    </g>
    <g
       transform="translate(199,213)"
       style="font-size:10px; fill:rgb(38,38,38); text-rendering:geometricPrecision; color-rendering:optimizeQuality; image-rendering:optimizeQuality; font-family:'Myriad Pro'; color-interpolation:linearRGB; stroke:rgb(38,38,38);"
       id="g95">
      <path
         style="stroke:none;"
         d="M2.36 0 L3.21 0 L3.21 -6.5 L2.46 -6.5 L1.04 -5.74 L1.21 -5.07 L2.34 -5.68 L2.36 -5.68 ZM7.75 -6.61 C6.43 -6.61 5.49 -5.41 5.49 -3.23 C5.51 -1.08 6.37 0.11 7.64 0.11 C9.08 0.11 9.9 -1.11 9.9 -3.32 C9.9 -5.39 9.12 -6.61 7.75 -6.61 ZM7.7 -5.93 C8.61 -5.93 9.02 -4.88 9.02 -3.28 C9.02 -1.62 8.59 -0.57 7.69 -0.57 C6.89 -0.57 6.37 -1.53 6.37 -3.22 C6.37 -4.99 6.93 -5.93 7.7 -5.93 Z"
         id="path97" />
    </g>
    <g
       transform="translate(210,207)"
       style="fill:rgb(38,38,38); text-rendering:geometricPrecision; color-rendering:optimizeQuality; image-rendering:optimizeQuality; font-family:'Myriad Pro'; color-interpolation:linearRGB; stroke:rgb(38,38,38);"
       id="g99">
      <path
         style="stroke:none;"
         d="M0.912 0 L1.956 0 L1.956 -3.504 L2.94 -3.504 C3.888 -3.468 4.32 -3.048 4.56 -1.932 C4.788 -0.924 4.968 -0.24 5.1 0 L6.18 0 C6.012 -0.312 5.82 -1.092 5.556 -2.22 C5.364 -3.06 4.992 -3.636 4.368 -3.852 L4.368 -3.888 C5.22 -4.176 5.892 -4.884 5.892 -5.952 C5.892 -6.576 5.664 -7.128 5.256 -7.488 C4.752 -7.944 4.032 -8.148 2.916 -8.148 C2.196 -8.148 1.44 -8.088 0.912 -7.98 ZM1.956 -7.248 C2.124 -7.296 2.484 -7.344 2.988 -7.344 C4.092 -7.332 4.848 -6.876 4.848 -5.832 C4.848 -4.908 4.14 -4.296 3.024 -4.296 L1.956 -4.296 Z"
         id="path101" />
    </g>
    <g
       style="fill:rgb(38,38,38); text-rendering:geometricPrecision; color-rendering:optimizeQuality; image-rendering:optimizeQuality; stroke-linejoin:round; color-interpolation:linearRGB; stroke:rgb(38,38,38); stroke-width:0.5;"
       id="g103">
      <line
         y2="20"
         style="fill:none;"
         x1="66"
         x2="66"
         y1="181"
         id="line105" />
      <line
         y2="20"
         style="fill:none;"
         x1="234"
         x2="234"
         y1="181"
         id="line107" />
      <line
         y2="181"
         style="fill:none;"
         x1="66"
         x2="67.68"
         y1="181"
         id="line109" />
      <line
         y2="154.1667"
         style="fill:none;"
         x1="66"
         x2="67.68"
         y1="154.1667"
         id="line111" />
      <line
         y2="127.3333"
         style="fill:none;"
         x1="66"
         x2="67.68"
         y1="127.3333"
         id="line113" />
      <line
         y2="100.5"
         style="fill:none;"
         x1="66"
         x2="67.68"
         y1="100.5"
         id="line115" />
      <line
         y2="73.6667"
         style="fill:none;"
         x1="66"
         x2="67.68"
         y1="73.6667"
         id="line117" />
      <line
         y2="46.8333"
         style="fill:none;"
         x1="66"
         x2="67.68"
         y1="46.8333"
         id="line119" />
      <line
         y2="20"
         style="fill:none;"
         x1="66"
         x2="67.68"
         y1="20"
         id="line121" />
      <line
         y2="181"
         style="fill:none;"
         x1="234"
         x2="232.32"
         y1="181"
         id="line123" />
      <line
         y2="154.1667"
         style="fill:none;"
         x1="234"
         x2="232.32"
         y1="154.1667"
         id="line125" />
      <line
         y2="127.3333"
         style="fill:none;"
         x1="234"
         x2="232.32"
         y1="127.3333"
         id="line127" />
      <line
         y2="100.5"
         style="fill:none;"
         x1="234"
         x2="232.32"
         y1="100.5"
         id="line129" />
      <line
         y2="73.6667"
         style="fill:none;"
         x1="234"
         x2="232.32"
         y1="73.6667"
         id="line131" />
      <line
         y2="46.8333"
         style="fill:none;"
         x1="234"
         x2="232.32"
         y1="46.8333"
         id="line133" />
      <line
         y2="20"
         style="fill:none;"
         x1="234"
         x2="232.32"
         y1="20"
         id="line135" />
    </g>
    <g
       transform="translate(61.6,181)"
       style="fill:rgb(38,38,38); text-rendering:geometricPrecision; color-rendering:optimizeQuality; image-rendering:optimizeQuality; font-family:'Myriad Pro'; color-interpolation:linearRGB; stroke:rgb(38,38,38);"
       id="g137">
      <path
         style="stroke:none;"
         d="M-3.856 -4.932 C-5.44 -4.932 -6.568 -3.492 -6.568 -0.876 C-6.544 1.704 -5.512 3.132 -3.988 3.132 C-2.26 3.132 -1.276 1.668 -1.276 -0.984 C-1.276 -3.468 -2.212 -4.932 -3.856 -4.932 ZM-3.916 -4.116 C-2.824 -4.116 -2.332 -2.856 -2.332 -0.936 C-2.332 1.056 -2.848 2.316 -3.928 2.316 C-4.888 2.316 -5.512 1.164 -5.512 -0.864 C-5.512 -2.988 -4.84 -4.116 -3.916 -4.116 Z"
         id="path139" />
    </g>
    <g
       transform="translate(61.6,154.1667)"
       style="fill:rgb(38,38,38); text-rendering:geometricPrecision; color-rendering:optimizeQuality; image-rendering:optimizeQuality; font-family:'Myriad Pro'; color-interpolation:linearRGB; stroke:rgb(38,38,38);"
       id="g141">
      <path
         style="stroke:none;"
         d="M-11.856 -4.932 C-13.44 -4.932 -14.568 -3.492 -14.568 -0.876 C-14.544 1.704 -13.512 3.132 -11.988 3.132 C-10.26 3.132 -9.276 1.668 -9.276 -0.984 C-9.276 -3.468 -10.212 -4.932 -11.856 -4.932 ZM-11.916 -4.116 C-10.824 -4.116 -10.332 -2.856 -10.332 -0.936 C-10.332 1.056 -10.848 2.316 -11.928 2.316 C-12.888 2.316 -13.512 1.164 -13.512 -0.864 C-13.512 -2.988 -12.84 -4.116 -11.916 -4.116 ZM-7.512 3.132 C-7.068 3.132 -6.792 2.808 -6.792 2.376 C-6.792 1.932 -7.08 1.62 -7.5 1.62 C-7.92 1.62 -8.22 1.932 -8.22 2.376 C-8.22 2.808 -7.932 3.132 -7.524 3.132 ZM-1.164 -4.8 L-4.896 -4.8 L-5.4 -1.056 C-5.112 -1.092 -4.764 -1.14 -4.32 -1.14 C-2.76 -1.14 -2.088 -0.42 -2.076 0.588 C-2.076 1.632 -2.928 2.28 -3.924 2.28 C-4.632 2.28 -5.268 2.04 -5.592 1.848 L-5.856 2.652 C-5.484 2.892 -4.764 3.132 -3.912 3.132 C-2.22 3.132 -1.008 1.992 -1.008 0.468 C-1.008 -0.516 -1.512 -1.188 -2.124 -1.536 C-2.604 -1.824 -3.204 -1.956 -3.804 -1.956 C-4.092 -1.956 -4.26 -1.932 -4.44 -1.908 L-4.14 -3.912 L-1.164 -3.912 Z"
         id="path143" />
    </g>
    <g
       transform="translate(61.6,127.3333)"
       style="fill:rgb(38,38,38); text-rendering:geometricPrecision; color-rendering:optimizeQuality; image-rendering:optimizeQuality; font-family:'Myriad Pro'; color-interpolation:linearRGB; stroke:rgb(38,38,38);"
       id="g145">
      <path
         style="stroke:none;"
         d="M-4.168 3 L-3.148 3 L-3.148 -4.8 L-4.048 -4.8 L-5.752 -3.888 L-5.548 -3.084 L-4.192 -3.816 L-4.168 -3.816 Z"
         id="path147" />
    </g>
    <g
       transform="translate(61.6,100.5)"
       style="fill:rgb(38,38,38); text-rendering:geometricPrecision; color-rendering:optimizeQuality; image-rendering:optimizeQuality; font-family:'Myriad Pro'; color-interpolation:linearRGB; stroke:rgb(38,38,38);"
       id="g149">
      <path
         style="stroke:none;"
         d="M-12.168 3 L-11.148 3 L-11.148 -4.8 L-12.048 -4.8 L-13.752 -3.888 L-13.548 -3.084 L-12.192 -3.816 L-12.168 -3.816 ZM-7.512 3.132 C-7.068 3.132 -6.792 2.808 -6.792 2.376 C-6.792 1.932 -7.08 1.62 -7.5 1.62 C-7.92 1.62 -8.22 1.932 -8.22 2.376 C-8.22 2.808 -7.932 3.132 -7.524 3.132 ZM-1.164 -4.8 L-4.896 -4.8 L-5.4 -1.056 C-5.112 -1.092 -4.764 -1.14 -4.32 -1.14 C-2.76 -1.14 -2.088 -0.42 -2.076 0.588 C-2.076 1.632 -2.928 2.28 -3.924 2.28 C-4.632 2.28 -5.268 2.04 -5.592 1.848 L-5.856 2.652 C-5.484 2.892 -4.764 3.132 -3.912 3.132 C-2.22 3.132 -1.008 1.992 -1.008 0.468 C-1.008 -0.516 -1.512 -1.188 -2.124 -1.536 C-2.604 -1.824 -3.204 -1.956 -3.804 -1.956 C-4.092 -1.956 -4.26 -1.932 -4.44 -1.908 L-4.14 -3.912 L-1.164 -3.912 Z"
         id="path151" />
    </g>
    <g
       transform="translate(61.6,73.6667)"
       style="fill:rgb(38,38,38); text-rendering:geometricPrecision; color-rendering:optimizeQuality; image-rendering:optimizeQuality; font-family:'Myriad Pro'; color-interpolation:linearRGB; stroke:rgb(38,38,38);"
       id="g153">
      <path
         style="stroke:none;"
         d="M-1.48 3 L-1.48 2.124 L-4.984 2.124 L-4.984 2.1 L-4.36 1.524 C-2.716 -0.06 -1.672 -1.224 -1.672 -2.664 C-1.672 -3.78 -2.38 -4.932 -4.06 -4.932 C-4.96 -4.932 -5.728 -4.596 -6.268 -4.14 L-5.932 -3.396 C-5.572 -3.696 -4.984 -4.056 -4.276 -4.056 C-3.112 -4.056 -2.728 -3.324 -2.728 -2.532 C-2.74 -1.356 -3.64 -0.348 -5.632 1.548 L-6.46 2.352 L-6.46 3 Z"
         id="path155" />
    </g>
    <g
       transform="translate(61.6,46.8333)"
       style="fill:rgb(38,38,38); text-rendering:geometricPrecision; color-rendering:optimizeQuality; image-rendering:optimizeQuality; font-family:'Myriad Pro'; color-interpolation:linearRGB; stroke:rgb(38,38,38);"
       id="g157">
      <path
         style="stroke:none;"
         d="M-9.48 3 L-9.48 2.124 L-12.984 2.124 L-12.984 2.1 L-12.36 1.524 C-10.716 -0.06 -9.672 -1.224 -9.672 -2.664 C-9.672 -3.78 -10.38 -4.932 -12.06 -4.932 C-12.96 -4.932 -13.728 -4.596 -14.268 -4.14 L-13.932 -3.396 C-13.572 -3.696 -12.984 -4.056 -12.276 -4.056 C-11.112 -4.056 -10.728 -3.324 -10.728 -2.532 C-10.74 -1.356 -11.64 -0.348 -13.632 1.548 L-14.46 2.352 L-14.46 3 ZM-7.512 3.132 C-7.068 3.132 -6.792 2.808 -6.792 2.376 C-6.792 1.932 -7.08 1.62 -7.5 1.62 C-7.92 1.62 -8.22 1.932 -8.22 2.376 C-8.22 2.808 -7.932 3.132 -7.524 3.132 ZM-1.164 -4.8 L-4.896 -4.8 L-5.4 -1.056 C-5.112 -1.092 -4.764 -1.14 -4.32 -1.14 C-2.76 -1.14 -2.088 -0.42 -2.076 0.588 C-2.076 1.632 -2.928 2.28 -3.924 2.28 C-4.632 2.28 -5.268 2.04 -5.592 1.848 L-5.856 2.652 C-5.484 2.892 -4.764 3.132 -3.912 3.132 C-2.22 3.132 -1.008 1.992 -1.008 0.468 C-1.008 -0.516 -1.512 -1.188 -2.124 -1.536 C-2.604 -1.824 -3.204 -1.956 -3.804 -1.956 C-4.092 -1.956 -4.26 -1.932 -4.44 -1.908 L-4.14 -3.912 L-1.164 -3.912 Z"
         id="path159" />
    </g>
    <g
       transform="translate(61.6,20)"
       style="fill:rgb(38,38,38); text-rendering:geometricPrecision; color-rendering:optimizeQuality; image-rendering:optimizeQuality; font-family:'Myriad Pro'; color-interpolation:linearRGB; stroke:rgb(38,38,38);"
       id="g161">
      <path
         style="stroke:none;"
         d="M-6.496 2.604 C-6.112 2.856 -5.344 3.132 -4.468 3.132 C-2.596 3.132 -1.624 2.04 -1.624 0.792 C-1.624 -0.3 -2.404 -1.02 -3.364 -1.212 L-3.364 -1.236 C-2.404 -1.584 -1.924 -2.268 -1.924 -3.072 C-1.924 -4.02 -2.62 -4.932 -4.156 -4.932 C-4.996 -4.932 -5.788 -4.632 -6.196 -4.332 L-5.92 -3.564 C-5.584 -3.804 -4.984 -4.08 -4.36 -4.08 C-3.388 -4.08 -2.992 -3.528 -2.992 -2.904 C-2.992 -1.98 -3.964 -1.584 -4.732 -1.584 L-5.32 -1.584 L-5.32 -0.792 L-4.732 -0.792 C-3.712 -0.792 -2.728 -0.324 -2.716 0.768 C-2.704 1.416 -3.124 2.28 -4.48 2.28 C-5.212 2.28 -5.908 1.98 -6.208 1.788 Z"
         id="path163" />
    </g>
    <g
       transform="translate(41,157) rotate(-90)"
       style="fill:rgb(38,38,38); text-rendering:geometricPrecision; color-rendering:optimizeQuality; image-rendering:optimizeQuality; font-family:'Myriad Pro'; color-interpolation:linearRGB; stroke:rgb(38,38,38);"
       id="g165">
      <path
         style="stroke:none;"
         d="M0.876 2.376 L1.92 2.376 L1.92 -0.78 L1.944 -0.78 C2.292 -0.204 2.964 0.132 3.732 0.132 C5.1 0.132 6.372 -0.9 6.372 -2.988 C6.372 -4.752 5.316 -5.94 3.912 -5.94 C2.964 -5.94 2.28 -5.52 1.848 -4.812 L1.824 -4.812 L1.776 -5.808 L0.828 -5.808 C0.852 -5.256 0.876 -4.656 0.876 -3.912 ZM1.92 -3.36 C1.92 -3.504 1.956 -3.66 1.992 -3.792 C2.196 -4.584 2.868 -5.1 3.588 -5.1 C4.704 -5.1 5.316 -4.104 5.316 -2.94 C5.316 -1.608 4.668 -0.696 3.552 -0.696 C2.796 -0.696 2.16 -1.2 1.968 -1.932 C1.944 -2.064 1.92 -2.208 1.92 -2.364 ZM10.164 -5.94 C8.556 -5.94 7.284 -4.8 7.284 -2.856 C7.284 -1.02 8.496 0.132 10.068 0.132 C11.472 0.132 12.96 -0.804 12.96 -2.952 C12.96 -4.728 11.832 -5.94 10.164 -5.94 ZM10.14 -5.148 C11.388 -5.148 11.88 -3.9 11.88 -2.916 C11.88 -1.608 11.124 -0.66 10.116 -0.66 C9.084 -0.66 8.352 -1.62 8.352 -2.892 C8.352 -3.996 8.892 -5.148 10.14 -5.148 ZM13.632 -5.808 L15.384 0 L16.344 0 L17.28 -2.76 C17.484 -3.384 17.664 -3.984 17.808 -4.68 L17.832 -4.68 C17.976 -3.996 18.144 -3.42 18.348 -2.772 L19.236 0 L20.196 0 L22.068 -5.808 L21.024 -5.808 L20.196 -2.892 C20.004 -2.208 19.848 -1.596 19.752 -1.008 L19.716 -1.008 C19.584 -1.596 19.416 -2.208 19.2 -2.904 L18.3 -5.808 L17.412 -5.808 L16.464 -2.856 C16.272 -2.22 16.08 -1.596 15.948 -1.008 L15.912 -1.008 C15.804 -1.608 15.648 -2.208 15.48 -2.856 L14.712 -5.808 ZM27.792 -2.712 C27.804 -2.82 27.828 -2.988 27.828 -3.204 C27.828 -4.272 27.324 -5.94 25.428 -5.94 C23.736 -5.94 22.704 -4.56 22.704 -2.808 C22.704 -1.056 23.772 0.132 25.56 0.132 C26.484 0.132 27.12 -0.072 27.492 -0.24 L27.312 -0.996 C26.916 -0.828 26.46 -0.696 25.704 -0.696 C24.648 -0.696 23.736 -1.284 23.712 -2.712 ZM23.724 -3.468 C23.808 -4.2 24.276 -5.184 25.344 -5.184 C26.532 -5.184 26.82 -4.14 26.808 -3.468 ZM29.136 0 L30.18 0 L30.18 -3.096 C30.18 -3.276 30.204 -3.444 30.228 -3.588 C30.372 -4.38 30.9 -4.944 31.644 -4.944 C31.788 -4.944 31.896 -4.932 32.004 -4.908 L32.004 -5.904 C31.908 -5.928 31.824 -5.94 31.704 -5.94 C30.996 -5.94 30.36 -5.448 30.096 -4.668 L30.048 -4.668 L30.012 -5.808 L29.088 -5.808 C29.124 -5.268 29.136 -4.68 29.136 -3.996 ZM33.06 0 L34.116 0 L34.116 -8.52 L33.06 -8.52 ZM39.972 -3.564 C39.972 -4.728 39.54 -5.94 37.764 -5.94 C37.032 -5.94 36.336 -5.736 35.856 -5.424 L36.096 -4.728 C36.504 -4.992 37.068 -5.16 37.608 -5.16 C38.796 -5.16 38.928 -4.296 38.928 -3.816 L38.928 -3.696 C36.684 -3.708 35.436 -2.94 35.436 -1.536 C35.436 -0.696 36.036 0.132 37.212 0.132 C38.04 0.132 38.664 -0.276 38.988 -0.732 L39.024 -0.732 L39.108 0 L40.068 0 C39.996 -0.396 39.972 -0.888 39.972 -1.392 ZM38.952 -1.956 C38.952 -1.848 38.928 -1.728 38.892 -1.62 C38.724 -1.128 38.244 -0.648 37.488 -0.648 C36.948 -0.648 36.492 -0.972 36.492 -1.656 C36.492 -2.784 37.8 -2.988 38.952 -2.964 ZM41.016 -5.808 L42.768 0 L43.728 0 L44.664 -2.76 C44.868 -3.384 45.048 -3.984 45.192 -4.68 L45.216 -4.68 C45.36 -3.996 45.528 -3.42 45.732 -2.772 L46.62 0 L47.58 0 L49.452 -5.808 L48.408 -5.808 L47.58 -2.892 C47.388 -2.208 47.232 -1.596 47.136 -1.008 L47.1 -1.008 C46.968 -1.596 46.8 -2.208 46.584 -2.904 L45.684 -5.808 L44.796 -5.808 L43.848 -2.856 C43.656 -2.22 43.464 -1.596 43.332 -1.008 L43.296 -1.008 C43.188 -1.608 43.032 -2.208 42.864 -2.856 L42.096 -5.808 ZM57.72 -2.712 C57.732 -2.82 57.756 -2.988 57.756 -3.204 C57.756 -4.272 57.252 -5.94 55.356 -5.94 C53.664 -5.94 52.632 -4.56 52.632 -2.808 C52.632 -1.056 53.7 0.132 55.488 0.132 C56.412 0.132 57.048 -0.072 57.42 -0.24 L57.24 -0.996 C56.844 -0.828 56.388 -0.696 55.632 -0.696 C54.576 -0.696 53.664 -1.284 53.64 -2.712 ZM53.652 -3.468 C53.736 -4.2 54.204 -5.184 55.272 -5.184 C56.46 -5.184 56.748 -4.14 56.736 -3.468 ZM58.38 -5.808 L60.348 -2.964 L58.284 0 L59.448 0 L60.288 -1.308 C60.504 -1.656 60.708 -1.956 60.9 -2.316 L60.924 -2.316 C61.128 -1.968 61.32 -1.644 61.548 -1.308 L62.4 0 L63.6 0 L61.56 -3 L63.54 -5.808 L62.4 -5.808 L61.584 -4.572 C61.392 -4.26 61.2 -3.96 61.008 -3.612 L60.972 -3.612 C60.78 -3.936 60.6 -4.236 60.384 -4.56 L59.556 -5.808 ZM64.62 2.376 L65.664 2.376 L65.664 -0.78 L65.688 -0.78 C66.036 -0.204 66.708 0.132 67.476 0.132 C68.844 0.132 70.116 -0.9 70.116 -2.988 C70.116 -4.752 69.06 -5.94 67.656 -5.94 C66.708 -5.94 66.024 -5.52 65.592 -4.812 L65.568 -4.812 L65.52 -5.808 L64.572 -5.808 C64.596 -5.256 64.62 -4.656 64.62 -3.912 ZM65.664 -3.36 C65.664 -3.504 65.7 -3.66 65.736 -3.792 C65.94 -4.584 66.612 -5.1 67.332 -5.1 C68.448 -5.1 69.06 -4.104 69.06 -2.94 C69.06 -1.608 68.412 -0.696 67.296 -0.696 C66.54 -0.696 65.904 -1.2 65.712 -1.932 C65.688 -2.064 65.664 -2.208 65.664 -2.364 ZM73.908 -5.94 C72.3 -5.94 71.028 -4.8 71.028 -2.856 C71.028 -1.02 72.24 0.132 73.812 0.132 C75.216 0.132 76.704 -0.804 76.704 -2.952 C76.704 -4.728 75.576 -5.94 73.908 -5.94 ZM73.884 -5.148 C75.132 -5.148 75.624 -3.9 75.624 -2.916 C75.624 -1.608 74.868 -0.66 73.86 -0.66 C72.828 -0.66 72.096 -1.62 72.096 -2.892 C72.096 -3.996 72.636 -5.148 73.884 -5.148 ZM78.036 0 L79.092 0 L79.092 -3.492 C79.092 -3.672 79.116 -3.852 79.164 -3.984 C79.344 -4.572 79.884 -5.064 80.58 -5.064 C81.576 -5.064 81.924 -4.284 81.924 -3.348 L81.924 0 L82.98 0 L82.98 -3.468 C82.98 -5.46 81.732 -5.94 80.928 -5.94 C79.968 -5.94 79.296 -5.4 79.008 -4.848 L78.984 -4.848 L78.924 -5.808 L77.988 -5.808 C78.024 -5.328 78.036 -4.836 78.036 -4.236 ZM89.364 -2.712 C89.376 -2.82 89.4 -2.988 89.4 -3.204 C89.4 -4.272 88.896 -5.94 87 -5.94 C85.308 -5.94 84.276 -4.56 84.276 -2.808 C84.276 -1.056 85.344 0.132 87.132 0.132 C88.056 0.132 88.692 -0.072 89.064 -0.24 L88.884 -0.996 C88.488 -0.828 88.032 -0.696 87.276 -0.696 C86.22 -0.696 85.308 -1.284 85.284 -2.712 ZM85.296 -3.468 C85.38 -4.2 85.848 -5.184 86.916 -5.184 C88.104 -5.184 88.392 -4.14 88.38 -3.468 ZM90.708 0 L91.764 0 L91.764 -3.492 C91.764 -3.672 91.788 -3.852 91.836 -3.984 C92.016 -4.572 92.556 -5.064 93.252 -5.064 C94.248 -5.064 94.596 -4.284 94.596 -3.348 L94.596 0 L95.652 0 L95.652 -3.468 C95.652 -5.46 94.404 -5.94 93.6 -5.94 C92.64 -5.94 91.968 -5.4 91.68 -4.848 L91.656 -4.848 L91.596 -5.808 L90.66 -5.808 C90.696 -5.328 90.708 -4.836 90.708 -4.236 ZM97.608 -6.876 L97.608 -5.808 L96.708 -5.808 L96.708 -5.004 L97.608 -5.004 L97.608 -1.836 C97.608 -1.152 97.716 -0.636 98.016 -0.324 C98.268 -0.036 98.664 0.132 99.156 0.132 C99.564 0.132 99.888 0.06 100.092 -0.024 L100.044 -0.816 C99.888 -0.768 99.72 -0.744 99.432 -0.744 C98.844 -0.744 98.64 -1.152 98.64 -1.872 L98.64 -5.004 L100.152 -5.004 L100.152 -5.808 L98.64 -5.808 L98.64 -7.2 ZM101.412 1.404 C101.748 0.84 102.276 -0.492 102.552 -1.512 L101.376 -1.392 C101.244 -0.516 100.92 0.768 100.668 1.476 Z"
         id="path167" />
    </g>
    <g
       transform="translate(41,51) rotate(-90)"
       style="fill:rgb(38,38,38); text-rendering:geometricPrecision; color-rendering:optimizeQuality; image-rendering:optimizeQuality; font-family:'mwb_cmmi10'; color-interpolation:linearRGB; stroke:rgb(38,38,38);"
       id="g169">
      <path
         style="stroke:none;"
         d="M2.4219 0.1406 Q1.8438 0.1406 1.4062 -0.1328 Q0.9688 -0.4062 0.7266 -0.8594 Q0.4844 -1.3125 0.4844 -1.9062 Q0.4844 -2.7188 0.9375 -3.5156 Q1.3906 -4.3125 2.1406 -4.8047 Q2.8906 -5.2969 3.7188 -5.2969 Q4.3281 -5.2969 4.7891 -4.9844 Q5.25 -4.6719 5.4922 -4.1406 Q5.7344 -3.6094 5.7344 -3 L5.75 -2.2031 Q6.1562 -2.7656 6.4453 -3.375 Q6.7344 -3.9844 6.875 -4.6406 Q6.9062 -4.7188 6.9688 -4.7188 L7.1094 -4.7188 Q7.2188 -4.7188 7.2188 -4.6094 Q7.2188 -4.5938 7.2188 -4.5781 Q7.0781 -4.0156 6.8672 -3.5078 Q6.6562 -3 6.3672 -2.5312 Q6.0781 -2.0625 5.75 -1.6719 Q5.75 -0.1875 6.0938 -0.1875 Q6.3125 -0.1875 6.4609 -0.3203 Q6.6094 -0.4531 6.7188 -0.6406 Q6.8281 -0.8281 6.8438 -0.8438 L7 -0.8438 Q7.0938 -0.8438 7.0938 -0.7188 Q7.0938 -0.4219 6.75 -0.1406 Q6.4062 0.1406 6.0781 0.1406 Q5.6406 0.1406 5.3516 -0.1406 Q5.0625 -0.4219 4.9531 -0.875 Q4.3906 -0.4062 3.7344 -0.1328 Q3.0781 0.1406 2.4219 0.1406 ZM2.4375 -0.1875 Q3.7188 -0.1875 4.9062 -1.2344 Q4.8906 -1.3125 4.8828 -1.4141 Q4.875 -1.5156 4.875 -1.5312 L4.875 -2.8125 Q4.875 -5 3.7031 -5 Q3 -5 2.4688 -4.3984 Q1.9375 -3.7969 1.6719 -2.9609 Q1.4062 -2.125 1.4062 -1.4375 Q1.4062 -0.9062 1.6719 -0.5469 Q1.9375 -0.1875 2.4375 -0.1875 Z"
         id="path171" />
    </g>
    <g
       transform="translate(97,14)"
       style="text-rendering:geometricPrecision; font-family:'Myriad Pro'; color-interpolation:linearRGB; color-rendering:optimizeQuality; image-rendering:optimizeQuality;"
       id="g173">
      <path
         style="stroke:none;"
         d="M1.116 -6.876 L1.116 -5.808 L0.216 -5.808 L0.216 -5.004 L1.116 -5.004 L1.116 -1.836 C1.116 -1.152 1.224 -0.636 1.524 -0.324 C1.776 -0.036 2.172 0.132 2.664 0.132 C3.072 0.132 3.396 0.06 3.6 -0.024 L3.552 -0.816 C3.396 -0.768 3.228 -0.744 2.94 -0.744 C2.352 -0.744 2.148 -1.152 2.148 -1.872 L2.148 -5.004 L3.66 -5.004 L3.66 -5.808 L2.148 -5.808 L2.148 -7.2 ZM7.308 -5.94 C5.7 -5.94 4.428 -4.8 4.428 -2.856 C4.428 -1.02 5.64 0.132 7.212 0.132 C8.616 0.132 10.104 -0.804 10.104 -2.952 C10.104 -4.728 8.976 -5.94 7.308 -5.94 ZM7.284 -5.148 C8.532 -5.148 9.024 -3.9 9.024 -2.916 C9.024 -1.608 8.268 -0.66 7.26 -0.66 C6.228 -0.66 5.496 -1.62 5.496 -2.892 C5.496 -3.996 6.036 -5.148 7.284 -5.148 ZM11.676 -6.876 L11.676 -5.808 L10.776 -5.808 L10.776 -5.004 L11.676 -5.004 L11.676 -1.836 C11.676 -1.152 11.784 -0.636 12.084 -0.324 C12.336 -0.036 12.732 0.132 13.224 0.132 C13.632 0.132 13.956 0.06 14.16 -0.024 L14.112 -0.816 C13.956 -0.768 13.788 -0.744 13.5 -0.744 C12.912 -0.744 12.708 -1.152 12.708 -1.872 L12.708 -5.004 L14.22 -5.004 L14.22 -5.808 L12.708 -5.808 L12.708 -7.2 ZM19.488 -3.564 C19.488 -4.728 19.056 -5.94 17.28 -5.94 C16.548 -5.94 15.852 -5.736 15.372 -5.424 L15.612 -4.728 C16.02 -4.992 16.584 -5.16 17.124 -5.16 C18.312 -5.16 18.444 -4.296 18.444 -3.816 L18.444 -3.696 C16.2 -3.708 14.952 -2.94 14.952 -1.536 C14.952 -0.696 15.552 0.132 16.728 0.132 C17.556 0.132 18.18 -0.276 18.504 -0.732 L18.54 -0.732 L18.624 0 L19.584 0 C19.512 -0.396 19.488 -0.888 19.488 -1.392 ZM18.468 -1.956 C18.468 -1.848 18.444 -1.728 18.408 -1.62 C18.24 -1.128 17.76 -0.648 17.004 -0.648 C16.464 -0.648 16.008 -0.972 16.008 -1.656 C16.008 -2.784 17.316 -2.988 18.468 -2.964 ZM21.192 0 L22.248 0 L22.248 -8.52 L21.192 -8.52 ZM26.604 -8.088 L26.604 0 L27.648 0 L27.648 -3.792 L31.56 -3.792 L31.56 0 L32.616 0 L32.616 -8.088 L31.56 -8.088 L31.56 -4.704 L27.648 -4.704 L27.648 -8.088 ZM34.428 -8.088 L34.428 0 L35.472 0 L35.472 -8.088 ZM40.224 0 L43.116 -8.088 L42 -8.088 L40.632 -4.092 C40.272 -3.036 39.936 -2.016 39.708 -1.08 L39.684 -1.08 C39.468 -2.028 39.168 -3.012 38.82 -4.104 L37.56 -8.088 L36.432 -8.088 L39.072 0 ZM46.536 -0.024 C47.064 0.036 47.688 0.072 48.432 0.072 C50.004 0.072 51.252 -0.336 52.008 -1.092 C52.764 -1.836 53.172 -2.916 53.172 -4.236 C53.172 -5.544 52.752 -6.48 52.032 -7.14 C51.324 -7.8 50.256 -8.148 48.756 -8.148 C47.928 -8.148 47.172 -8.076 46.536 -7.98 ZM47.58 -7.212 C47.856 -7.272 48.264 -7.32 48.804 -7.32 C51.012 -7.32 52.092 -6.108 52.08 -4.2 C52.08 -2.016 50.868 -0.768 48.636 -0.768 C48.228 -0.768 47.844 -0.78 47.58 -0.828 ZM55.512 0 L55.512 -3.456 C55.512 -4.8 55.488 -5.772 55.428 -6.792 L55.464 -6.804 C55.872 -5.928 56.412 -5.004 56.976 -4.104 L59.544 0 L60.6 0 L60.6 -8.088 L59.616 -8.088 L59.616 -4.704 C59.616 -3.444 59.64 -2.46 59.736 -1.38 L59.712 -1.368 C59.328 -2.196 58.86 -3.048 58.26 -3.996 L55.668 -8.088 L54.528 -8.088 L54.528 0 ZM66.6 -2.544 L67.464 0 L68.58 0 L65.82 -8.088 L64.56 -8.088 L61.812 0 L62.892 0 L63.732 -2.544 ZM63.948 -3.36 L64.74 -5.7 C64.896 -6.192 65.028 -6.684 65.148 -7.164 L65.172 -7.164 C65.292 -6.696 65.412 -6.216 65.592 -5.688 L66.384 -3.36 ZM69.804 1.404 C70.14 0.84 70.668 -0.492 70.944 -1.512 L69.768 -1.392 C69.636 -0.516 69.312 0.768 69.06 1.476 ZM74.796 0 L79.296 0 L79.296 -0.876 L75.84 -0.876 L75.84 -8.088 L74.796 -8.088 ZM86.22 -4.044 L86.22 -4.764 L80.028 -4.764 L80.028 -4.044 ZM86.22 -1.692 L86.22 -2.412 L80.028 -2.412 L80.028 -1.692 ZM89.532 0 L90.552 0 L90.552 -7.8 L89.652 -7.8 L87.948 -6.888 L88.152 -6.084 L89.508 -6.816 L89.532 -6.816 ZM96 -7.932 C94.416 -7.932 93.288 -6.492 93.288 -3.876 C93.312 -1.296 94.344 0.132 95.868 0.132 C97.596 0.132 98.58 -1.332 98.58 -3.984 C98.58 -6.468 97.644 -7.932 96 -7.932 ZM95.94 -7.116 C97.032 -7.116 97.524 -5.856 97.524 -3.936 C97.524 -1.944 97.008 -0.684 95.928 -0.684 C94.968 -0.684 94.344 -1.836 94.344 -3.864 C94.344 -5.988 95.016 -7.116 95.94 -7.116 Z"
         id="path175" />
    </g>
    <g
       transform="translate(197,8)"
       style="font-size:10px; text-rendering:geometricPrecision; color-rendering:optimizeQuality; image-rendering:optimizeQuality; font-family:'Myriad Pro'; color-interpolation:linearRGB;"
       id="g177">
      <path
         style="stroke:none;"
         d="M0.96 0.1 C1.17 0.11 1.45 0.1 1.77 0.05 C2.47 -0.03 3.16 -0.33 3.66 -0.82 C4.3 -1.44 4.78 -2.44 4.78 -3.87 C4.78 -5.53 3.96 -6.61 2.63 -6.61 C1.3 -6.61 0.41 -5.53 0.41 -4.3 C0.41 -3.19 1.16 -2.31 2.33 -2.31 C2.98 -2.31 3.5 -2.57 3.86 -3.01 L3.89 -3.01 C3.77 -2.24 3.46 -1.67 3.03 -1.28 C2.66 -0.93 2.18 -0.72 1.67 -0.65 C1.37 -0.62 1.15 -0.6 0.96 -0.62 ZM2.56 -5.94 C3.48 -5.94 3.89 -5.09 3.89 -3.98 C3.89 -3.84 3.86 -3.74 3.81 -3.66 C3.58 -3.27 3.12 -2.98 2.53 -2.98 C1.77 -2.98 1.28 -3.55 1.28 -4.36 C1.28 -5.28 1.81 -5.94 2.55 -5.94 Z"
         id="path179" />
    </g>
    <g
       style="stroke-linecap:butt; fill:red; text-rendering:geometricPrecision; color-rendering:optimizeQuality; image-rendering:optimizeQuality; stroke-linejoin:bevel; stroke-dasharray:8,8; color-interpolation:linearRGB; stroke:red; stroke-width:2; stroke-miterlimit:1;"
       id="g181">
      <path
         d="M210 172.5667 L210 164.1333 L210 155.7 L205.0785 147.2667 L198.9173 138.8333 L190.0597 130.4 L176.3883 121.9667 L160.3451 113.5333 L145.3427 105.1 L132.3403 96.6667 L121.2288 88.2333 L111.7059 79.8 L103.485 71.3667 L96.3296 62.9333 L90.0518 54.5 L84.5027 46.0667 L79.5643 37.6333 L75.1418 29.2 L71.159 20.7667 L70.823 19.9808"
         style="fill:none; fill-rule:evenodd;"
         id="path183" />
    </g>
    <g
       style="fill:white; text-rendering:optimizeSpeed; color-rendering:optimizeSpeed; image-rendering:optimizeSpeed; shape-rendering:crispEdges; color-interpolation:sRGB; stroke:white;"
       id="g185">
      <path
         style="stroke:none;"
         d="M287 181 L456 181 L456 20 L287 20 Z"
         id="path187" />
    </g>
    <g
       style="fill:rgb(38,38,38); text-rendering:geometricPrecision; color-rendering:optimizeQuality; image-rendering:optimizeQuality; stroke-linejoin:round; color-interpolation:linearRGB; stroke:rgb(38,38,38); stroke-width:0.5;"
       id="g189">
      <line
         y2="181"
         style="fill:none;"
         x1="287"
         x2="456"
         y1="181"
         id="line191" />
      <line
         y2="20"
         style="fill:none;"
         x1="287"
         x2="456"
         y1="20"
         id="line193" />
      <line
         y2="179.31"
         style="fill:none;"
         x1="287"
         x2="287"
         y1="181"
         id="line195" />
      <line
         y2="179.31"
         style="fill:none;"
         x1="311.1429"
         x2="311.1429"
         y1="181"
         id="line197" />
      <line
         y2="179.31"
         style="fill:none;"
         x1="335.2857"
         x2="335.2857"
         y1="181"
         id="line199" />
      <line
         y2="179.31"
         style="fill:none;"
         x1="359.4286"
         x2="359.4286"
         y1="181"
         id="line201" />
      <line
         y2="179.31"
         style="fill:none;"
         x1="383.5714"
         x2="383.5714"
         y1="181"
         id="line203" />
      <line
         y2="179.31"
         style="fill:none;"
         x1="407.7143"
         x2="407.7143"
         y1="181"
         id="line205" />
      <line
         y2="179.31"
         style="fill:none;"
         x1="431.8571"
         x2="431.8571"
         y1="181"
         id="line207" />
      <line
         y2="179.31"
         style="fill:none;"
         x1="456"
         x2="456"
         y1="181"
         id="line209" />
      <line
         y2="21.69"
         style="fill:none;"
         x1="287"
         x2="287"
         y1="20"
         id="line211" />
      <line
         y2="21.69"
         style="fill:none;"
         x1="311.1429"
         x2="311.1429"
         y1="20"
         id="line213" />
      <line
         y2="21.69"
         style="fill:none;"
         x1="335.2857"
         x2="335.2857"
         y1="20"
         id="line215" />
      <line
         y2="21.69"
         style="fill:none;"
         x1="359.4286"
         x2="359.4286"
         y1="20"
         id="line217" />
      <line
         y2="21.69"
         style="fill:none;"
         x1="383.5714"
         x2="383.5714"
         y1="20"
         id="line219" />
      <line
         y2="21.69"
         style="fill:none;"
         x1="407.7143"
         x2="407.7143"
         y1="20"
         id="line221" />
      <line
         y2="21.69"
         style="fill:none;"
         x1="431.8571"
         x2="431.8571"
         y1="20"
         id="line223" />
      <line
         y2="21.69"
         style="fill:none;"
         x1="456"
         x2="456"
         y1="20"
         id="line225" />
    </g>
    <g
       transform="translate(287,185.4)"
       style="fill:rgb(38,38,38); text-rendering:geometricPrecision; color-rendering:optimizeQuality; image-rendering:optimizeQuality; font-family:'Myriad Pro'; color-interpolation:linearRGB; stroke:rgb(38,38,38);"
       id="g227">
      <path
         style="stroke:none;"
         d="M-2.996 8.604 C-2.612 8.856 -1.844 9.132 -0.968 9.132 C0.904 9.132 1.876 8.04 1.876 6.792 C1.876 5.7 1.096 4.98 0.136 4.788 L0.136 4.764 C1.096 4.416 1.576 3.732 1.576 2.928 C1.576 1.98 0.88 1.068 -0.656 1.068 C-1.496 1.068 -2.288 1.368 -2.696 1.668 L-2.42 2.436 C-2.084 2.196 -1.484 1.92 -0.86 1.92 C0.112 1.92 0.508 2.472 0.508 3.096 C0.508 4.02 -0.464 4.416 -1.232 4.416 L-1.82 4.416 L-1.82 5.208 L-1.232 5.208 C-0.212 5.208 0.772 5.676 0.784 6.768 C0.796 7.416 0.376 8.28 -0.98 8.28 C-1.712 8.28 -2.408 7.98 -2.708 7.788 Z"
         id="path229" />
    </g>
    <g
       transform="translate(311.1429,185.4)"
       style="fill:rgb(38,38,38); text-rendering:geometricPrecision; color-rendering:optimizeQuality; image-rendering:optimizeQuality; font-family:'Myriad Pro'; color-interpolation:linearRGB; stroke:rgb(38,38,38);"
       id="g231">
      <path
         style="stroke:none;"
         d="M1.3 9 L1.3 6.876 L2.392 6.876 L2.392 6.048 L1.3 6.048 L1.3 1.2 L0.16 1.2 L-3.32 6.18 L-3.32 6.876 L0.304 6.876 L0.304 9 ZM-2.252 6.048 L-2.252 6.024 L-0.344 3.372 C-0.128 3.012 0.064 2.676 0.304 2.22 L0.34 2.22 C0.316 2.628 0.304 3.036 0.304 3.444 L0.304 6.048 Z"
         id="path233" />
    </g>
    <g
       transform="translate(335.2857,185.4)"
       style="fill:rgb(38,38,38); text-rendering:geometricPrecision; color-rendering:optimizeQuality; image-rendering:optimizeQuality; font-family:'Myriad Pro'; color-interpolation:linearRGB; stroke:rgb(38,38,38);"
       id="g235">
      <path
         style="stroke:none;"
         d="M1.696 1.2 L-2.036 1.2 L-2.54 4.944 C-2.252 4.908 -1.904 4.86 -1.46 4.86 C0.1 4.86 0.772 5.58 0.784 6.588 C0.784 7.632 -0.068 8.28 -1.064 8.28 C-1.772 8.28 -2.408 8.04 -2.732 7.848 L-2.996 8.652 C-2.624 8.892 -1.904 9.132 -1.052 9.132 C0.64 9.132 1.852 7.992 1.852 6.468 C1.852 5.484 1.348 4.812 0.736 4.464 C0.256 4.176 -0.344 4.044 -0.944 4.044 C-1.232 4.044 -1.4 4.068 -1.58 4.092 L-1.28 2.088 L1.696 2.088 Z"
         id="path237" />
    </g>
    <g
       transform="translate(359.4286,185.4)"
       style="fill:rgb(38,38,38); text-rendering:geometricPrecision; color-rendering:optimizeQuality; image-rendering:optimizeQuality; font-family:'Myriad Pro'; color-interpolation:linearRGB; stroke:rgb(38,38,38);"
       id="g239">
      <path
         style="stroke:none;"
         d="M1.492 1.08 C1.3 1.08 1.036 1.092 0.724 1.14 C-0.26 1.26 -1.124 1.656 -1.772 2.292 C-2.54 3.06 -3.092 4.272 -3.092 5.808 C-3.092 7.836 -2 9.132 -0.332 9.132 C1.288 9.132 2.26 7.812 2.26 6.384 C2.26 4.86 1.288 3.864 -0.092 3.864 C-0.956 3.864 -1.604 4.272 -1.976 4.764 L-2.012 4.764 C-1.832 3.48 -0.956 2.268 0.7 1.992 C1 1.944 1.276 1.932 1.492 1.944 ZM-0.332 8.316 C-1.436 8.316 -2.024 7.368 -2.048 6.084 C-2.048 5.892 -2 5.736 -1.928 5.616 C-1.64 5.052 -1.052 4.656 -0.416 4.656 C0.556 4.656 1.192 5.328 1.192 6.444 C1.192 7.56 0.58 8.316 -0.32 8.316 Z"
         id="path241" />
    </g>
    <g
       transform="translate(383.5714,185.4)"
       style="fill:rgb(38,38,38); text-rendering:geometricPrecision; color-rendering:optimizeQuality; image-rendering:optimizeQuality; font-family:'Myriad Pro'; color-interpolation:linearRGB; stroke:rgb(38,38,38);"
       id="g243">
      <path
         style="stroke:none;"
         d="M-2.816 1.2 L-2.816 2.076 L1 2.076 L1 2.1 L-2.384 9 L-1.292 9 L2.104 1.896 L2.104 1.2 Z"
         id="path245" />
    </g>
    <g
       transform="translate(407.7143,185.4)"
       style="fill:rgb(38,38,38); text-rendering:geometricPrecision; color-rendering:optimizeQuality; image-rendering:optimizeQuality; font-family:'Myriad Pro'; color-interpolation:linearRGB; stroke:rgb(38,38,38);"
       id="g247">
      <path
         style="stroke:none;"
         d="M-1.508 4.932 C-2.468 5.34 -3.056 6.036 -3.056 7.02 C-3.056 8.16 -2.072 9.132 -0.44 9.132 C1.048 9.132 2.212 8.22 2.212 6.864 C2.212 5.916 1.612 5.232 0.64 4.848 L0.64 4.812 C1.6 4.356 1.924 3.648 1.924 2.988 C1.924 2.016 1.168 1.068 -0.344 1.068 C-1.712 1.068 -2.756 1.908 -2.756 3.144 C-2.756 3.816 -2.384 4.488 -1.52 4.896 ZM-0.416 8.364 C-1.412 8.364 -2.012 7.668 -1.976 6.876 C-1.976 6.132 -1.484 5.532 -0.572 5.268 C0.484 5.568 1.144 6.024 1.144 6.972 C1.144 7.764 0.532 8.364 -0.416 8.364 ZM-0.404 1.824 C0.544 1.824 0.916 2.472 0.916 3.096 C0.916 3.804 0.4 4.284 -0.272 4.512 C-1.172 4.272 -1.76 3.852 -1.76 3.072 C-1.76 2.4 -1.28 1.824 -0.404 1.824 Z"
         id="path249" />
    </g>
    <g
       transform="translate(431.8571,185.4)"
       style="fill:rgb(38,38,38); text-rendering:geometricPrecision; color-rendering:optimizeQuality; image-rendering:optimizeQuality; font-family:'Myriad Pro'; color-interpolation:linearRGB; stroke:rgb(38,38,38);"
       id="g251">
      <path
         style="stroke:none;"
         d="M-2.348 9.12 C-2.096 9.132 -1.76 9.12 -1.376 9.06 C-0.536 8.964 0.292 8.604 0.892 8.016 C1.66 7.272 2.236 6.072 2.236 4.356 C2.236 2.364 1.252 1.068 -0.344 1.068 C-1.94 1.068 -3.008 2.364 -3.008 3.84 C-3.008 5.172 -2.108 6.228 -0.704 6.228 C0.076 6.228 0.7 5.916 1.132 5.388 L1.168 5.388 C1.024 6.312 0.652 6.996 0.136 7.464 C-0.308 7.884 -0.884 8.136 -1.496 8.22 C-1.856 8.256 -2.12 8.28 -2.348 8.256 ZM-0.428 1.872 C0.676 1.872 1.168 2.892 1.168 4.224 C1.168 4.392 1.132 4.512 1.072 4.608 C0.796 5.076 0.244 5.424 -0.464 5.424 C-1.376 5.424 -1.964 4.74 -1.964 3.768 C-1.964 2.664 -1.328 1.872 -0.44 1.872 Z"
         id="path253" />
    </g>
    <g
       transform="translate(456,185.4)"
       style="fill:rgb(38,38,38); text-rendering:geometricPrecision; color-rendering:optimizeQuality; image-rendering:optimizeQuality; font-family:'Myriad Pro'; color-interpolation:linearRGB; stroke:rgb(38,38,38);"
       id="g255">
      <path
         style="stroke:none;"
         d="M-3.668 9 L-2.648 9 L-2.648 1.2 L-3.548 1.2 L-5.252 2.112 L-5.048 2.916 L-3.692 2.184 L-3.668 2.184 ZM2.8 1.068 C1.216 1.068 0.088 2.508 0.088 5.124 C0.112 7.704 1.144 9.132 2.668 9.132 C4.396 9.132 5.38 7.668 5.38 5.016 C5.38 2.532 4.444 1.068 2.8 1.068 ZM2.74 1.884 C3.832 1.884 4.324 3.144 4.324 5.064 C4.324 7.056 3.808 8.316 2.728 8.316 C1.768 8.316 1.144 7.164 1.144 5.136 C1.144 3.012 1.816 1.884 2.74 1.884 Z"
         id="path257" />
    </g>
    <g
       transform="translate(305,207)"
       style="fill:rgb(38,38,38); text-rendering:geometricPrecision; color-rendering:optimizeQuality; image-rendering:optimizeQuality; font-family:'Myriad Pro'; color-interpolation:linearRGB; stroke:rgb(38,38,38);"
       id="g259">
      <path
         style="stroke:none;"
         d="M0.876 0 L1.908 0 L1.908 -3.504 C1.908 -3.684 1.932 -3.864 1.992 -4.02 C2.16 -4.548 2.64 -5.076 3.3 -5.076 C4.104 -5.076 4.512 -4.404 4.512 -3.48 L4.512 0 L5.544 0 L5.544 -3.588 C5.544 -3.78 5.58 -3.972 5.628 -4.116 C5.808 -4.632 6.276 -5.076 6.876 -5.076 C7.728 -5.076 8.136 -4.404 8.136 -3.288 L8.136 0 L9.168 0 L9.168 -3.42 C9.168 -5.436 8.028 -5.94 7.26 -5.94 C6.708 -5.94 6.324 -5.796 5.976 -5.532 C5.736 -5.352 5.508 -5.1 5.328 -4.776 L5.304 -4.776 C5.052 -5.46 4.452 -5.94 3.66 -5.94 C2.7 -5.94 2.16 -5.424 1.836 -4.872 L1.8 -4.872 L1.752 -5.808 L0.828 -5.808 C0.864 -5.328 0.876 -4.836 0.876 -4.236 ZM14.964 -3.564 C14.964 -4.728 14.532 -5.94 12.756 -5.94 C12.024 -5.94 11.328 -5.736 10.848 -5.424 L11.088 -4.728 C11.496 -4.992 12.06 -5.16 12.6 -5.16 C13.788 -5.16 13.92 -4.296 13.92 -3.816 L13.92 -3.696 C11.676 -3.708 10.428 -2.94 10.428 -1.536 C10.428 -0.696 11.028 0.132 12.204 0.132 C13.032 0.132 13.656 -0.276 13.98 -0.732 L14.016 -0.732 L14.1 0 L15.06 0 C14.988 -0.396 14.964 -0.888 14.964 -1.392 ZM13.944 -1.956 C13.944 -1.848 13.92 -1.728 13.884 -1.62 C13.716 -1.128 13.236 -0.648 12.48 -0.648 C11.94 -0.648 11.484 -0.972 11.484 -1.656 C11.484 -2.784 12.792 -2.988 13.944 -2.964 ZM15.984 -5.808 L17.952 -2.964 L15.888 0 L17.052 0 L17.892 -1.308 C18.108 -1.656 18.312 -1.956 18.504 -2.316 L18.528 -2.316 C18.732 -1.968 18.924 -1.644 19.152 -1.308 L20.004 0 L21.204 0 L19.164 -3 L21.144 -5.808 L20.004 -5.808 L19.188 -4.572 C18.996 -4.26 18.804 -3.96 18.612 -3.612 L18.576 -3.612 C18.384 -3.936 18.204 -4.236 17.988 -4.56 L17.16 -5.808 ZM23.28 0 L23.28 -5.808 L22.224 -5.808 L22.224 0 ZM22.752 -8.1 C22.368 -8.1 22.092 -7.812 22.092 -7.44 C22.092 -7.08 22.356 -6.792 22.728 -6.792 C23.148 -6.792 23.412 -7.08 23.4 -7.44 C23.4 -7.812 23.148 -8.1 22.752 -8.1 ZM25.032 0 L26.064 0 L26.064 -3.504 C26.064 -3.684 26.088 -3.864 26.148 -4.02 C26.316 -4.548 26.796 -5.076 27.456 -5.076 C28.26 -5.076 28.668 -4.404 28.668 -3.48 L28.668 0 L29.7 0 L29.7 -3.588 C29.7 -3.78 29.736 -3.972 29.784 -4.116 C29.964 -4.632 30.432 -5.076 31.032 -5.076 C31.884 -5.076 32.292 -4.404 32.292 -3.288 L32.292 0 L33.324 0 L33.324 -3.42 C33.324 -5.436 32.184 -5.94 31.416 -5.94 C30.864 -5.94 30.48 -5.796 30.132 -5.532 C29.892 -5.352 29.664 -5.1 29.484 -4.776 L29.46 -4.776 C29.208 -5.46 28.608 -5.94 27.816 -5.94 C26.856 -5.94 26.316 -5.424 25.992 -4.872 L25.956 -4.872 L25.908 -5.808 L24.984 -5.808 C25.02 -5.328 25.032 -4.836 25.032 -4.236 ZM39.9 -5.808 L38.844 -5.808 L38.844 -2.244 C38.844 -2.052 38.808 -1.86 38.748 -1.704 C38.556 -1.236 38.064 -0.744 37.356 -0.744 C36.396 -0.744 36.06 -1.488 36.06 -2.592 L36.06 -5.808 L35.004 -5.808 L35.004 -2.412 C35.004 -0.372 36.096 0.132 37.008 0.132 C38.04 0.132 38.652 -0.48 38.928 -0.948 L38.952 -0.948 L39.012 0 L39.948 0 C39.912 -0.456 39.9 -0.984 39.9 -1.584 ZM41.652 0 L42.684 0 L42.684 -3.504 C42.684 -3.684 42.708 -3.864 42.768 -4.02 C42.936 -4.548 43.416 -5.076 44.076 -5.076 C44.88 -5.076 45.288 -4.404 45.288 -3.48 L45.288 0 L46.32 0 L46.32 -3.588 C46.32 -3.78 46.356 -3.972 46.404 -4.116 C46.584 -4.632 47.052 -5.076 47.652 -5.076 C48.504 -5.076 48.912 -4.404 48.912 -3.288 L48.912 0 L49.944 0 L49.944 -3.42 C49.944 -5.436 48.804 -5.94 48.036 -5.94 C47.484 -5.94 47.1 -5.796 46.752 -5.532 C46.512 -5.352 46.284 -5.1 46.104 -4.776 L46.08 -4.776 C45.828 -5.46 45.228 -5.94 44.436 -5.94 C43.476 -5.94 42.936 -5.424 42.612 -4.872 L42.576 -4.872 L42.528 -5.808 L41.604 -5.808 C41.64 -5.328 41.652 -4.836 41.652 -4.236 ZM54.204 0 L55.248 0 L55.248 -3.096 C55.248 -3.276 55.272 -3.444 55.296 -3.588 C55.44 -4.38 55.968 -4.944 56.712 -4.944 C56.856 -4.944 56.964 -4.932 57.072 -4.908 L57.072 -5.904 C56.976 -5.928 56.892 -5.94 56.772 -5.94 C56.064 -5.94 55.428 -5.448 55.164 -4.668 L55.116 -4.668 L55.08 -5.808 L54.156 -5.808 C54.192 -5.268 54.204 -4.68 54.204 -3.996 ZM59.184 0 L59.184 -5.808 L58.128 -5.808 L58.128 0 ZM58.656 -8.1 C58.272 -8.1 57.996 -7.812 57.996 -7.44 C57.996 -7.08 58.26 -6.792 58.632 -6.792 C59.052 -6.792 59.316 -7.08 59.304 -7.44 C59.304 -7.812 59.052 -8.1 58.656 -8.1 ZM64.896 -1.008 C64.596 -0.876 64.2 -0.72 63.6 -0.72 C62.448 -0.72 61.584 -1.548 61.584 -2.892 C61.584 -4.104 62.304 -5.088 63.636 -5.088 C64.212 -5.088 64.608 -4.956 64.86 -4.812 L65.1 -5.628 C64.812 -5.772 64.26 -5.928 63.636 -5.928 C61.74 -5.928 60.516 -4.632 60.516 -2.844 C60.516 -1.068 61.656 0.132 63.408 0.132 C64.188 0.132 64.8 -0.072 65.076 -0.216 ZM66.312 0 L67.368 0 L67.368 -3.504 C67.368 -3.708 67.38 -3.864 67.44 -4.008 C67.632 -4.584 68.172 -5.064 68.856 -5.064 C69.852 -5.064 70.2 -4.272 70.2 -3.336 L70.2 0 L71.256 0 L71.256 -3.456 C71.256 -5.46 70.008 -5.94 69.228 -5.94 C68.832 -5.94 68.46 -5.82 68.148 -5.64 C67.824 -5.46 67.56 -5.196 67.392 -4.896 L67.368 -4.896 L67.368 -8.52 L66.312 -8.52 ZM72.972 0 L74.028 0 L74.028 -3.492 C74.028 -3.672 74.052 -3.852 74.1 -3.984 C74.28 -4.572 74.82 -5.064 75.516 -5.064 C76.512 -5.064 76.86 -4.284 76.86 -3.348 L76.86 0 L77.916 0 L77.916 -3.468 C77.916 -5.46 76.668 -5.94 75.864 -5.94 C74.904 -5.94 74.232 -5.4 73.944 -4.848 L73.92 -4.848 L73.86 -5.808 L72.924 -5.808 C72.96 -5.328 72.972 -4.836 72.972 -4.236 ZM84.3 -2.712 C84.312 -2.82 84.336 -2.988 84.336 -3.204 C84.336 -4.272 83.832 -5.94 81.936 -5.94 C80.244 -5.94 79.212 -4.56 79.212 -2.808 C79.212 -1.056 80.28 0.132 82.068 0.132 C82.992 0.132 83.628 -0.072 84 -0.24 L83.82 -0.996 C83.424 -0.828 82.968 -0.696 82.212 -0.696 C81.156 -0.696 80.244 -1.284 80.22 -2.712 ZM80.232 -3.468 C80.316 -4.2 80.784 -5.184 81.852 -5.184 C83.04 -5.184 83.328 -4.14 83.316 -3.468 ZM85.236 -0.276 C85.644 -0.036 86.232 0.132 86.868 0.132 C88.248 0.132 89.04 -0.6 89.04 -1.62 C89.04 -2.484 88.524 -2.988 87.516 -3.372 C86.76 -3.66 86.412 -3.876 86.412 -4.356 C86.412 -4.788 86.76 -5.148 87.384 -5.148 C87.924 -5.148 88.344 -4.956 88.572 -4.812 L88.836 -5.58 C88.512 -5.772 87.996 -5.94 87.408 -5.94 C86.16 -5.94 85.404 -5.172 85.404 -4.236 C85.404 -3.54 85.896 -2.964 86.94 -2.592 C87.72 -2.304 88.02 -2.028 88.02 -1.524 C88.02 -1.044 87.66 -0.66 86.892 -0.66 C86.364 -0.66 85.812 -0.876 85.5 -1.08 ZM89.988 -0.276 C90.396 -0.036 90.984 0.132 91.62 0.132 C93 0.132 93.792 -0.6 93.792 -1.62 C93.792 -2.484 93.276 -2.988 92.268 -3.372 C91.512 -3.66 91.164 -3.876 91.164 -4.356 C91.164 -4.788 91.512 -5.148 92.136 -5.148 C92.676 -5.148 93.096 -4.956 93.324 -4.812 L93.588 -5.58 C93.264 -5.772 92.748 -5.94 92.16 -5.94 C90.912 -5.94 90.156 -5.172 90.156 -4.236 C90.156 -3.54 90.648 -2.964 91.692 -2.592 C92.472 -2.304 92.772 -2.028 92.772 -1.524 C92.772 -1.044 92.412 -0.66 91.644 -0.66 C91.116 -0.66 90.564 -0.876 90.252 -1.08 ZM95.22 1.404 C95.556 0.84 96.084 -0.492 96.36 -1.512 L95.184 -1.392 C95.052 -0.516 94.728 0.768 94.476 1.476 ZM100.176 0 L101.232 0 L101.232 -8.52 L100.176 -8.52 ZM105.468 -5.94 C103.86 -5.94 102.588 -4.8 102.588 -2.856 C102.588 -1.02 103.8 0.132 105.372 0.132 C106.776 0.132 108.264 -0.804 108.264 -2.952 C108.264 -4.728 107.136 -5.94 105.468 -5.94 ZM105.444 -5.148 C106.692 -5.148 107.184 -3.9 107.184 -2.916 C107.184 -1.608 106.428 -0.66 105.42 -0.66 C104.388 -0.66 103.656 -1.62 103.656 -2.892 C103.656 -3.996 104.196 -5.148 105.444 -5.148 ZM114.552 -4.212 C114.552 -4.92 114.576 -5.388 114.6 -5.808 L113.676 -5.808 L113.628 -4.932 L113.604 -4.932 C113.352 -5.412 112.8 -5.94 111.792 -5.94 C110.46 -5.94 109.176 -4.824 109.176 -2.856 C109.176 -1.248 110.208 -0.024 111.648 -0.024 C112.548 -0.024 113.172 -0.456 113.496 -0.996 L113.52 -0.996 L113.52 -0.348 C113.52 1.116 112.728 1.68 111.648 1.68 C110.928 1.68 110.328 1.464 109.944 1.224 L109.68 2.028 C110.148 2.34 110.916 2.508 111.612 2.508 C112.344 2.508 113.16 2.34 113.724 1.812 C114.288 1.308 114.552 0.492 114.552 -0.84 ZM113.508 -2.472 C113.508 -2.292 113.484 -2.088 113.424 -1.908 C113.196 -1.236 112.608 -0.828 111.96 -0.828 C110.82 -0.828 110.244 -1.776 110.244 -2.916 C110.244 -4.26 110.964 -5.112 111.972 -5.112 C112.74 -5.112 113.256 -4.608 113.448 -3.996 C113.496 -3.852 113.508 -3.696 113.508 -3.516 Z"
         id="path261" />
    </g>
    <g
       transform="translate(421,213)"
       style="font-size:10px; fill:rgb(38,38,38); text-rendering:geometricPrecision; color-rendering:optimizeQuality; image-rendering:optimizeQuality; font-family:'Myriad Pro'; color-interpolation:linearRGB; stroke:rgb(38,38,38);"
       id="g263">
      <path
         style="stroke:none;"
         d="M2.36 0 L3.21 0 L3.21 -6.5 L2.46 -6.5 L1.04 -5.74 L1.21 -5.07 L2.34 -5.68 L2.36 -5.68 ZM7.75 -6.61 C6.43 -6.61 5.49 -5.41 5.49 -3.23 C5.51 -1.08 6.37 0.11 7.64 0.11 C9.08 0.11 9.9 -1.11 9.9 -3.32 C9.9 -5.39 9.12 -6.61 7.75 -6.61 ZM7.7 -5.93 C8.61 -5.93 9.02 -4.88 9.02 -3.28 C9.02 -1.62 8.59 -0.57 7.69 -0.57 C6.89 -0.57 6.37 -1.53 6.37 -3.22 C6.37 -4.99 6.93 -5.93 7.7 -5.93 Z"
         id="path265" />
    </g>
    <g
       transform="translate(432,207)"
       style="fill:rgb(38,38,38); text-rendering:geometricPrecision; color-rendering:optimizeQuality; image-rendering:optimizeQuality; font-family:'Myriad Pro'; color-interpolation:linearRGB; stroke:rgb(38,38,38);"
       id="g267">
      <path
         style="stroke:none;"
         d="M0.912 0 L1.956 0 L1.956 -3.504 L2.94 -3.504 C3.888 -3.468 4.32 -3.048 4.56 -1.932 C4.788 -0.924 4.968 -0.24 5.1 0 L6.18 0 C6.012 -0.312 5.82 -1.092 5.556 -2.22 C5.364 -3.06 4.992 -3.636 4.368 -3.852 L4.368 -3.888 C5.22 -4.176 5.892 -4.884 5.892 -5.952 C5.892 -6.576 5.664 -7.128 5.256 -7.488 C4.752 -7.944 4.032 -8.148 2.916 -8.148 C2.196 -8.148 1.44 -8.088 0.912 -7.98 ZM1.956 -7.248 C2.124 -7.296 2.484 -7.344 2.988 -7.344 C4.092 -7.332 4.848 -6.876 4.848 -5.832 C4.848 -4.908 4.14 -4.296 3.024 -4.296 L1.956 -4.296 Z"
         id="path269" />
    </g>
    <g
       style="fill:rgb(38,38,38); text-rendering:geometricPrecision; color-rendering:optimizeQuality; image-rendering:optimizeQuality; stroke-linejoin:round; color-interpolation:linearRGB; stroke:rgb(38,38,38); stroke-width:0.5;"
       id="g271">
      <line
         y2="20"
         style="fill:none;"
         x1="287"
         x2="287"
         y1="181"
         id="line273" />
      <line
         y2="20"
         style="fill:none;"
         x1="456"
         x2="456"
         y1="181"
         id="line275" />
      <line
         y2="181"
         style="fill:none;"
         x1="287"
         x2="288.69"
         y1="181"
         id="line277" />
      <line
         y2="154.1667"
         style="fill:none;"
         x1="287"
         x2="288.69"
         y1="154.1667"
         id="line279" />
      <line
         y2="127.3333"
         style="fill:none;"
         x1="287"
         x2="288.69"
         y1="127.3333"
         id="line281" />
      <line
         y2="100.5"
         style="fill:none;"
         x1="287"
         x2="288.69"
         y1="100.5"
         id="line283" />
      <line
         y2="73.6667"
         style="fill:none;"
         x1="287"
         x2="288.69"
         y1="73.6667"
         id="line285" />
      <line
         y2="46.8333"
         style="fill:none;"
         x1="287"
         x2="288.69"
         y1="46.8333"
         id="line287" />
      <line
         y2="20"
         style="fill:none;"
         x1="287"
         x2="288.69"
         y1="20"
         id="line289" />
      <line
         y2="181"
         style="fill:none;"
         x1="456"
         x2="454.31"
         y1="181"
         id="line291" />
      <line
         y2="154.1667"
         style="fill:none;"
         x1="456"
         x2="454.31"
         y1="154.1667"
         id="line293" />
      <line
         y2="127.3333"
         style="fill:none;"
         x1="456"
         x2="454.31"
         y1="127.3333"
         id="line295" />
      <line
         y2="100.5"
         style="fill:none;"
         x1="456"
         x2="454.31"
         y1="100.5"
         id="line297" />
      <line
         y2="73.6667"
         style="fill:none;"
         x1="456"
         x2="454.31"
         y1="73.6667"
         id="line299" />
      <line
         y2="46.8333"
         style="fill:none;"
         x1="456"
         x2="454.31"
         y1="46.8333"
         id="line301" />
      <line
         y2="20"
         style="fill:none;"
         x1="456"
         x2="454.31"
         y1="20"
         id="line303" />
    </g>
    <g
       transform="translate(282.6,181)"
       style="fill:rgb(38,38,38); text-rendering:geometricPrecision; color-rendering:optimizeQuality; image-rendering:optimizeQuality; font-family:'Myriad Pro'; color-interpolation:linearRGB; stroke:rgb(38,38,38);"
       id="g305">
      <path
         style="stroke:none;"
         d="M-3.856 -4.932 C-5.44 -4.932 -6.568 -3.492 -6.568 -0.876 C-6.544 1.704 -5.512 3.132 -3.988 3.132 C-2.26 3.132 -1.276 1.668 -1.276 -0.984 C-1.276 -3.468 -2.212 -4.932 -3.856 -4.932 ZM-3.916 -4.116 C-2.824 -4.116 -2.332 -2.856 -2.332 -0.936 C-2.332 1.056 -2.848 2.316 -3.928 2.316 C-4.888 2.316 -5.512 1.164 -5.512 -0.864 C-5.512 -2.988 -4.84 -4.116 -3.916 -4.116 Z"
         id="path307" />
    </g>
    <g
       transform="translate(282.6,154.1667)"
       style="fill:rgb(38,38,38); text-rendering:geometricPrecision; color-rendering:optimizeQuality; image-rendering:optimizeQuality; font-family:'Myriad Pro'; color-interpolation:linearRGB; stroke:rgb(38,38,38);"
       id="g309">
      <path
         style="stroke:none;"
         d="M-11.856 -4.932 C-13.44 -4.932 -14.568 -3.492 -14.568 -0.876 C-14.544 1.704 -13.512 3.132 -11.988 3.132 C-10.26 3.132 -9.276 1.668 -9.276 -0.984 C-9.276 -3.468 -10.212 -4.932 -11.856 -4.932 ZM-11.916 -4.116 C-10.824 -4.116 -10.332 -2.856 -10.332 -0.936 C-10.332 1.056 -10.848 2.316 -11.928 2.316 C-12.888 2.316 -13.512 1.164 -13.512 -0.864 C-13.512 -2.988 -12.84 -4.116 -11.916 -4.116 ZM-7.512 3.132 C-7.068 3.132 -6.792 2.808 -6.792 2.376 C-6.792 1.932 -7.08 1.62 -7.5 1.62 C-7.92 1.62 -8.22 1.932 -8.22 2.376 C-8.22 2.808 -7.932 3.132 -7.524 3.132 ZM-1.164 -4.8 L-4.896 -4.8 L-5.4 -1.056 C-5.112 -1.092 -4.764 -1.14 -4.32 -1.14 C-2.76 -1.14 -2.088 -0.42 -2.076 0.588 C-2.076 1.632 -2.928 2.28 -3.924 2.28 C-4.632 2.28 -5.268 2.04 -5.592 1.848 L-5.856 2.652 C-5.484 2.892 -4.764 3.132 -3.912 3.132 C-2.22 3.132 -1.008 1.992 -1.008 0.468 C-1.008 -0.516 -1.512 -1.188 -2.124 -1.536 C-2.604 -1.824 -3.204 -1.956 -3.804 -1.956 C-4.092 -1.956 -4.26 -1.932 -4.44 -1.908 L-4.14 -3.912 L-1.164 -3.912 Z"
         id="path311" />
    </g>
    <g
       transform="translate(282.6,127.3333)"
       style="fill:rgb(38,38,38); text-rendering:geometricPrecision; color-rendering:optimizeQuality; image-rendering:optimizeQuality; font-family:'Myriad Pro'; color-interpolation:linearRGB; stroke:rgb(38,38,38);"
       id="g313">
      <path
         style="stroke:none;"
         d="M-4.168 3 L-3.148 3 L-3.148 -4.8 L-4.048 -4.8 L-5.752 -3.888 L-5.548 -3.084 L-4.192 -3.816 L-4.168 -3.816 Z"
         id="path315" />
    </g>
    <g
       transform="translate(282.6,100.5)"
       style="fill:rgb(38,38,38); text-rendering:geometricPrecision; color-rendering:optimizeQuality; image-rendering:optimizeQuality; font-family:'Myriad Pro'; color-interpolation:linearRGB; stroke:rgb(38,38,38);"
       id="g317">
      <path
         style="stroke:none;"
         d="M-12.168 3 L-11.148 3 L-11.148 -4.8 L-12.048 -4.8 L-13.752 -3.888 L-13.548 -3.084 L-12.192 -3.816 L-12.168 -3.816 ZM-7.512 3.132 C-7.068 3.132 -6.792 2.808 -6.792 2.376 C-6.792 1.932 -7.08 1.62 -7.5 1.62 C-7.92 1.62 -8.22 1.932 -8.22 2.376 C-8.22 2.808 -7.932 3.132 -7.524 3.132 ZM-1.164 -4.8 L-4.896 -4.8 L-5.4 -1.056 C-5.112 -1.092 -4.764 -1.14 -4.32 -1.14 C-2.76 -1.14 -2.088 -0.42 -2.076 0.588 C-2.076 1.632 -2.928 2.28 -3.924 2.28 C-4.632 2.28 -5.268 2.04 -5.592 1.848 L-5.856 2.652 C-5.484 2.892 -4.764 3.132 -3.912 3.132 C-2.22 3.132 -1.008 1.992 -1.008 0.468 C-1.008 -0.516 -1.512 -1.188 -2.124 -1.536 C-2.604 -1.824 -3.204 -1.956 -3.804 -1.956 C-4.092 -1.956 -4.26 -1.932 -4.44 -1.908 L-4.14 -3.912 L-1.164 -3.912 Z"
         id="path319" />
    </g>
    <g
       transform="translate(282.6,73.6667)"
       style="fill:rgb(38,38,38); text-rendering:geometricPrecision; color-rendering:optimizeQuality; image-rendering:optimizeQuality; font-family:'Myriad Pro'; color-interpolation:linearRGB; stroke:rgb(38,38,38);"
       id="g321">
      <path
         style="stroke:none;"
         d="M-1.48 3 L-1.48 2.124 L-4.984 2.124 L-4.984 2.1 L-4.36 1.524 C-2.716 -0.06 -1.672 -1.224 -1.672 -2.664 C-1.672 -3.78 -2.38 -4.932 -4.06 -4.932 C-4.96 -4.932 -5.728 -4.596 -6.268 -4.14 L-5.932 -3.396 C-5.572 -3.696 -4.984 -4.056 -4.276 -4.056 C-3.112 -4.056 -2.728 -3.324 -2.728 -2.532 C-2.74 -1.356 -3.64 -0.348 -5.632 1.548 L-6.46 2.352 L-6.46 3 Z"
         id="path323" />
    </g>
    <g
       transform="translate(282.6,46.8333)"
       style="fill:rgb(38,38,38); text-rendering:geometricPrecision; color-rendering:optimizeQuality; image-rendering:optimizeQuality; font-family:'Myriad Pro'; color-interpolation:linearRGB; stroke:rgb(38,38,38);"
       id="g325">
      <path
         style="stroke:none;"
         d="M-9.48 3 L-9.48 2.124 L-12.984 2.124 L-12.984 2.1 L-12.36 1.524 C-10.716 -0.06 -9.672 -1.224 -9.672 -2.664 C-9.672 -3.78 -10.38 -4.932 -12.06 -4.932 C-12.96 -4.932 -13.728 -4.596 -14.268 -4.14 L-13.932 -3.396 C-13.572 -3.696 -12.984 -4.056 -12.276 -4.056 C-11.112 -4.056 -10.728 -3.324 -10.728 -2.532 C-10.74 -1.356 -11.64 -0.348 -13.632 1.548 L-14.46 2.352 L-14.46 3 ZM-7.512 3.132 C-7.068 3.132 -6.792 2.808 -6.792 2.376 C-6.792 1.932 -7.08 1.62 -7.5 1.62 C-7.92 1.62 -8.22 1.932 -8.22 2.376 C-8.22 2.808 -7.932 3.132 -7.524 3.132 ZM-1.164 -4.8 L-4.896 -4.8 L-5.4 -1.056 C-5.112 -1.092 -4.764 -1.14 -4.32 -1.14 C-2.76 -1.14 -2.088 -0.42 -2.076 0.588 C-2.076 1.632 -2.928 2.28 -3.924 2.28 C-4.632 2.28 -5.268 2.04 -5.592 1.848 L-5.856 2.652 C-5.484 2.892 -4.764 3.132 -3.912 3.132 C-2.22 3.132 -1.008 1.992 -1.008 0.468 C-1.008 -0.516 -1.512 -1.188 -2.124 -1.536 C-2.604 -1.824 -3.204 -1.956 -3.804 -1.956 C-4.092 -1.956 -4.26 -1.932 -4.44 -1.908 L-4.14 -3.912 L-1.164 -3.912 Z"
         id="path327" />
    </g>
    <g
       transform="translate(282.6,20)"
       style="fill:rgb(38,38,38); text-rendering:geometricPrecision; color-rendering:optimizeQuality; image-rendering:optimizeQuality; font-family:'Myriad Pro'; color-interpolation:linearRGB; stroke:rgb(38,38,38);"
       id="g329">
      <path
         style="stroke:none;"
         d="M-6.496 2.604 C-6.112 2.856 -5.344 3.132 -4.468 3.132 C-2.596 3.132 -1.624 2.04 -1.624 0.792 C-1.624 -0.3 -2.404 -1.02 -3.364 -1.212 L-3.364 -1.236 C-2.404 -1.584 -1.924 -2.268 -1.924 -3.072 C-1.924 -4.02 -2.62 -4.932 -4.156 -4.932 C-4.996 -4.932 -5.788 -4.632 -6.196 -4.332 L-5.92 -3.564 C-5.584 -3.804 -4.984 -4.08 -4.36 -4.08 C-3.388 -4.08 -2.992 -3.528 -2.992 -2.904 C-2.992 -1.98 -3.964 -1.584 -4.732 -1.584 L-5.32 -1.584 L-5.32 -0.792 L-4.732 -0.792 C-3.712 -0.792 -2.728 -0.324 -2.716 0.768 C-2.704 1.416 -3.124 2.28 -4.48 2.28 C-5.212 2.28 -5.908 1.98 -6.208 1.788 Z"
         id="path331" />
    </g>
    <g
       transform="translate(298,14)"
       style="text-rendering:geometricPrecision; font-family:'Myriad Pro'; color-interpolation:linearRGB; color-rendering:optimizeQuality; image-rendering:optimizeQuality;"
       id="g333">
      <path
         style="stroke:none;"
         d="M0.876 0 L1.92 0 L1.92 -3.096 C1.92 -3.276 1.944 -3.444 1.968 -3.588 C2.112 -4.38 2.64 -4.944 3.384 -4.944 C3.528 -4.944 3.636 -4.932 3.744 -4.908 L3.744 -5.904 C3.648 -5.928 3.564 -5.94 3.444 -5.94 C2.736 -5.94 2.1 -5.448 1.836 -4.668 L1.788 -4.668 L1.752 -5.808 L0.828 -5.808 C0.864 -5.268 0.876 -4.68 0.876 -3.996 ZM9.468 -2.712 C9.48 -2.82 9.504 -2.988 9.504 -3.204 C9.504 -4.272 9 -5.94 7.104 -5.94 C5.412 -5.94 4.38 -4.56 4.38 -2.808 C4.38 -1.056 5.448 0.132 7.236 0.132 C8.16 0.132 8.796 -0.072 9.168 -0.24 L8.988 -0.996 C8.592 -0.828 8.136 -0.696 7.38 -0.696 C6.324 -0.696 5.412 -1.284 5.388 -2.712 ZM5.4 -3.468 C5.484 -4.2 5.952 -5.184 7.02 -5.184 C8.208 -5.184 8.496 -4.14 8.484 -3.468 ZM10.812 2.376 L11.856 2.376 L11.856 -0.78 L11.88 -0.78 C12.228 -0.204 12.9 0.132 13.668 0.132 C15.036 0.132 16.308 -0.9 16.308 -2.988 C16.308 -4.752 15.252 -5.94 13.848 -5.94 C12.9 -5.94 12.216 -5.52 11.784 -4.812 L11.76 -4.812 L11.712 -5.808 L10.764 -5.808 C10.788 -5.256 10.812 -4.656 10.812 -3.912 ZM11.856 -3.36 C11.856 -3.504 11.892 -3.66 11.928 -3.792 C12.132 -4.584 12.804 -5.1 13.524 -5.1 C14.64 -5.1 15.252 -4.104 15.252 -2.94 C15.252 -1.608 14.604 -0.696 13.488 -0.696 C12.732 -0.696 12.096 -1.2 11.904 -1.932 C11.88 -2.064 11.856 -2.208 11.856 -2.364 ZM17.64 0 L18.696 0 L18.696 -8.52 L17.64 -8.52 ZM21.528 0 L21.528 -5.808 L20.472 -5.808 L20.472 0 ZM21 -8.1 C20.616 -8.1 20.34 -7.812 20.34 -7.44 C20.34 -7.08 20.604 -6.792 20.976 -6.792 C21.396 -6.792 21.66 -7.08 21.648 -7.44 C21.648 -7.812 21.396 -8.1 21 -8.1 ZM27.24 -1.008 C26.94 -0.876 26.544 -0.72 25.944 -0.72 C24.792 -0.72 23.928 -1.548 23.928 -2.892 C23.928 -4.104 24.648 -5.088 25.98 -5.088 C26.556 -5.088 26.952 -4.956 27.204 -4.812 L27.444 -5.628 C27.156 -5.772 26.604 -5.928 25.98 -5.928 C24.084 -5.928 22.86 -4.632 22.86 -2.844 C22.86 -1.068 24 0.132 25.752 0.132 C26.532 0.132 27.144 -0.072 27.42 -0.216 ZM32.736 -3.564 C32.736 -4.728 32.304 -5.94 30.528 -5.94 C29.796 -5.94 29.1 -5.736 28.62 -5.424 L28.86 -4.728 C29.268 -4.992 29.832 -5.16 30.372 -5.16 C31.56 -5.16 31.692 -4.296 31.692 -3.816 L31.692 -3.696 C29.448 -3.708 28.2 -2.94 28.2 -1.536 C28.2 -0.696 28.8 0.132 29.976 0.132 C30.804 0.132 31.428 -0.276 31.752 -0.732 L31.788 -0.732 L31.872 0 L32.832 0 C32.76 -0.396 32.736 -0.888 32.736 -1.392 ZM31.716 -1.956 C31.716 -1.848 31.692 -1.728 31.656 -1.62 C31.488 -1.128 31.008 -0.648 30.252 -0.648 C29.712 -0.648 29.256 -0.972 29.256 -1.656 C29.256 -2.784 30.564 -2.988 31.716 -2.964 ZM34.68 -6.876 L34.68 -5.808 L33.78 -5.808 L33.78 -5.004 L34.68 -5.004 L34.68 -1.836 C34.68 -1.152 34.788 -0.636 35.088 -0.324 C35.34 -0.036 35.736 0.132 36.228 0.132 C36.636 0.132 36.96 0.06 37.164 -0.024 L37.116 -0.816 C36.96 -0.768 36.792 -0.744 36.504 -0.744 C35.916 -0.744 35.712 -1.152 35.712 -1.872 L35.712 -5.004 L37.224 -5.004 L37.224 -5.808 L35.712 -5.808 L35.712 -7.2 ZM39.468 0 L39.468 -5.808 L38.412 -5.808 L38.412 0 ZM38.94 -8.1 C38.556 -8.1 38.28 -7.812 38.28 -7.44 C38.28 -7.08 38.544 -6.792 38.916 -6.792 C39.336 -6.792 39.6 -7.08 39.588 -7.44 C39.588 -7.812 39.336 -8.1 38.94 -8.1 ZM43.68 -5.94 C42.072 -5.94 40.8 -4.8 40.8 -2.856 C40.8 -1.02 42.012 0.132 43.584 0.132 C44.988 0.132 46.476 -0.804 46.476 -2.952 C46.476 -4.728 45.348 -5.94 43.68 -5.94 ZM43.656 -5.148 C44.904 -5.148 45.396 -3.9 45.396 -2.916 C45.396 -1.608 44.64 -0.66 43.632 -0.66 C42.6 -0.66 41.868 -1.62 41.868 -2.892 C41.868 -3.996 42.408 -5.148 43.656 -5.148 ZM47.808 0 L48.864 0 L48.864 -3.492 C48.864 -3.672 48.888 -3.852 48.936 -3.984 C49.116 -4.572 49.656 -5.064 50.352 -5.064 C51.348 -5.064 51.696 -4.284 51.696 -3.348 L51.696 0 L52.752 0 L52.752 -3.468 C52.752 -5.46 51.504 -5.94 50.7 -5.94 C49.74 -5.94 49.068 -5.4 48.78 -4.848 L48.756 -4.848 L48.696 -5.808 L47.76 -5.808 C47.796 -5.328 47.808 -4.836 47.808 -4.236 ZM60.972 -1.008 C60.672 -0.876 60.276 -0.72 59.676 -0.72 C58.524 -0.72 57.66 -1.548 57.66 -2.892 C57.66 -4.104 58.38 -5.088 59.712 -5.088 C60.288 -5.088 60.684 -4.956 60.936 -4.812 L61.176 -5.628 C60.888 -5.772 60.336 -5.928 59.712 -5.928 C57.816 -5.928 56.592 -4.632 56.592 -2.844 C56.592 -1.068 57.732 0.132 59.484 0.132 C60.264 0.132 60.876 -0.072 61.152 -0.216 ZM64.848 -5.94 C63.24 -5.94 61.968 -4.8 61.968 -2.856 C61.968 -1.02 63.18 0.132 64.752 0.132 C66.156 0.132 67.644 -0.804 67.644 -2.952 C67.644 -4.728 66.516 -5.94 64.848 -5.94 ZM64.824 -5.148 C66.072 -5.148 66.564 -3.9 66.564 -2.916 C66.564 -1.608 65.808 -0.66 64.8 -0.66 C63.768 -0.66 63.036 -1.62 63.036 -2.892 C63.036 -3.996 63.576 -5.148 64.824 -5.148 ZM68.976 0 L70.008 0 L70.008 -3.504 C70.008 -3.684 70.032 -3.864 70.092 -4.02 C70.26 -4.548 70.74 -5.076 71.4 -5.076 C72.204 -5.076 72.612 -4.404 72.612 -3.48 L72.612 0 L73.644 0 L73.644 -3.588 C73.644 -3.78 73.68 -3.972 73.728 -4.116 C73.908 -4.632 74.376 -5.076 74.976 -5.076 C75.828 -5.076 76.236 -4.404 76.236 -3.288 L76.236 0 L77.268 0 L77.268 -3.42 C77.268 -5.436 76.128 -5.94 75.36 -5.94 C74.808 -5.94 74.424 -5.796 74.076 -5.532 C73.836 -5.352 73.608 -5.1 73.428 -4.776 L73.404 -4.776 C73.152 -5.46 72.552 -5.94 71.76 -5.94 C70.8 -5.94 70.26 -5.424 69.936 -4.872 L69.9 -4.872 L69.852 -5.808 L68.928 -5.808 C68.964 -5.328 68.976 -4.836 68.976 -4.236 ZM78.984 2.376 L80.028 2.376 L80.028 -0.78 L80.052 -0.78 C80.4 -0.204 81.072 0.132 81.84 0.132 C83.208 0.132 84.48 -0.9 84.48 -2.988 C84.48 -4.752 83.424 -5.94 82.02 -5.94 C81.072 -5.94 80.388 -5.52 79.956 -4.812 L79.932 -4.812 L79.884 -5.808 L78.936 -5.808 C78.96 -5.256 78.984 -4.656 78.984 -3.912 ZM80.028 -3.36 C80.028 -3.504 80.064 -3.66 80.1 -3.792 C80.304 -4.584 80.976 -5.1 81.696 -5.1 C82.812 -5.1 83.424 -4.104 83.424 -2.94 C83.424 -1.608 82.776 -0.696 81.66 -0.696 C80.904 -0.696 80.268 -1.2 80.076 -1.932 C80.052 -2.064 80.028 -2.208 80.028 -2.364 ZM90.48 -2.712 C90.492 -2.82 90.516 -2.988 90.516 -3.204 C90.516 -4.272 90.012 -5.94 88.116 -5.94 C86.424 -5.94 85.392 -4.56 85.392 -2.808 C85.392 -1.056 86.46 0.132 88.248 0.132 C89.172 0.132 89.808 -0.072 90.18 -0.24 L90 -0.996 C89.604 -0.828 89.148 -0.696 88.392 -0.696 C87.336 -0.696 86.424 -1.284 86.4 -2.712 ZM86.412 -3.468 C86.496 -4.2 86.964 -5.184 88.032 -5.184 C89.22 -5.184 89.508 -4.14 89.496 -3.468 ZM92.064 -6.876 L92.064 -5.808 L91.164 -5.808 L91.164 -5.004 L92.064 -5.004 L92.064 -1.836 C92.064 -1.152 92.172 -0.636 92.472 -0.324 C92.724 -0.036 93.12 0.132 93.612 0.132 C94.02 0.132 94.344 0.06 94.548 -0.024 L94.5 -0.816 C94.344 -0.768 94.176 -0.744 93.888 -0.744 C93.3 -0.744 93.096 -1.152 93.096 -1.872 L93.096 -5.004 L94.608 -5.004 L94.608 -5.808 L93.096 -5.808 L93.096 -7.2 ZM100.464 -2.712 C100.476 -2.82 100.5 -2.988 100.5 -3.204 C100.5 -4.272 99.996 -5.94 98.1 -5.94 C96.408 -5.94 95.376 -4.56 95.376 -2.808 C95.376 -1.056 96.444 0.132 98.232 0.132 C99.156 0.132 99.792 -0.072 100.164 -0.24 L99.984 -0.996 C99.588 -0.828 99.132 -0.696 98.376 -0.696 C97.32 -0.696 96.408 -1.284 96.384 -2.712 ZM96.396 -3.468 C96.48 -4.2 96.948 -5.184 98.016 -5.184 C99.204 -5.184 99.492 -4.14 99.48 -3.468 ZM101.808 0 L102.864 0 L102.864 -3.492 C102.864 -3.672 102.888 -3.852 102.936 -3.984 C103.116 -4.572 103.656 -5.064 104.352 -5.064 C105.348 -5.064 105.696 -4.284 105.696 -3.348 L105.696 0 L106.752 0 L106.752 -3.468 C106.752 -5.46 105.504 -5.94 104.7 -5.94 C103.74 -5.94 103.068 -5.4 102.78 -4.848 L102.756 -4.848 L102.696 -5.808 L101.76 -5.808 C101.796 -5.328 101.808 -4.836 101.808 -4.236 ZM108.708 -6.876 L108.708 -5.808 L107.808 -5.808 L107.808 -5.004 L108.708 -5.004 L108.708 -1.836 C108.708 -1.152 108.816 -0.636 109.116 -0.324 C109.368 -0.036 109.764 0.132 110.256 0.132 C110.664 0.132 110.988 0.06 111.192 -0.024 L111.144 -0.816 C110.988 -0.768 110.82 -0.744 110.532 -0.744 C109.944 -0.744 109.74 -1.152 109.74 -1.872 L109.74 -5.004 L111.252 -5.004 L111.252 -5.808 L109.74 -5.808 L109.74 -7.2 ZM112.512 1.404 C112.848 0.84 113.376 -0.492 113.652 -1.512 L112.476 -1.392 C112.344 -0.516 112.02 0.768 111.768 1.476 ZM117.504 0 L122.004 0 L122.004 -0.876 L118.548 -0.876 L118.548 -8.088 L117.504 -8.088 ZM128.928 -4.044 L128.928 -4.764 L122.736 -4.764 L122.736 -4.044 ZM128.928 -1.692 L128.928 -2.412 L122.736 -2.412 L122.736 -1.692 ZM132.24 0 L133.26 0 L133.26 -7.8 L132.36 -7.8 L130.656 -6.888 L130.86 -6.084 L132.216 -6.816 L132.24 -6.816 ZM138.708 -7.932 C137.124 -7.932 135.996 -6.492 135.996 -3.876 C136.02 -1.296 137.052 0.132 138.576 0.132 C140.304 0.132 141.288 -1.332 141.288 -3.984 C141.288 -6.468 140.352 -7.932 138.708 -7.932 ZM138.648 -7.116 C139.74 -7.116 140.232 -5.856 140.232 -3.936 C140.232 -1.944 139.716 -0.684 138.636 -0.684 C137.676 -0.684 137.052 -1.836 137.052 -3.864 C137.052 -5.988 137.724 -7.116 138.648 -7.116 Z"
         id="path335" />
    </g>
    <g
       transform="translate(440,8)"
       style="font-size:10px; text-rendering:geometricPrecision; color-rendering:optimizeQuality; image-rendering:optimizeQuality; font-family:'Myriad Pro'; color-interpolation:linearRGB;"
       id="g337">
      <path
         style="stroke:none;"
         d="M0.57 -6.5 L0.57 -5.77 L3.75 -5.77 L3.75 -5.75 L0.93 0 L1.84 0 L4.67 -5.92 L4.67 -6.5 Z"
         id="path339" />
    </g>
    <g
       style="stroke-linecap:butt; text-rendering:geometricPrecision; color-rendering:optimizeQuality; image-rendering:optimizeQuality; stroke-linejoin:round; color-interpolation:linearRGB; stroke-width:2;"
       id="g341">
      <path
         d="M383.5714 172.5667 L383.5714 164.1333 L383.5714 155.7 L381.5731 147.2667 L376.4855 138.8333 L370.9303 130.4 L363.6865 121.9667 L354.3164 113.5333 L343.874 105.1 L333.7451 96.6667 L324.5849 88.2333 L316.5035 79.8 L309.4129 71.3667 L303.1794 62.9333 L297.6751 54.5 L292.7895 46.0667 L288.4289 37.6333 L286.9799 34.5215"
         style="fill:none; fill-rule:evenodd;"
         id="path343" />
    </g>
    <g
       style="stroke-linecap:butt; fill:red; text-rendering:geometricPrecision; color-rendering:optimizeQuality; image-rendering:optimizeQuality; stroke-linejoin:bevel; stroke-dasharray:8,8; color-interpolation:linearRGB; stroke:red; stroke-width:2; stroke-miterlimit:1;"
       id="g345">
      <path
         d="M383.5714 172.5667 L383.5714 164.1333 L383.5714 155.7 L381.5764 147.2667 L376.5027 138.8333 L371.0095 130.4 L363.9655 121.9667 L354.9881 113.5333 L345.0159 105.1 L335.3049 96.6667 L326.4799 88.2333 L318.6631 79.8 L311.7815 71.3667 L305.7144 62.9333 L300.3428 54.5 L295.5621 46.0667 L291.2845 37.6333 L287.4372 29.2 L286.9799 28.0908"
         style="fill:none; fill-rule:evenodd;"
         id="path347" />
    </g>
    <g
       style="fill:white; text-rendering:optimizeSpeed; color-rendering:optimizeSpeed; image-rendering:optimizeSpeed; shape-rendering:crispEdges; color-interpolation:sRGB; stroke:white;"
       id="g349">
      <path
         style="stroke:none;"
         d="M328 58 L328 30 L446 30 L446 58 Z"
         id="path351" />
    </g>
    <g
       transform="translate(365,41)"
       style="text-rendering:geometricPrecision; font-family:'Myriad Pro'; color-interpolation:linearRGB; color-rendering:optimizeQuality; image-rendering:optimizeQuality;"
       id="g353">
      <path
         style="stroke:none;"
         d="M1.116 -6.876 L1.116 -5.808 L0.216 -5.808 L0.216 -5.004 L1.116 -5.004 L1.116 -1.836 C1.116 -1.152 1.224 -0.636 1.524 -0.324 C1.776 -0.036 2.172 0.132 2.664 0.132 C3.072 0.132 3.396 0.06 3.6 -0.024 L3.552 -0.816 C3.396 -0.768 3.228 -0.744 2.94 -0.744 C2.352 -0.744 2.148 -1.152 2.148 -1.872 L2.148 -5.004 L3.66 -5.004 L3.66 -5.808 L2.148 -5.808 L2.148 -7.2 ZM4.848 0 L5.892 0 L5.892 -3.096 C5.892 -3.276 5.916 -3.444 5.94 -3.588 C6.084 -4.38 6.612 -4.944 7.356 -4.944 C7.5 -4.944 7.608 -4.932 7.716 -4.908 L7.716 -5.904 C7.62 -5.928 7.536 -5.94 7.416 -5.94 C6.708 -5.94 6.072 -5.448 5.808 -4.668 L5.76 -4.668 L5.724 -5.808 L4.8 -5.808 C4.836 -5.268 4.848 -4.68 4.848 -3.996 ZM13.632 -5.808 L12.576 -5.808 L12.576 -2.244 C12.576 -2.052 12.54 -1.86 12.48 -1.704 C12.288 -1.236 11.796 -0.744 11.088 -0.744 C10.128 -0.744 9.792 -1.488 9.792 -2.592 L9.792 -5.808 L8.736 -5.808 L8.736 -2.412 C8.736 -0.372 9.828 0.132 10.74 0.132 C11.772 0.132 12.384 -0.48 12.66 -0.948 L12.684 -0.948 L12.744 0 L13.68 0 C13.644 -0.456 13.632 -0.984 13.632 -1.584 ZM20.052 -2.712 C20.064 -2.82 20.088 -2.988 20.088 -3.204 C20.088 -4.272 19.584 -5.94 17.688 -5.94 C15.996 -5.94 14.964 -4.56 14.964 -2.808 C14.964 -1.056 16.032 0.132 17.82 0.132 C18.744 0.132 19.38 -0.072 19.752 -0.24 L19.572 -0.996 C19.176 -0.828 18.72 -0.696 17.964 -0.696 C16.908 -0.696 15.996 -1.284 15.972 -2.712 ZM15.984 -3.468 C16.068 -4.2 16.536 -5.184 17.604 -5.184 C18.792 -5.184 19.08 -4.14 19.068 -3.468 ZM23.532 -0.276 C23.94 -0.036 24.528 0.132 25.164 0.132 C26.544 0.132 27.336 -0.6 27.336 -1.62 C27.336 -2.484 26.82 -2.988 25.812 -3.372 C25.056 -3.66 24.708 -3.876 24.708 -4.356 C24.708 -4.788 25.056 -5.148 25.68 -5.148 C26.22 -5.148 26.64 -4.956 26.868 -4.812 L27.132 -5.58 C26.808 -5.772 26.292 -5.94 25.704 -5.94 C24.456 -5.94 23.7 -5.172 23.7 -4.236 C23.7 -3.54 24.192 -2.964 25.236 -2.592 C26.016 -2.304 26.316 -2.028 26.316 -1.524 C26.316 -1.044 25.956 -0.66 25.188 -0.66 C24.66 -0.66 24.108 -0.876 23.796 -1.08 ZM33.552 -5.808 L32.496 -5.808 L32.496 -2.244 C32.496 -2.052 32.46 -1.86 32.4 -1.704 C32.208 -1.236 31.716 -0.744 31.008 -0.744 C30.048 -0.744 29.712 -1.488 29.712 -2.592 L29.712 -5.808 L28.656 -5.808 L28.656 -2.412 C28.656 -0.372 29.748 0.132 30.66 0.132 C31.692 0.132 32.304 -0.48 32.58 -0.948 L32.604 -0.948 L32.664 0 L33.6 0 C33.564 -0.456 33.552 -0.984 33.552 -1.584 ZM35.304 0 L36.336 0 L36.336 -3.504 C36.336 -3.684 36.36 -3.864 36.42 -4.02 C36.588 -4.548 37.068 -5.076 37.728 -5.076 C38.532 -5.076 38.94 -4.404 38.94 -3.48 L38.94 0 L39.972 0 L39.972 -3.588 C39.972 -3.78 40.008 -3.972 40.056 -4.116 C40.236 -4.632 40.704 -5.076 41.304 -5.076 C42.156 -5.076 42.564 -4.404 42.564 -3.288 L42.564 0 L43.596 0 L43.596 -3.42 C43.596 -5.436 42.456 -5.94 41.688 -5.94 C41.136 -5.94 40.752 -5.796 40.404 -5.532 C40.164 -5.352 39.936 -5.1 39.756 -4.776 L39.732 -4.776 C39.48 -5.46 38.88 -5.94 38.088 -5.94 C37.128 -5.94 36.588 -5.424 36.264 -4.872 L36.228 -4.872 L36.18 -5.808 L35.256 -5.808 C35.292 -5.328 35.304 -4.836 35.304 -4.236 Z"
         id="path355" />
    </g>
    <g
       style="stroke-linecap:butt; text-rendering:geometricPrecision; color-rendering:optimizeQuality; image-rendering:optimizeQuality; stroke-linejoin:round; color-interpolation:linearRGB; stroke-width:2;"
       id="g361">
      <line
         y2="37.8596"
         style="fill:none;"
         x1="332"
         x2="362"
         y1="37.8596"
         id="line363" />
    </g>
    <g
       transform="translate(365,50.1404)"
       style="text-rendering:geometricPrecision; font-family:'Myriad Pro'; color-interpolation:linearRGB; color-rendering:optimizeQuality; image-rendering:optimizeQuality;"
       id="g365">
      <path
         style="stroke:none;"
         d="M1.932 3 L1.932 -2.808 L0.876 -2.808 L0.876 3 ZM1.404 -5.1 C1.02 -5.1 0.744 -4.812 0.744 -4.44 C0.744 -4.08 1.008 -3.792 1.38 -3.792 C1.8 -3.792 2.064 -4.08 2.052 -4.44 C2.052 -4.812 1.8 -5.1 1.404 -5.1 ZM3.684 3 L4.74 3 L4.74 -0.492 C4.74 -0.672 4.764 -0.852 4.812 -0.984 C4.992 -1.572 5.532 -2.064 6.228 -2.064 C7.224 -2.064 7.572 -1.284 7.572 -0.348 L7.572 3 L8.628 3 L8.628 -0.468 C8.628 -2.46 7.38 -2.94 6.576 -2.94 C5.616 -2.94 4.944 -2.4 4.656 -1.848 L4.632 -1.848 L4.572 -2.808 L3.636 -2.808 C3.672 -2.328 3.684 -1.836 3.684 -1.236 ZM10.584 -3.876 L10.584 -2.808 L9.684 -2.808 L9.684 -2.004 L10.584 -2.004 L10.584 1.164 C10.584 1.848 10.692 2.364 10.992 2.676 C11.244 2.964 11.64 3.132 12.132 3.132 C12.54 3.132 12.864 3.06 13.068 2.976 L13.02 2.184 C12.864 2.232 12.696 2.256 12.408 2.256 C11.82 2.256 11.616 1.848 11.616 1.128 L11.616 -2.004 L13.128 -2.004 L13.128 -2.808 L11.616 -2.808 L11.616 -4.2 ZM18.984 0.288 C18.996 0.18 19.02 0.012 19.02 -0.204 C19.02 -1.272 18.516 -2.94 16.62 -2.94 C14.928 -2.94 13.896 -1.56 13.896 0.192 C13.896 1.944 14.964 3.132 16.752 3.132 C17.676 3.132 18.312 2.928 18.684 2.76 L18.504 2.004 C18.108 2.172 17.652 2.304 16.896 2.304 C15.84 2.304 14.928 1.716 14.904 0.288 ZM14.916 -0.468 C15 -1.2 15.468 -2.184 16.536 -2.184 C17.724 -2.184 18.012 -1.14 18 -0.468 ZM25.284 -1.212 C25.284 -1.92 25.308 -2.388 25.332 -2.808 L24.408 -2.808 L24.36 -1.932 L24.336 -1.932 C24.084 -2.412 23.532 -2.94 22.524 -2.94 C21.192 -2.94 19.908 -1.824 19.908 0.144 C19.908 1.752 20.94 2.976 22.38 2.976 C23.28 2.976 23.904 2.544 24.228 2.004 L24.252 2.004 L24.252 2.652 C24.252 4.116 23.46 4.68 22.38 4.68 C21.66 4.68 21.06 4.464 20.676 4.224 L20.412 5.028 C20.88 5.34 21.648 5.508 22.344 5.508 C23.076 5.508 23.892 5.34 24.456 4.812 C25.02 4.308 25.284 3.492 25.284 2.16 ZM24.24 0.528 C24.24 0.708 24.216 0.912 24.156 1.092 C23.928 1.764 23.34 2.172 22.692 2.172 C21.552 2.172 20.976 1.224 20.976 0.084 C20.976 -1.26 21.696 -2.112 22.704 -2.112 C23.472 -2.112 23.988 -1.608 24.18 -0.996 C24.228 -0.852 24.24 -0.696 24.24 -0.516 ZM27.036 3 L28.08 3 L28.08 -0.096 C28.08 -0.276 28.104 -0.444 28.128 -0.588 C28.272 -1.38 28.8 -1.944 29.544 -1.944 C29.688 -1.944 29.796 -1.932 29.904 -1.908 L29.904 -2.904 C29.808 -2.928 29.724 -2.94 29.604 -2.94 C28.896 -2.94 28.26 -2.448 27.996 -1.668 L27.948 -1.668 L27.912 -2.808 L26.988 -2.808 C27.024 -2.268 27.036 -1.68 27.036 -0.996 ZM35.04 -0.564 C35.04 -1.728 34.608 -2.94 32.832 -2.94 C32.1 -2.94 31.404 -2.736 30.924 -2.424 L31.164 -1.728 C31.572 -1.992 32.136 -2.16 32.676 -2.16 C33.864 -2.16 33.996 -1.296 33.996 -0.816 L33.996 -0.696 C31.752 -0.708 30.504 0.06 30.504 1.464 C30.504 2.304 31.104 3.132 32.28 3.132 C33.108 3.132 33.732 2.724 34.056 2.268 L34.092 2.268 L34.176 3 L35.136 3 C35.064 2.604 35.04 2.112 35.04 1.608 ZM34.02 1.044 C34.02 1.152 33.996 1.272 33.96 1.38 C33.792 1.872 33.312 2.352 32.556 2.352 C32.016 2.352 31.56 2.028 31.56 1.344 C31.56 0.216 32.868 0.012 34.02 0.036 ZM36.744 3 L37.8 3 L37.8 -5.52 L36.744 -5.52 ZM46.2 -0.564 C46.2 -1.728 45.768 -2.94 43.992 -2.94 C43.26 -2.94 42.564 -2.736 42.084 -2.424 L42.324 -1.728 C42.732 -1.992 43.296 -2.16 43.836 -2.16 C45.024 -2.16 45.156 -1.296 45.156 -0.816 L45.156 -0.696 C42.912 -0.708 41.664 0.06 41.664 1.464 C41.664 2.304 42.264 3.132 43.44 3.132 C44.268 3.132 44.892 2.724 45.216 2.268 L45.252 2.268 L45.336 3 L46.296 3 C46.224 2.604 46.2 2.112 46.2 1.608 ZM45.18 1.044 C45.18 1.152 45.156 1.272 45.12 1.38 C44.952 1.872 44.472 2.352 43.716 2.352 C43.176 2.352 42.72 2.028 42.72 1.344 C42.72 0.216 44.028 0.012 45.18 0.036 ZM47.904 5.376 L48.948 5.376 L48.948 2.22 L48.972 2.22 C49.32 2.796 49.992 3.132 50.76 3.132 C52.128 3.132 53.4 2.1 53.4 0.012 C53.4 -1.752 52.344 -2.94 50.94 -2.94 C49.992 -2.94 49.308 -2.52 48.876 -1.812 L48.852 -1.812 L48.804 -2.808 L47.856 -2.808 C47.88 -2.256 47.904 -1.656 47.904 -0.912 ZM48.948 -0.36 C48.948 -0.504 48.984 -0.66 49.02 -0.792 C49.224 -1.584 49.896 -2.1 50.616 -2.1 C51.732 -2.1 52.344 -1.104 52.344 0.06 C52.344 1.392 51.696 2.304 50.58 2.304 C49.824 2.304 49.188 1.8 48.996 1.068 C48.972 0.936 48.948 0.792 48.948 0.636 ZM54.732 5.376 L55.776 5.376 L55.776 2.22 L55.8 2.22 C56.148 2.796 56.82 3.132 57.588 3.132 C58.956 3.132 60.228 2.1 60.228 0.012 C60.228 -1.752 59.172 -2.94 57.768 -2.94 C56.82 -2.94 56.136 -2.52 55.704 -1.812 L55.68 -1.812 L55.632 -2.808 L54.684 -2.808 C54.708 -2.256 54.732 -1.656 54.732 -0.912 ZM55.776 -0.36 C55.776 -0.504 55.812 -0.66 55.848 -0.792 C56.052 -1.584 56.724 -2.1 57.444 -2.1 C58.56 -2.1 59.172 -1.104 59.172 0.06 C59.172 1.392 58.524 2.304 57.408 2.304 C56.652 2.304 56.016 1.8 55.824 1.068 C55.8 0.936 55.776 0.792 55.776 0.636 ZM61.56 3 L62.604 3 L62.604 -0.096 C62.604 -0.276 62.628 -0.444 62.652 -0.588 C62.796 -1.38 63.324 -1.944 64.068 -1.944 C64.212 -1.944 64.32 -1.932 64.428 -1.908 L64.428 -2.904 C64.332 -2.928 64.248 -2.94 64.128 -2.94 C63.42 -2.94 62.784 -2.448 62.52 -1.668 L62.472 -1.668 L62.436 -2.808 L61.512 -2.808 C61.548 -2.268 61.56 -1.68 61.56 -0.996 ZM67.944 -2.94 C66.336 -2.94 65.064 -1.8 65.064 0.144 C65.064 1.98 66.276 3.132 67.848 3.132 C69.252 3.132 70.74 2.196 70.74 0.048 C70.74 -1.728 69.612 -2.94 67.944 -2.94 ZM67.92 -2.148 C69.168 -2.148 69.66 -0.9 69.66 0.084 C69.66 1.392 68.904 2.34 67.896 2.34 C66.864 2.34 66.132 1.38 66.132 0.108 C66.132 -0.996 66.672 -2.148 67.92 -2.148 ZM71.388 -2.808 L73.356 0.036 L71.292 3 L72.456 3 L73.296 1.692 C73.512 1.344 73.716 1.044 73.908 0.684 L73.932 0.684 C74.136 1.032 74.328 1.356 74.556 1.692 L75.408 3 L76.608 3 L74.568 0 L76.548 -2.808 L75.408 -2.808 L74.592 -1.572 C74.4 -1.26 74.208 -0.96 74.016 -0.612 L73.98 -0.612 C73.788 -0.936 73.608 -1.236 73.392 -1.56 L72.564 -2.808 Z"
         id="path367" />
    </g>
    <g
       style="stroke-linecap:butt; fill:red; text-rendering:geometricPrecision; color-rendering:optimizeQuality; image-rendering:optimizeQuality; stroke-linejoin:bevel; stroke-dasharray:8,8; color-interpolation:linearRGB; stroke:red; stroke-width:2; stroke-miterlimit:1;"
       id="g369">
      <line
         y2="50.1404"
         style="fill:none;"
         x1="332"
         x2="362"
         y1="50.1404"
         id="line371" />
    </g>
    <g
       style="stroke-linecap:butt; fill:rgb(38,38,38); text-rendering:geometricPrecision; color-rendering:optimizeQuality; image-rendering:optimizeQuality; color-interpolation:linearRGB; stroke:rgb(38,38,38); stroke-width:0.5;"
       id="g373">
      <path
         d="M328 58 L328 30 L446 30 L446 58 Z"
         style="fill:none; fill-rule:evenodd;"
         id="path375" />
    </g>
  </g>
  <flowRoot
     xml:space="preserve"
     id="flowRoot3707"
     style="font-style:normal;font-weight:normal;font-size:15px;line-height:125%;font-family:sans-serif;letter-spacing:0px;word-spacing:0px;fill:#000000;fill-opacity:1;stroke:none;stroke-width:1px;stroke-linecap:butt;stroke-linejoin:miter;stroke-opacity:1"
     transform="translate(-1.9711965,-1.9711965)"><flowRegion
       id="flowRegion3709"><rect
         id="rect3711"
         width="26.939686"
         height="27.59675"
         x="22.340227"
         y="5.0819788" /></flowRegion><flowPara
       id="flowPara3713"
       style="font-weight:bold">A</flowPara></flowRoot>  <flowRoot
     transform="translate(231.94412,-1.9711965)"
     style="font-style:normal;font-weight:normal;font-size:15px;line-height:125%;font-family:sans-serif;letter-spacing:0px;word-spacing:0px;fill:#000000;fill-opacity:1;stroke:none;stroke-width:1px;stroke-linecap:butt;stroke-linejoin:miter;stroke-opacity:1"
     id="flowRoot3715"
     xml:space="preserve"><flowRegion
       id="flowRegion3717"><rect
         y="5.0819788"
         x="22.340227"
         height="27.59675"
         width="26.939686"
         id="rect3719" /></flowRegion><flowPara
       style="font-weight:bold"
       id="flowPara3721">B</flowPara></flowRoot></svg>
