<?xml version="1.0" encoding="UTF-8" standalone="no"?>
<svg
   xmlns:dc="http://purl.org/dc/elements/1.1/"
   xmlns:cc="http://creativecommons.org/ns#"
   xmlns:rdf="http://www.w3.org/1999/02/22-rdf-syntax-ns#"
   xmlns:svg="http://www.w3.org/2000/svg"
   xmlns="http://www.w3.org/2000/svg"
   xmlns:sodipodi="http://sodipodi.sourceforge.net/DTD/sodipodi-0.dtd"
   xmlns:inkscape="http://www.inkscape.org/namespaces/inkscape"
   style="fill-opacity:1; color-rendering:auto; color-interpolation:auto; stroke:black; text-rendering:auto; stroke-linecap:square; stroke-miterlimit:10; stroke-opacity:1; shape-rendering:auto; fill:black; stroke-dasharray:none; font-weight:normal; stroke-width:1; font-family:'Dialog'; font-style:normal; stroke-linejoin:miter; font-size:12px; stroke-dashoffset:0; image-rendering:auto;"
   width="504"
   height="216"
   id="svg2"
   version="1.1"
   inkscape:version="0.91 r13725"
   sodipodi:docname="sampling.svg"
   inkscape:export-filename="/Users/danielreeves/Dropbox/_ongoing/reservoir ecology/Natcomm2/code/matlab/sampling.png"
   inkscape:export-xdpi="600"
   inkscape:export-ydpi="600">
  <metadata
     id="metadata767">
    <rdf:RDF>
      <cc:Work
         rdf:about="">
        <dc:format>image/svg+xml</dc:format>
        <dc:type
           rdf:resource="http://purl.org/dc/dcmitype/StillImage" />
      </cc:Work>
    </rdf:RDF>
  </metadata>
  <sodipodi:namedview
     pagecolor="#ffffff"
     bordercolor="#666666"
     borderopacity="1"
     objecttolerance="10"
     gridtolerance="10"
     guidetolerance="10"
     inkscape:pageopacity="0"
     inkscape:pageshadow="2"
     inkscape:window-width="1169"
     inkscape:window-height="707"
     id="namedview765"
     showgrid="false"
     inkscape:zoom="1.3289991"
     inkscape:cx="252.75245"
     inkscape:cy="108"
     inkscape:window-x="0"
     inkscape:window-y="0"
     inkscape:window-maximized="0"
     inkscape:current-layer="svg2" />
  <!--Generated by the Batik Graphics2D SVG Generator-->
  <defs
     id="genericDefs" />
  <g
     id="g5">
    <defs
       id="defs1">
      <clipPath
         clipPathUnits="userSpaceOnUse"
         id="clipPath1">
        <path
           d="M0 0 L504 0 L504 216 L0 216 L0 0 Z"
           id="path9" />
      </clipPath>
    </defs>
    <g
       style="fill:white; stroke:white;"
       id="g11">
      <rect
         x="0"
         y="0"
         width="504"
         style="clip-path:url(#clipPath1); stroke:none;"
         height="216"
         id="rect13"
         clip-path="url(#clipPath1)" />
    </g>
    <g
       style="fill:white; text-rendering:optimizeSpeed; color-rendering:optimizeSpeed; image-rendering:optimizeSpeed; shape-rendering:crispEdges; color-interpolation:sRGB; stroke:white;"
       id="g15">
      <rect
         x="0"
         width="504"
         height="216"
         y="0"
         style="stroke:none;"
         id="rect17" />
      <path
         style="stroke:none;"
         d="M66 182 L234 182 L234 16 L66 16 Z"
         id="path19" />
    </g>
    <g
       style="fill:rgb(38,38,38); text-rendering:geometricPrecision; color-rendering:optimizeQuality; image-rendering:optimizeQuality; stroke-linejoin:round; color-interpolation:linearRGB; stroke:rgb(38,38,38); stroke-width:0.5;"
       id="g21">
      <line
         y2="182"
         style="fill:none;"
         x1="66"
         x2="234"
         y1="182"
         id="line23" />
      <line
         y2="16"
         style="fill:none;"
         x1="66"
         x2="234"
         y1="16"
         id="line25" />
      <line
         y2="180.32"
         style="fill:none;"
         x1="71.2571"
         x2="71.2571"
         y1="182"
         id="line27" />
      <line
         y2="180.32"
         style="fill:none;"
         x1="125.5048"
         x2="125.5048"
         y1="182"
         id="line29" />
      <line
         y2="180.32"
         style="fill:none;"
         x1="179.7524"
         x2="179.7524"
         y1="182"
         id="line31" />
      <line
         y2="180.32"
         style="fill:none;"
         x1="234"
         x2="234"
         y1="182"
         id="line33" />
      <line
         y2="17.68"
         style="fill:none;"
         x1="71.2571"
         x2="71.2571"
         y1="16"
         id="line35" />
      <line
         y2="17.68"
         style="fill:none;"
         x1="125.5048"
         x2="125.5048"
         y1="16"
         id="line37" />
      <line
         y2="17.68"
         style="fill:none;"
         x1="179.7524"
         x2="179.7524"
         y1="16"
         id="line39" />
      <line
         y2="17.68"
         style="fill:none;"
         x1="234"
         x2="234"
         y1="16"
         id="line41" />
      <line
         y2="181.16"
         style="fill:none;"
         x1="66"
         x2="66"
         y1="182"
         id="line43" />
      <line
         y2="181.16"
         style="fill:none;"
         x1="68.7749"
         x2="68.7749"
         y1="182"
         id="line45" />
      <line
         y2="181.16"
         style="fill:none;"
         x1="71.2571"
         x2="71.2571"
         y1="182"
         id="line47" />
      <line
         y2="181.16"
         style="fill:none;"
         x1="87.5873"
         x2="87.5873"
         y1="182"
         id="line49" />
      <line
         y2="181.16"
         style="fill:none;"
         x1="97.1398"
         x2="97.1398"
         y1="182"
         id="line51" />
      <line
         y2="181.16"
         style="fill:none;"
         x1="103.9175"
         x2="103.9175"
         y1="182"
         id="line53" />
      <line
         y2="181.16"
         style="fill:none;"
         x1="109.1746"
         x2="109.1746"
         y1="182"
         id="line55" />
      <line
         y2="181.16"
         style="fill:none;"
         x1="113.47"
         x2="113.47"
         y1="182"
         id="line57" />
      <line
         y2="181.16"
         style="fill:none;"
         x1="117.1017"
         x2="117.1017"
         y1="182"
         id="line59" />
      <line
         y2="181.16"
         style="fill:none;"
         x1="120.2476"
         x2="120.2476"
         y1="182"
         id="line61" />
      <line
         y2="181.16"
         style="fill:none;"
         x1="123.0225"
         x2="123.0225"
         y1="182"
         id="line63" />
      <line
         y2="181.16"
         style="fill:none;"
         x1="125.5048"
         x2="125.5048"
         y1="182"
         id="line65" />
      <line
         y2="181.16"
         style="fill:none;"
         x1="141.8349"
         x2="141.8349"
         y1="182"
         id="line67" />
      <line
         y2="181.16"
         style="fill:none;"
         x1="151.3875"
         x2="151.3875"
         y1="182"
         id="line69" />
      <line
         y2="181.16"
         style="fill:none;"
         x1="158.1651"
         x2="158.1651"
         y1="182"
         id="line71" />
      <line
         y2="181.16"
         style="fill:none;"
         x1="163.4222"
         x2="163.4222"
         y1="182"
         id="line73" />
      <line
         y2="181.16"
         style="fill:none;"
         x1="167.7176"
         x2="167.7176"
         y1="182"
         id="line75" />
      <line
         y2="181.16"
         style="fill:none;"
         x1="171.3493"
         x2="171.3493"
         y1="182"
         id="line77" />
      <line
         y2="181.16"
         style="fill:none;"
         x1="174.4952"
         x2="174.4952"
         y1="182"
         id="line79" />
      <line
         y2="181.16"
         style="fill:none;"
         x1="177.2701"
         x2="177.2701"
         y1="182"
         id="line81" />
      <line
         y2="181.16"
         style="fill:none;"
         x1="179.7524"
         x2="179.7524"
         y1="182"
         id="line83" />
      <line
         y2="181.16"
         style="fill:none;"
         x1="196.0825"
         x2="196.0825"
         y1="182"
         id="line85" />
      <line
         y2="181.16"
         style="fill:none;"
         x1="205.6351"
         x2="205.6351"
         y1="182"
         id="line87" />
      <line
         y2="181.16"
         style="fill:none;"
         x1="212.4127"
         x2="212.4127"
         y1="182"
         id="line89" />
      <line
         y2="181.16"
         style="fill:none;"
         x1="217.6698"
         x2="217.6698"
         y1="182"
         id="line91" />
      <line
         y2="181.16"
         style="fill:none;"
         x1="221.9652"
         x2="221.9652"
         y1="182"
         id="line93" />
      <line
         y2="181.16"
         style="fill:none;"
         x1="225.5969"
         x2="225.5969"
         y1="182"
         id="line95" />
      <line
         y2="181.16"
         style="fill:none;"
         x1="228.7429"
         x2="228.7429"
         y1="182"
         id="line97" />
      <line
         y2="181.16"
         style="fill:none;"
         x1="231.5178"
         x2="231.5178"
         y1="182"
         id="line99" />
      <line
         y2="181.16"
         style="fill:none;"
         x1="234"
         x2="234"
         y1="182"
         id="line101" />
      <line
         y2="16.84"
         style="fill:none;"
         x1="66"
         x2="66"
         y1="16"
         id="line103" />
      <line
         y2="16.84"
         style="fill:none;"
         x1="68.7749"
         x2="68.7749"
         y1="16"
         id="line105" />
      <line
         y2="16.84"
         style="fill:none;"
         x1="71.2571"
         x2="71.2571"
         y1="16"
         id="line107" />
      <line
         y2="16.84"
         style="fill:none;"
         x1="87.5873"
         x2="87.5873"
         y1="16"
         id="line109" />
      <line
         y2="16.84"
         style="fill:none;"
         x1="97.1398"
         x2="97.1398"
         y1="16"
         id="line111" />
      <line
         y2="16.84"
         style="fill:none;"
         x1="103.9175"
         x2="103.9175"
         y1="16"
         id="line113" />
      <line
         y2="16.84"
         style="fill:none;"
         x1="109.1746"
         x2="109.1746"
         y1="16"
         id="line115" />
      <line
         y2="16.84"
         style="fill:none;"
         x1="113.47"
         x2="113.47"
         y1="16"
         id="line117" />
      <line
         y2="16.84"
         style="fill:none;"
         x1="117.1017"
         x2="117.1017"
         y1="16"
         id="line119" />
      <line
         y2="16.84"
         style="fill:none;"
         x1="120.2476"
         x2="120.2476"
         y1="16"
         id="line121" />
      <line
         y2="16.84"
         style="fill:none;"
         x1="123.0225"
         x2="123.0225"
         y1="16"
         id="line123" />
      <line
         y2="16.84"
         style="fill:none;"
         x1="125.5048"
         x2="125.5048"
         y1="16"
         id="line125" />
      <line
         y2="16.84"
         style="fill:none;"
         x1="141.8349"
         x2="141.8349"
         y1="16"
         id="line127" />
      <line
         y2="16.84"
         style="fill:none;"
         x1="151.3875"
         x2="151.3875"
         y1="16"
         id="line129" />
      <line
         y2="16.84"
         style="fill:none;"
         x1="158.1651"
         x2="158.1651"
         y1="16"
         id="line131" />
      <line
         y2="16.84"
         style="fill:none;"
         x1="163.4222"
         x2="163.4222"
         y1="16"
         id="line133" />
      <line
         y2="16.84"
         style="fill:none;"
         x1="167.7176"
         x2="167.7176"
         y1="16"
         id="line135" />
      <line
         y2="16.84"
         style="fill:none;"
         x1="171.3493"
         x2="171.3493"
         y1="16"
         id="line137" />
      <line
         y2="16.84"
         style="fill:none;"
         x1="174.4952"
         x2="174.4952"
         y1="16"
         id="line139" />
      <line
         y2="16.84"
         style="fill:none;"
         x1="177.2701"
         x2="177.2701"
         y1="16"
         id="line141" />
      <line
         y2="16.84"
         style="fill:none;"
         x1="179.7524"
         x2="179.7524"
         y1="16"
         id="line143" />
      <line
         y2="16.84"
         style="fill:none;"
         x1="196.0825"
         x2="196.0825"
         y1="16"
         id="line145" />
      <line
         y2="16.84"
         style="fill:none;"
         x1="205.6351"
         x2="205.6351"
         y1="16"
         id="line147" />
      <line
         y2="16.84"
         style="fill:none;"
         x1="212.4127"
         x2="212.4127"
         y1="16"
         id="line149" />
      <line
         y2="16.84"
         style="fill:none;"
         x1="217.6698"
         x2="217.6698"
         y1="16"
         id="line151" />
      <line
         y2="16.84"
         style="fill:none;"
         x1="221.9652"
         x2="221.9652"
         y1="16"
         id="line153" />
      <line
         y2="16.84"
         style="fill:none;"
         x1="225.5969"
         x2="225.5969"
         y1="16"
         id="line155" />
      <line
         y2="16.84"
         style="fill:none;"
         x1="228.7429"
         x2="228.7429"
         y1="16"
         id="line157" />
      <line
         y2="16.84"
         style="fill:none;"
         x1="231.5178"
         x2="231.5178"
         y1="16"
         id="line159" />
      <line
         y2="16.84"
         style="fill:none;"
         x1="234"
         x2="234"
         y1="16"
         id="line161" />
    </g>
    <g
       transform="translate(61,200)"
       style="fill:rgb(38,38,38); text-rendering:geometricPrecision; color-rendering:optimizeQuality; image-rendering:optimizeQuality; font-family:'Myriad Pro'; color-interpolation:linearRGB; stroke:rgb(38,38,38);"
       id="g163">
      <path
         style="stroke:none;"
         d="M2.832 0 L3.852 0 L3.852 -7.8 L2.952 -7.8 L1.248 -6.888 L1.452 -6.084 L2.808 -6.816 L2.832 -6.816 ZM9.3 -7.932 C7.716 -7.932 6.588 -6.492 6.588 -3.876 C6.612 -1.296 7.644 0.132 9.168 0.132 C10.896 0.132 11.88 -1.332 11.88 -3.984 C11.88 -6.468 10.944 -7.932 9.3 -7.932 ZM9.24 -7.116 C10.332 -7.116 10.824 -5.856 10.824 -3.936 C10.824 -1.944 10.308 -0.684 9.228 -0.684 C8.268 -0.684 7.644 -1.836 7.644 -3.864 C7.644 -5.988 8.316 -7.116 9.24 -7.116 Z"
         id="path165" />
    </g>
    <g
       transform="translate(74,194)"
       style="font-size:10px; fill:rgb(38,38,38); text-rendering:geometricPrecision; color-rendering:optimizeQuality; image-rendering:optimizeQuality; font-family:'Myriad Pro'; color-interpolation:linearRGB; stroke:rgb(38,38,38);"
       id="g167">
      <path
         style="stroke:none;"
         d="M2.62 -6.61 C1.3 -6.61 0.36 -5.41 0.36 -3.23 C0.38 -1.08 1.24 0.11 2.51 0.11 C3.95 0.11 4.77 -1.11 4.77 -3.32 C4.77 -5.39 3.99 -6.61 2.62 -6.61 ZM2.57 -5.93 C3.48 -5.93 3.89 -4.88 3.89 -3.28 C3.89 -1.62 3.46 -0.57 2.56 -0.57 C1.76 -0.57 1.24 -1.53 1.24 -3.22 C1.24 -4.99 1.8 -5.93 2.57 -5.93 Z"
         id="path169" />
    </g>
    <g
       transform="translate(116,200)"
       style="fill:rgb(38,38,38); text-rendering:geometricPrecision; color-rendering:optimizeQuality; image-rendering:optimizeQuality; font-family:'Myriad Pro'; color-interpolation:linearRGB; stroke:rgb(38,38,38);"
       id="g171">
      <path
         style="stroke:none;"
         d="M2.832 0 L3.852 0 L3.852 -7.8 L2.952 -7.8 L1.248 -6.888 L1.452 -6.084 L2.808 -6.816 L2.832 -6.816 ZM9.3 -7.932 C7.716 -7.932 6.588 -6.492 6.588 -3.876 C6.612 -1.296 7.644 0.132 9.168 0.132 C10.896 0.132 11.88 -1.332 11.88 -3.984 C11.88 -6.468 10.944 -7.932 9.3 -7.932 ZM9.24 -7.116 C10.332 -7.116 10.824 -5.856 10.824 -3.936 C10.824 -1.944 10.308 -0.684 9.228 -0.684 C8.268 -0.684 7.644 -1.836 7.644 -3.864 C7.644 -5.988 8.316 -7.116 9.24 -7.116 Z"
         id="path173" />
    </g>
    <g
       transform="translate(129,194)"
       style="font-size:10px; fill:rgb(38,38,38); text-rendering:geometricPrecision; color-rendering:optimizeQuality; image-rendering:optimizeQuality; font-family:'Myriad Pro'; color-interpolation:linearRGB; stroke:rgb(38,38,38);"
       id="g175">
      <path
         style="stroke:none;"
         d="M2.36 0 L3.21 0 L3.21 -6.5 L2.46 -6.5 L1.04 -5.74 L1.21 -5.07 L2.34 -5.68 L2.36 -5.68 Z"
         id="path177" />
    </g>
    <g
       transform="translate(170,200)"
       style="fill:rgb(38,38,38); text-rendering:geometricPrecision; color-rendering:optimizeQuality; image-rendering:optimizeQuality; font-family:'Myriad Pro'; color-interpolation:linearRGB; stroke:rgb(38,38,38);"
       id="g179">
      <path
         style="stroke:none;"
         d="M2.832 0 L3.852 0 L3.852 -7.8 L2.952 -7.8 L1.248 -6.888 L1.452 -6.084 L2.808 -6.816 L2.832 -6.816 ZM9.3 -7.932 C7.716 -7.932 6.588 -6.492 6.588 -3.876 C6.612 -1.296 7.644 0.132 9.168 0.132 C10.896 0.132 11.88 -1.332 11.88 -3.984 C11.88 -6.468 10.944 -7.932 9.3 -7.932 ZM9.24 -7.116 C10.332 -7.116 10.824 -5.856 10.824 -3.936 C10.824 -1.944 10.308 -0.684 9.228 -0.684 C8.268 -0.684 7.644 -1.836 7.644 -3.864 C7.644 -5.988 8.316 -7.116 9.24 -7.116 Z"
         id="path181" />
    </g>
    <g
       transform="translate(183,194)"
       style="font-size:10px; fill:rgb(38,38,38); text-rendering:geometricPrecision; color-rendering:optimizeQuality; image-rendering:optimizeQuality; font-family:'Myriad Pro'; color-interpolation:linearRGB; stroke:rgb(38,38,38);"
       id="g183">
      <path
         style="stroke:none;"
         d="M4.6 0 L4.6 -0.73 L1.68 -0.73 L1.68 -0.75 L2.2 -1.23 C3.57 -2.55 4.44 -3.52 4.44 -4.72 C4.44 -5.65 3.85 -6.61 2.45 -6.61 C1.7 -6.61 1.06 -6.33 0.61 -5.95 L0.89 -5.33 C1.19 -5.58 1.68 -5.88 2.27 -5.88 C3.24 -5.88 3.56 -5.27 3.56 -4.61 C3.55 -3.63 2.8 -2.79 1.14 -1.21 L0.45 -0.54 L0.45 0 Z"
         id="path185" />
    </g>
    <g
       transform="translate(224,200)"
       style="fill:rgb(38,38,38); text-rendering:geometricPrecision; color-rendering:optimizeQuality; image-rendering:optimizeQuality; font-family:'Myriad Pro'; color-interpolation:linearRGB; stroke:rgb(38,38,38);"
       id="g187">
      <path
         style="stroke:none;"
         d="M2.832 0 L3.852 0 L3.852 -7.8 L2.952 -7.8 L1.248 -6.888 L1.452 -6.084 L2.808 -6.816 L2.832 -6.816 ZM9.3 -7.932 C7.716 -7.932 6.588 -6.492 6.588 -3.876 C6.612 -1.296 7.644 0.132 9.168 0.132 C10.896 0.132 11.88 -1.332 11.88 -3.984 C11.88 -6.468 10.944 -7.932 9.3 -7.932 ZM9.24 -7.116 C10.332 -7.116 10.824 -5.856 10.824 -3.936 C10.824 -1.944 10.308 -0.684 9.228 -0.684 C8.268 -0.684 7.644 -1.836 7.644 -3.864 C7.644 -5.988 8.316 -7.116 9.24 -7.116 Z"
         id="path189" />
    </g>
    <g
       transform="translate(237,194)"
       style="font-size:10px; fill:rgb(38,38,38); text-rendering:geometricPrecision; color-rendering:optimizeQuality; image-rendering:optimizeQuality; font-family:'Myriad Pro'; color-interpolation:linearRGB; stroke:rgb(38,38,38);"
       id="g191">
      <path
         style="stroke:none;"
         d="M0.42 -0.33 C0.74 -0.12 1.38 0.11 2.11 0.11 C3.67 0.11 4.48 -0.8 4.48 -1.84 C4.48 -2.75 3.83 -3.35 3.03 -3.51 L3.03 -3.53 C3.83 -3.82 4.23 -4.39 4.23 -5.06 C4.23 -5.85 3.65 -6.61 2.37 -6.61 C1.67 -6.61 1.01 -6.36 0.67 -6.11 L0.9 -5.47 C1.18 -5.67 1.68 -5.9 2.2 -5.9 C3.01 -5.9 3.34 -5.44 3.34 -4.92 C3.34 -4.15 2.53 -3.82 1.89 -3.82 L1.4 -3.82 L1.4 -3.16 L1.89 -3.16 C2.74 -3.16 3.56 -2.77 3.57 -1.86 C3.58 -1.32 3.23 -0.6 2.1 -0.6 C1.49 -0.6 0.91 -0.85 0.66 -1.01 Z"
         id="path193" />
    </g>
    <g
       transform="translate(150.0001,204.4)"
       style="fill:rgb(38,38,38); text-rendering:geometricPrecision; color-rendering:optimizeQuality; image-rendering:optimizeQuality; font-family:'Myriad Pro'; color-interpolation:linearRGB; stroke:rgb(38,38,38);"
       id="g195">
      <path
         style="stroke:none;"
         d="M-21.884 2.124 L-21.884 3.192 L-22.784 3.192 L-22.784 3.996 L-21.884 3.996 L-21.884 7.164 C-21.884 7.848 -21.776 8.364 -21.476 8.676 C-21.224 8.964 -20.828 9.132 -20.336 9.132 C-19.928 9.132 -19.604 9.06 -19.4 8.976 L-19.448 8.184 C-19.604 8.232 -19.772 8.256 -20.06 8.256 C-20.648 8.256 -20.852 7.848 -20.852 7.128 L-20.852 3.996 L-19.34 3.996 L-19.34 3.192 L-20.852 3.192 L-20.852 1.8 ZM-18.152 9 L-17.108 9 L-17.108 5.904 C-17.108 5.724 -17.084 5.556 -17.06 5.412 C-16.916 4.62 -16.388 4.056 -15.644 4.056 C-15.5 4.056 -15.392 4.068 -15.284 4.092 L-15.284 3.096 C-15.38 3.072 -15.464 3.06 -15.584 3.06 C-16.292 3.06 -16.928 3.552 -17.192 4.332 L-17.24 4.332 L-17.276 3.192 L-18.2 3.192 C-18.164 3.732 -18.152 4.32 -18.152 5.004 ZM-9.368 3.192 L-10.424 3.192 L-10.424 6.756 C-10.424 6.948 -10.46 7.14 -10.52 7.296 C-10.712 7.764 -11.204 8.256 -11.912 8.256 C-12.872 8.256 -13.208 7.512 -13.208 6.408 L-13.208 3.192 L-14.264 3.192 L-14.264 6.588 C-14.264 8.628 -13.172 9.132 -12.26 9.132 C-11.228 9.132 -10.616 8.52 -10.34 8.052 L-10.316 8.052 L-10.256 9 L-9.32 9 C-9.356 8.544 -9.368 8.016 -9.368 7.416 ZM-2.948 6.288 C-2.936 6.18 -2.912 6.012 -2.912 5.796 C-2.912 4.728 -3.416 3.06 -5.312 3.06 C-7.004 3.06 -8.036 4.44 -8.036 6.192 C-8.036 7.944 -6.968 9.132 -5.18 9.132 C-4.256 9.132 -3.62 8.928 -3.248 8.76 L-3.428 8.004 C-3.824 8.172 -4.28 8.304 -5.036 8.304 C-6.092 8.304 -7.004 7.716 -7.028 6.288 ZM-7.016 5.532 C-6.932 4.8 -6.464 3.816 -5.396 3.816 C-4.208 3.816 -3.92 4.86 -3.932 5.532 ZM0.94 9 L1.984 9 L1.984 5.904 C1.984 5.724 2.008 5.556 2.032 5.412 C2.176 4.62 2.704 4.056 3.448 4.056 C3.592 4.056 3.7 4.068 3.808 4.092 L3.808 3.096 C3.712 3.072 3.628 3.06 3.508 3.06 C2.8 3.06 2.164 3.552 1.9 4.332 L1.852 4.332 L1.816 3.192 L0.892 3.192 C0.928 3.732 0.94 4.32 0.94 5.004 ZM8.944 5.436 C8.944 4.272 8.512 3.06 6.736 3.06 C6.004 3.06 5.308 3.264 4.828 3.576 L5.068 4.272 C5.476 4.008 6.04 3.84 6.58 3.84 C7.768 3.84 7.9 4.704 7.9 5.184 L7.9 5.304 C5.656 5.292 4.408 6.06 4.408 7.464 C4.408 8.304 5.008 9.132 6.184 9.132 C7.012 9.132 7.636 8.724 7.96 8.268 L7.996 8.268 L8.08 9 L9.04 9 C8.968 8.604 8.944 8.112 8.944 7.608 ZM7.924 7.044 C7.924 7.152 7.9 7.272 7.864 7.38 C7.696 7.872 7.216 8.352 6.46 8.352 C5.92 8.352 5.464 8.028 5.464 7.344 C5.464 6.216 6.772 6.012 7.924 6.036 ZM10.648 9 L11.704 9 L11.704 5.508 C11.704 5.328 11.728 5.148 11.776 5.016 C11.956 4.428 12.496 3.936 13.192 3.936 C14.188 3.936 14.536 4.716 14.536 5.652 L14.536 9 L15.592 9 L15.592 5.532 C15.592 3.54 14.344 3.06 13.54 3.06 C12.58 3.06 11.908 3.6 11.62 4.152 L11.596 4.152 L11.536 3.192 L10.6 3.192 C10.636 3.672 10.648 4.164 10.648 4.764 ZM18.352 0.48 L17.308 0.48 L17.308 9 L18.352 9 L18.352 6.816 L18.892 6.216 L20.896 9 L22.18 9 L19.624 5.58 L21.868 3.192 L20.596 3.192 L18.892 5.196 C18.724 5.4 18.52 5.652 18.376 5.856 L18.352 5.856 Z"
         id="path197" />
    </g>
    <g
       style="fill:rgb(38,38,38); text-rendering:geometricPrecision; color-rendering:optimizeQuality; image-rendering:optimizeQuality; stroke-linejoin:round; color-interpolation:linearRGB; stroke:rgb(38,38,38); stroke-width:0.5;"
       id="g199">
      <line
         y2="16"
         style="fill:none;"
         x1="66"
         x2="66"
         y1="182"
         id="line201" />
      <line
         y2="16"
         style="fill:none;"
         x1="234"
         x2="234"
         y1="182"
         id="line203" />
      <line
         y2="174.3282"
         style="fill:none;"
         x1="66"
         x2="67.68"
         y1="174.3282"
         id="line205" />
      <line
         y2="95.1641"
         style="fill:none;"
         x1="66"
         x2="67.68"
         y1="95.1641"
         id="line207" />
      <line
         y2="16"
         style="fill:none;"
         x1="66"
         x2="67.68"
         y1="16"
         id="line209" />
      <line
         y2="174.3282"
         style="fill:none;"
         x1="234"
         x2="232.32"
         y1="174.3282"
         id="line211" />
      <line
         y2="95.1641"
         style="fill:none;"
         x1="234"
         x2="232.32"
         y1="95.1641"
         id="line213" />
      <line
         y2="16"
         style="fill:none;"
         x1="234"
         x2="232.32"
         y1="16"
         id="line215" />
      <line
         y2="182"
         style="fill:none;"
         x1="66"
         x2="66.84"
         y1="182"
         id="line217" />
      <line
         y2="177.9506"
         style="fill:none;"
         x1="66"
         x2="66.84"
         y1="177.9506"
         id="line219" />
      <line
         y2="174.3282"
         style="fill:none;"
         x1="66"
         x2="66.84"
         y1="174.3282"
         id="line221" />
      <line
         y2="150.4974"
         style="fill:none;"
         x1="66"
         x2="66.84"
         y1="150.4974"
         id="line223" />
      <line
         y2="136.5573"
         style="fill:none;"
         x1="66"
         x2="66.84"
         y1="136.5573"
         id="line225" />
      <line
         y2="126.6667"
         style="fill:none;"
         x1="66"
         x2="66.84"
         y1="126.6667"
         id="line227" />
      <line
         y2="118.9949"
         style="fill:none;"
         x1="66"
         x2="66.84"
         y1="118.9949"
         id="line229" />
      <line
         y2="112.7266"
         style="fill:none;"
         x1="66"
         x2="66.84"
         y1="112.7266"
         id="line231" />
      <line
         y2="107.4268"
         style="fill:none;"
         x1="66"
         x2="66.84"
         y1="107.4268"
         id="line233" />
      <line
         y2="102.8359"
         style="fill:none;"
         x1="66"
         x2="66.84"
         y1="102.8359"
         id="line235" />
      <line
         y2="98.7865"
         style="fill:none;"
         x1="66"
         x2="66.84"
         y1="98.7865"
         id="line237" />
      <line
         y2="95.1641"
         style="fill:none;"
         x1="66"
         x2="66.84"
         y1="95.1641"
         id="line239" />
      <line
         y2="71.3333"
         style="fill:none;"
         x1="66"
         x2="66.84"
         y1="71.3333"
         id="line241" />
      <line
         y2="57.3932"
         style="fill:none;"
         x1="66"
         x2="66.84"
         y1="57.3932"
         id="line243" />
      <line
         y2="47.5026"
         style="fill:none;"
         x1="66"
         x2="66.84"
         y1="47.5026"
         id="line245" />
      <line
         y2="39.8308"
         style="fill:none;"
         x1="66"
         x2="66.84"
         y1="39.8308"
         id="line247" />
      <line
         y2="33.5625"
         style="fill:none;"
         x1="66"
         x2="66.84"
         y1="33.5625"
         id="line249" />
      <line
         y2="28.2627"
         style="fill:none;"
         x1="66"
         x2="66.84"
         y1="28.2627"
         id="line251" />
      <line
         y2="23.6718"
         style="fill:none;"
         x1="66"
         x2="66.84"
         y1="23.6718"
         id="line253" />
      <line
         y2="19.6223"
         style="fill:none;"
         x1="66"
         x2="66.84"
         y1="19.6223"
         id="line255" />
      <line
         y2="16"
         style="fill:none;"
         x1="66"
         x2="66.84"
         y1="16"
         id="line257" />
      <line
         y2="182"
         style="fill:none;"
         x1="234"
         x2="233.16"
         y1="182"
         id="line259" />
      <line
         y2="177.9506"
         style="fill:none;"
         x1="234"
         x2="233.16"
         y1="177.9506"
         id="line261" />
      <line
         y2="174.3282"
         style="fill:none;"
         x1="234"
         x2="233.16"
         y1="174.3282"
         id="line263" />
      <line
         y2="150.4974"
         style="fill:none;"
         x1="234"
         x2="233.16"
         y1="150.4974"
         id="line265" />
      <line
         y2="136.5573"
         style="fill:none;"
         x1="234"
         x2="233.16"
         y1="136.5573"
         id="line267" />
      <line
         y2="126.6667"
         style="fill:none;"
         x1="234"
         x2="233.16"
         y1="126.6667"
         id="line269" />
      <line
         y2="118.9949"
         style="fill:none;"
         x1="234"
         x2="233.16"
         y1="118.9949"
         id="line271" />
      <line
         y2="112.7266"
         style="fill:none;"
         x1="234"
         x2="233.16"
         y1="112.7266"
         id="line273" />
      <line
         y2="107.4268"
         style="fill:none;"
         x1="234"
         x2="233.16"
         y1="107.4268"
         id="line275" />
      <line
         y2="102.8359"
         style="fill:none;"
         x1="234"
         x2="233.16"
         y1="102.8359"
         id="line277" />
      <line
         y2="98.7865"
         style="fill:none;"
         x1="234"
         x2="233.16"
         y1="98.7865"
         id="line279" />
      <line
         y2="95.1641"
         style="fill:none;"
         x1="234"
         x2="233.16"
         y1="95.1641"
         id="line281" />
      <line
         y2="71.3333"
         style="fill:none;"
         x1="234"
         x2="233.16"
         y1="71.3333"
         id="line283" />
      <line
         y2="57.3932"
         style="fill:none;"
         x1="234"
         x2="233.16"
         y1="57.3932"
         id="line285" />
      <line
         y2="47.5026"
         style="fill:none;"
         x1="234"
         x2="233.16"
         y1="47.5026"
         id="line287" />
      <line
         y2="39.8308"
         style="fill:none;"
         x1="234"
         x2="233.16"
         y1="39.8308"
         id="line289" />
      <line
         y2="33.5625"
         style="fill:none;"
         x1="234"
         x2="233.16"
         y1="33.5625"
         id="line291" />
      <line
         y2="28.2627"
         style="fill:none;"
         x1="234"
         x2="233.16"
         y1="28.2627"
         id="line293" />
      <line
         y2="23.6718"
         style="fill:none;"
         x1="234"
         x2="233.16"
         y1="23.6718"
         id="line295" />
      <line
         y2="19.6223"
         style="fill:none;"
         x1="234"
         x2="233.16"
         y1="19.6223"
         id="line297" />
      <line
         y2="16"
         style="fill:none;"
         x1="234"
         x2="233.16"
         y1="16"
         id="line299" />
    </g>
    <g
       transform="translate(43,180)"
       style="fill:rgb(38,38,38); text-rendering:geometricPrecision; color-rendering:optimizeQuality; image-rendering:optimizeQuality; font-family:'Myriad Pro'; color-interpolation:linearRGB; stroke:rgb(38,38,38);"
       id="g301">
      <path
         style="stroke:none;"
         d="M2.832 0 L3.852 0 L3.852 -7.8 L2.952 -7.8 L1.248 -6.888 L1.452 -6.084 L2.808 -6.816 L2.832 -6.816 ZM9.3 -7.932 C7.716 -7.932 6.588 -6.492 6.588 -3.876 C6.612 -1.296 7.644 0.132 9.168 0.132 C10.896 0.132 11.88 -1.332 11.88 -3.984 C11.88 -6.468 10.944 -7.932 9.3 -7.932 ZM9.24 -7.116 C10.332 -7.116 10.824 -5.856 10.824 -3.936 C10.824 -1.944 10.308 -0.684 9.228 -0.684 C8.268 -0.684 7.644 -1.836 7.644 -3.864 C7.644 -5.988 8.316 -7.116 9.24 -7.116 Z"
         id="path303" />
    </g>
    <g
       transform="translate(56,174)"
       style="font-size:10px; fill:rgb(38,38,38); text-rendering:geometricPrecision; color-rendering:optimizeQuality; image-rendering:optimizeQuality; font-family:'Myriad Pro'; color-interpolation:linearRGB; stroke:rgb(38,38,38);"
       id="g305">
      <path
         style="stroke:none;"
         d="M2.62 -6.61 C1.3 -6.61 0.36 -5.41 0.36 -3.23 C0.38 -1.08 1.24 0.11 2.51 0.11 C3.95 0.11 4.77 -1.11 4.77 -3.32 C4.77 -5.39 3.99 -6.61 2.62 -6.61 ZM2.57 -5.93 C3.48 -5.93 3.89 -4.88 3.89 -3.28 C3.89 -1.62 3.46 -0.57 2.56 -0.57 C1.76 -0.57 1.24 -1.53 1.24 -3.22 C1.24 -4.99 1.8 -5.93 2.57 -5.93 Z"
         id="path307" />
    </g>
    <g
       transform="translate(43,101)"
       style="fill:rgb(38,38,38); text-rendering:geometricPrecision; color-rendering:optimizeQuality; image-rendering:optimizeQuality; font-family:'Myriad Pro'; color-interpolation:linearRGB; stroke:rgb(38,38,38);"
       id="g309">
      <path
         style="stroke:none;"
         d="M2.832 0 L3.852 0 L3.852 -7.8 L2.952 -7.8 L1.248 -6.888 L1.452 -6.084 L2.808 -6.816 L2.832 -6.816 ZM9.3 -7.932 C7.716 -7.932 6.588 -6.492 6.588 -3.876 C6.612 -1.296 7.644 0.132 9.168 0.132 C10.896 0.132 11.88 -1.332 11.88 -3.984 C11.88 -6.468 10.944 -7.932 9.3 -7.932 ZM9.24 -7.116 C10.332 -7.116 10.824 -5.856 10.824 -3.936 C10.824 -1.944 10.308 -0.684 9.228 -0.684 C8.268 -0.684 7.644 -1.836 7.644 -3.864 C7.644 -5.988 8.316 -7.116 9.24 -7.116 Z"
         id="path311" />
    </g>
    <g
       transform="translate(56,95)"
       style="font-size:10px; fill:rgb(38,38,38); text-rendering:geometricPrecision; color-rendering:optimizeQuality; image-rendering:optimizeQuality; font-family:'Myriad Pro'; color-interpolation:linearRGB; stroke:rgb(38,38,38);"
       id="g313">
      <path
         style="stroke:none;"
         d="M2.36 0 L3.21 0 L3.21 -6.5 L2.46 -6.5 L1.04 -5.74 L1.21 -5.07 L2.34 -5.68 L2.36 -5.68 Z"
         id="path315" />
    </g>
    <g
       transform="translate(43,22)"
       style="fill:rgb(38,38,38); text-rendering:geometricPrecision; color-rendering:optimizeQuality; image-rendering:optimizeQuality; font-family:'Myriad Pro'; color-interpolation:linearRGB; stroke:rgb(38,38,38);"
       id="g317">
      <path
         style="stroke:none;"
         d="M2.832 0 L3.852 0 L3.852 -7.8 L2.952 -7.8 L1.248 -6.888 L1.452 -6.084 L2.808 -6.816 L2.832 -6.816 ZM9.3 -7.932 C7.716 -7.932 6.588 -6.492 6.588 -3.876 C6.612 -1.296 7.644 0.132 9.168 0.132 C10.896 0.132 11.88 -1.332 11.88 -3.984 C11.88 -6.468 10.944 -7.932 9.3 -7.932 ZM9.24 -7.116 C10.332 -7.116 10.824 -5.856 10.824 -3.936 C10.824 -1.944 10.308 -0.684 9.228 -0.684 C8.268 -0.684 7.644 -1.836 7.644 -3.864 C7.644 -5.988 8.316 -7.116 9.24 -7.116 Z"
         id="path319" />
    </g>
    <g
       transform="translate(56,16)"
       style="font-size:10px; fill:rgb(38,38,38); text-rendering:geometricPrecision; color-rendering:optimizeQuality; image-rendering:optimizeQuality; font-family:'Myriad Pro'; color-interpolation:linearRGB; stroke:rgb(38,38,38);"
       id="g321">
      <path
         style="stroke:none;"
         d="M4.6 0 L4.6 -0.73 L1.68 -0.73 L1.68 -0.75 L2.2 -1.23 C3.57 -2.55 4.44 -3.52 4.44 -4.72 C4.44 -5.65 3.85 -6.61 2.45 -6.61 C1.7 -6.61 1.06 -6.33 0.61 -5.95 L0.89 -5.33 C1.19 -5.58 1.68 -5.88 2.27 -5.88 C3.24 -5.88 3.56 -5.27 3.56 -4.61 C3.55 -3.63 2.8 -2.79 1.14 -1.21 L0.45 -0.54 L0.45 0 Z"
         id="path323" />
    </g>
    <g
       transform="translate(39.6,98.9999) rotate(-90)"
       style="fill:rgb(38,38,38); text-rendering:geometricPrecision; color-rendering:optimizeQuality; image-rendering:optimizeQuality; font-family:'Myriad Pro'; color-interpolation:linearRGB; stroke:rgb(38,38,38);"
       id="g325">
      <path
         style="stroke:none;"
         d="M-51.032 -3.276 C-50.624 -3.036 -50.036 -2.868 -49.4 -2.868 C-48.02 -2.868 -47.228 -3.6 -47.228 -4.62 C-47.228 -5.484 -47.744 -5.988 -48.752 -6.372 C-49.508 -6.66 -49.856 -6.876 -49.856 -7.356 C-49.856 -7.788 -49.508 -8.148 -48.884 -8.148 C-48.344 -8.148 -47.924 -7.956 -47.696 -7.812 L-47.432 -8.58 C-47.756 -8.772 -48.272 -8.94 -48.86 -8.94 C-50.108 -8.94 -50.864 -8.172 -50.864 -7.236 C-50.864 -6.54 -50.372 -5.964 -49.328 -5.592 C-48.548 -5.304 -48.248 -5.028 -48.248 -4.524 C-48.248 -4.044 -48.608 -3.66 -49.376 -3.66 C-49.904 -3.66 -50.456 -3.876 -50.768 -4.08 ZM-41.792 -6.564 C-41.792 -7.728 -42.224 -8.94 -44 -8.94 C-44.732 -8.94 -45.428 -8.736 -45.908 -8.424 L-45.668 -7.728 C-45.26 -7.992 -44.696 -8.16 -44.156 -8.16 C-42.968 -8.16 -42.836 -7.296 -42.836 -6.816 L-42.836 -6.696 C-45.08 -6.708 -46.328 -5.94 -46.328 -4.536 C-46.328 -3.696 -45.728 -2.868 -44.552 -2.868 C-43.724 -2.868 -43.1 -3.276 -42.776 -3.732 L-42.74 -3.732 L-42.656 -3 L-41.696 -3 C-41.768 -3.396 -41.792 -3.888 -41.792 -4.392 ZM-42.812 -4.956 C-42.812 -4.848 -42.836 -4.728 -42.872 -4.62 C-43.04 -4.128 -43.52 -3.648 -44.276 -3.648 C-44.816 -3.648 -45.272 -3.972 -45.272 -4.656 C-45.272 -5.784 -43.964 -5.988 -42.812 -5.964 ZM-40.088 -3 L-39.056 -3 L-39.056 -6.504 C-39.056 -6.684 -39.032 -6.864 -38.972 -7.02 C-38.804 -7.548 -38.324 -8.076 -37.664 -8.076 C-36.86 -8.076 -36.452 -7.404 -36.452 -6.48 L-36.452 -3 L-35.42 -3 L-35.42 -6.588 C-35.42 -6.78 -35.384 -6.972 -35.336 -7.116 C-35.156 -7.632 -34.688 -8.076 -34.088 -8.076 C-33.236 -8.076 -32.828 -7.404 -32.828 -6.288 L-32.828 -3 L-31.796 -3 L-31.796 -6.42 C-31.796 -8.436 -32.936 -8.94 -33.704 -8.94 C-34.256 -8.94 -34.64 -8.796 -34.988 -8.532 C-35.228 -8.352 -35.456 -8.1 -35.636 -7.776 L-35.66 -7.776 C-35.912 -8.46 -36.512 -8.94 -37.304 -8.94 C-38.264 -8.94 -38.804 -8.424 -39.128 -7.872 L-39.164 -7.872 L-39.212 -8.808 L-40.136 -8.808 C-40.1 -8.328 -40.088 -7.836 -40.088 -7.236 ZM-30.08 -0.624 L-29.036 -0.624 L-29.036 -3.78 L-29.012 -3.78 C-28.664 -3.204 -27.992 -2.868 -27.224 -2.868 C-25.856 -2.868 -24.584 -3.9 -24.584 -5.988 C-24.584 -7.752 -25.64 -8.94 -27.044 -8.94 C-27.992 -8.94 -28.676 -8.52 -29.108 -7.812 L-29.132 -7.812 L-29.18 -8.808 L-30.128 -8.808 C-30.104 -8.256 -30.08 -7.656 -30.08 -6.912 ZM-29.036 -6.36 C-29.036 -6.504 -29 -6.66 -28.964 -6.792 C-28.76 -7.584 -28.088 -8.1 -27.368 -8.1 C-26.252 -8.1 -25.64 -7.104 -25.64 -5.94 C-25.64 -4.608 -26.288 -3.696 -27.404 -3.696 C-28.16 -3.696 -28.796 -4.2 -28.988 -4.932 C-29.012 -5.064 -29.036 -5.208 -29.036 -5.364 ZM-23.252 -3 L-22.196 -3 L-22.196 -11.52 L-23.252 -11.52 ZM-15.752 -5.712 C-15.74 -5.82 -15.716 -5.988 -15.716 -6.204 C-15.716 -7.272 -16.22 -8.94 -18.116 -8.94 C-19.808 -8.94 -20.84 -7.56 -20.84 -5.808 C-20.84 -4.056 -19.772 -2.868 -17.984 -2.868 C-17.06 -2.868 -16.424 -3.072 -16.052 -3.24 L-16.232 -3.996 C-16.628 -3.828 -17.084 -3.696 -17.84 -3.696 C-18.896 -3.696 -19.808 -4.284 -19.832 -5.712 ZM-19.82 -6.468 C-19.736 -7.2 -19.268 -8.184 -18.2 -8.184 C-17.012 -8.184 -16.724 -7.14 -16.736 -6.468 ZM-10.448 -11.52 L-10.448 -8.052 L-10.472 -8.052 C-10.736 -8.52 -11.336 -8.94 -12.224 -8.94 C-13.64 -8.94 -14.84 -7.752 -14.828 -5.82 C-14.828 -4.056 -13.748 -2.868 -12.344 -2.868 C-11.396 -2.868 -10.688 -3.36 -10.364 -4.008 L-10.34 -4.008 L-10.292 -3 L-9.344 -3 C-9.38 -3.396 -9.392 -3.984 -9.392 -4.5 L-9.392 -11.52 ZM-10.448 -5.436 C-10.448 -5.268 -10.46 -5.124 -10.496 -4.98 C-10.688 -4.188 -11.336 -3.72 -12.044 -3.72 C-13.184 -3.72 -13.76 -4.692 -13.76 -5.868 C-13.76 -7.152 -13.112 -8.112 -12.02 -8.112 C-11.228 -8.112 -10.652 -7.56 -10.496 -6.888 C-10.46 -6.756 -10.448 -6.576 -10.448 -6.444 ZM-1.016 -6.564 C-1.016 -7.728 -1.448 -8.94 -3.224 -8.94 C-3.956 -8.94 -4.652 -8.736 -5.132 -8.424 L-4.892 -7.728 C-4.484 -7.992 -3.92 -8.16 -3.38 -8.16 C-2.192 -8.16 -2.06 -7.296 -2.06 -6.816 L-2.06 -6.696 C-4.304 -6.708 -5.552 -5.94 -5.552 -4.536 C-5.552 -3.696 -4.952 -2.868 -3.776 -2.868 C-2.948 -2.868 -2.324 -3.276 -2 -3.732 L-1.964 -3.732 L-1.88 -3 L-0.92 -3 C-0.992 -3.396 -1.016 -3.888 -1.016 -4.392 ZM-2.036 -4.956 C-2.036 -4.848 -2.06 -4.728 -2.096 -4.62 C-2.264 -4.128 -2.744 -3.648 -3.5 -3.648 C-4.04 -3.648 -4.496 -3.972 -4.496 -4.656 C-4.496 -5.784 -3.188 -5.988 -2.036 -5.964 ZM0.688 -4.5 C0.688 -3.984 0.664 -3.396 0.64 -3 L1.552 -3 L1.6 -3.96 L1.636 -3.96 C2.068 -3.192 2.74 -2.868 3.58 -2.868 C4.876 -2.868 6.184 -3.9 6.184 -5.976 C6.196 -7.74 5.176 -8.94 3.736 -8.94 C2.8 -8.94 2.128 -8.52 1.756 -7.872 L1.732 -7.872 L1.732 -11.52 L0.688 -11.52 ZM1.732 -6.372 C1.732 -6.54 1.768 -6.684 1.792 -6.804 C2.008 -7.608 2.68 -8.1 3.4 -8.1 C4.528 -8.1 5.128 -7.104 5.128 -5.94 C5.128 -4.608 4.468 -3.708 3.364 -3.708 C2.596 -3.708 1.984 -4.212 1.78 -4.944 C1.756 -5.064 1.732 -5.196 1.732 -5.328 ZM12.376 -8.808 L11.32 -8.808 L11.32 -5.244 C11.32 -5.052 11.284 -4.86 11.224 -4.704 C11.032 -4.236 10.54 -3.744 9.832 -3.744 C8.872 -3.744 8.536 -4.488 8.536 -5.592 L8.536 -8.808 L7.48 -8.808 L7.48 -5.412 C7.48 -3.372 8.572 -2.868 9.484 -2.868 C10.516 -2.868 11.128 -3.48 11.404 -3.948 L11.428 -3.948 L11.488 -3 L12.424 -3 C12.388 -3.456 12.376 -3.984 12.376 -4.584 ZM14.128 -3 L15.184 -3 L15.184 -6.492 C15.184 -6.672 15.208 -6.852 15.256 -6.984 C15.436 -7.572 15.976 -8.064 16.672 -8.064 C17.668 -8.064 18.016 -7.284 18.016 -6.348 L18.016 -3 L19.072 -3 L19.072 -6.468 C19.072 -8.46 17.824 -8.94 17.02 -8.94 C16.06 -8.94 15.388 -8.4 15.1 -7.848 L15.076 -7.848 L15.016 -8.808 L14.08 -8.808 C14.116 -8.328 14.128 -7.836 14.128 -7.236 ZM24.748 -11.52 L24.748 -8.052 L24.724 -8.052 C24.46 -8.52 23.86 -8.94 22.972 -8.94 C21.556 -8.94 20.356 -7.752 20.368 -5.82 C20.368 -4.056 21.448 -2.868 22.852 -2.868 C23.8 -2.868 24.508 -3.36 24.832 -4.008 L24.856 -4.008 L24.904 -3 L25.852 -3 C25.816 -3.396 25.804 -3.984 25.804 -4.5 L25.804 -11.52 ZM24.748 -5.436 C24.748 -5.268 24.736 -5.124 24.7 -4.98 C24.508 -4.188 23.86 -3.72 23.152 -3.72 C22.012 -3.72 21.436 -4.692 21.436 -5.868 C21.436 -7.152 22.084 -8.112 23.176 -8.112 C23.968 -8.112 24.544 -7.56 24.7 -6.888 C24.736 -6.756 24.748 -6.576 24.748 -6.444 ZM31.636 -6.564 C31.636 -7.728 31.204 -8.94 29.428 -8.94 C28.696 -8.94 28 -8.736 27.52 -8.424 L27.76 -7.728 C28.168 -7.992 28.732 -8.16 29.272 -8.16 C30.46 -8.16 30.592 -7.296 30.592 -6.816 L30.592 -6.696 C28.348 -6.708 27.1 -5.94 27.1 -4.536 C27.1 -3.696 27.7 -2.868 28.876 -2.868 C29.704 -2.868 30.328 -3.276 30.652 -3.732 L30.688 -3.732 L30.772 -3 L31.732 -3 C31.66 -3.396 31.636 -3.888 31.636 -4.392 ZM30.616 -4.956 C30.616 -4.848 30.592 -4.728 30.556 -4.62 C30.388 -4.128 29.908 -3.648 29.152 -3.648 C28.612 -3.648 28.156 -3.972 28.156 -4.656 C28.156 -5.784 29.464 -5.988 30.616 -5.964 ZM33.34 -3 L34.396 -3 L34.396 -6.492 C34.396 -6.672 34.42 -6.852 34.468 -6.984 C34.648 -7.572 35.188 -8.064 35.884 -8.064 C36.88 -8.064 37.228 -7.284 37.228 -6.348 L37.228 -3 L38.284 -3 L38.284 -6.468 C38.284 -8.46 37.036 -8.94 36.232 -8.94 C35.272 -8.94 34.6 -8.4 34.312 -7.848 L34.288 -7.848 L34.228 -8.808 L33.292 -8.808 C33.328 -8.328 33.34 -7.836 33.34 -7.236 ZM43.96 -4.008 C43.66 -3.876 43.264 -3.72 42.664 -3.72 C41.512 -3.72 40.648 -4.548 40.648 -5.892 C40.648 -7.104 41.368 -8.088 42.7 -8.088 C43.276 -8.088 43.672 -7.956 43.924 -7.812 L44.164 -8.628 C43.876 -8.772 43.324 -8.928 42.7 -8.928 C40.804 -8.928 39.58 -7.632 39.58 -5.844 C39.58 -4.068 40.72 -2.868 42.472 -2.868 C43.252 -2.868 43.864 -3.072 44.14 -3.216 ZM50.044 -5.712 C50.056 -5.82 50.08 -5.988 50.08 -6.204 C50.08 -7.272 49.576 -8.94 47.68 -8.94 C45.988 -8.94 44.956 -7.56 44.956 -5.808 C44.956 -4.056 46.024 -2.868 47.812 -2.868 C48.736 -2.868 49.372 -3.072 49.744 -3.24 L49.564 -3.996 C49.168 -3.828 48.712 -3.696 47.956 -3.696 C46.9 -3.696 45.988 -4.284 45.964 -5.712 ZM45.976 -6.468 C46.06 -7.2 46.528 -8.184 47.596 -8.184 C48.784 -8.184 49.072 -7.14 49.06 -6.468 Z"
         id="path327" />
    </g>
    <g
       transform="translate(71.2571,55.1744)"
       style="stroke-linecap:butt; fill:rgb(26,153,0); text-rendering:geometricPrecision; color-rendering:optimizeQuality; image-rendering:optimizeQuality; color-interpolation:linearRGB; stroke:rgb(26,153,0);"
       id="g329">
      <path
         style="fill:none;"
         d="M-3.5355 -3.5355 L3.5355 3.5355 M-3.5355 3.5355 L3.5355 -3.5355"
         id="path331" />
      <path
         d="M-3.5355 -3.5355 L3.5355 3.5355 M-3.5355 3.5355 L3.5355 -3.5355"
         style="fill:none;"
         transform="translate(16.3302,19.7813)"
         id="path333" />
      <path
         d="M-3.5355 -3.5355 L3.5355 3.5355 M-3.5355 3.5355 L3.5355 -3.5355"
         style="fill:none;"
         transform="translate(25.8827,47.6615)"
         id="path335" />
      <path
         d="M-3.5355 -3.5355 L3.5355 3.5355 M-3.5355 3.5355 L3.5355 -3.5355"
         style="fill:none;"
         transform="translate(32.6603,71.4923)"
         id="path337" />
      <path
         d="M-3.5355 -3.5355 L3.5355 3.5355 M-3.5355 3.5355 L3.5355 -3.5355"
         style="fill:none;"
         transform="translate(37.9175,52.2524)"
         id="path339" />
      <path
         d="M-3.5355 -3.5355 L3.5355 3.5355 M-3.5355 3.5355 L3.5355 -3.5355"
         style="fill:none;"
         transform="translate(48.9905,95.3231)"
         id="path341" />
      <path
         d="M-3.5355 -3.5355 L3.5355 3.5355 M-3.5355 3.5355 L3.5355 -3.5355"
         style="fill:none;"
         transform="translate(51.7654,95.3231)"
         id="path343" />
      <path
         d="M-3.5355 -3.5355 L3.5355 3.5355 M-3.5355 3.5355 L3.5355 -3.5355"
         style="fill:none;"
         transform="translate(54.2476,119.1538)"
         id="path345" />
      <path
         d="M-3.5355 -3.5355 L3.5355 3.5355 M-3.5355 3.5355 L3.5355 -3.5355"
         style="fill:none;"
         transform="translate(56.4931,119.1538)"
         id="path347" />
      <path
         d="M-3.5355 -3.5355 L3.5355 3.5355 M-3.5355 3.5355 L3.5355 -3.5355"
         style="fill:none;"
         transform="translate(58.543,119.1538)"
         id="path349" />
      <path
         d="M-3.5355 -3.5355 L3.5355 3.5355 M-3.5355 3.5355 L3.5355 -3.5355"
         style="fill:none;"
         transform="translate(60.4288,119.1538)"
         id="path351" />
      <path
         d="M-3.5355 -3.5355 L3.5355 3.5355 M-3.5355 3.5355 L3.5355 -3.5355"
         style="fill:none;"
         transform="translate(63.8002,119.1538)"
         id="path353" />
      <path
         d="M-3.5355 -3.5355 L3.5355 3.5355 M-3.5355 3.5355 L3.5355 -3.5355"
         style="fill:none;"
         transform="translate(65.3206,95.3231)"
         id="path355" />
      <path
         d="M-3.5355 -3.5355 L3.5355 3.5355 M-3.5355 3.5355 L3.5355 -3.5355"
         style="fill:none;"
         transform="translate(66.7489,95.3231)"
         id="path357" />
      <path
         d="M-3.5355 -3.5355 L3.5355 3.5355 M-3.5355 3.5355 L3.5355 -3.5355"
         style="fill:none;"
         transform="translate(71.7272,95.3231)"
         id="path359" />
      <path
         d="M-3.5355 -3.5355 L3.5355 3.5355 M-3.5355 3.5355 L3.5355 -3.5355"
         style="fill:none;"
         transform="translate(73.8705,119.1538)"
         id="path361" />
      <path
         d="M-3.5355 -3.5355 L3.5355 3.5355 M-3.5355 3.5355 L3.5355 -3.5355"
         style="fill:none;"
         transform="translate(76.7589,119.1538)"
         id="path363" />
      <path
         d="M-3.5355 -3.5355 L3.5355 3.5355 M-3.5355 3.5355 L3.5355 -3.5355"
         style="fill:none;"
         transform="translate(80.9028,119.1538)"
         id="path365" />
      <path
         d="M-3.5355 -3.5355 L3.5355 3.5355 M-3.5355 3.5355 L3.5355 -3.5355"
         style="fill:none;"
         transform="translate(82.3758,119.1538)"
         id="path367" />
      <path
         d="M-3.5355 -3.5355 L3.5355 3.5355 M-3.5355 3.5355 L3.5355 -3.5355"
         style="fill:none;"
         transform="translate(88.0574,119.1538)"
         id="path369" />
      <path
         d="M-3.5355 -3.5355 L3.5355 3.5355 M-3.5355 3.5355 L3.5355 -3.5355"
         style="fill:none;"
         transform="translate(90.2007,119.1538)"
         id="path371" />
      <path
         d="M-3.5355 -3.5355 L3.5355 3.5355 M-3.5355 3.5355 L3.5355 -3.5355"
         style="fill:none;"
         transform="translate(95.6618,119.1538)"
         id="path373" />
      <path
         d="M-3.5355 -3.5355 L3.5355 3.5355 M-3.5355 3.5355 L3.5355 -3.5355"
         style="fill:none;"
         transform="translate(99.0602,119.1538)"
         id="path375" />
      <path
         d="M-3.5355 -3.5355 L3.5355 3.5355 M-3.5355 3.5355 L3.5355 -3.5355"
         style="fill:none;"
         transform="translate(102.3376,119.1538)"
         id="path377" />
      <path
         d="M-3.5355 -3.5355 L3.5355 3.5355 M-3.5355 3.5355 L3.5355 -3.5355"
         style="fill:none;"
         transform="translate(126.9635,119.1538)"
         id="path379" />
      <path
         d="M-3.5355 -3.5355 L3.5355 3.5355 M-3.5355 3.5355 L3.5355 -3.5355"
         style="fill:none;"
         transform="translate(134.0617,119.1538)"
         id="path381" />
      <path
         d="M-3.5355 -3.5355 L3.5355 3.5355 M-3.5355 3.5355 L3.5355 -3.5355"
         style="fill:none;"
         transform="translate(138.5421,119.1538)"
         id="path383" />
      <path
         d="M-3.5355 -3.5355 L3.5355 3.5355 M-3.5355 3.5355 L3.5355 -3.5355"
         style="fill:none;"
         transform="translate(139.1911,119.1538)"
         id="path385" />
      <path
         d="M-3.5355 -3.5355 L3.5355 3.5355 M-3.5355 3.5355 L3.5355 -3.5355"
         style="fill:none;"
         transform="translate(146.2709,119.1538)"
         id="path387" />
    </g>
    <g
       style="fill:white; text-rendering:optimizeSpeed; color-rendering:optimizeSpeed; image-rendering:optimizeSpeed; shape-rendering:crispEdges; color-interpolation:sRGB; stroke:white;"
       id="g389">
      <path
         style="stroke:none;"
         d="M287 182 L455 182 L455 16 L287 16 Z"
         id="path391" />
    </g>
    <g
       style="fill:rgb(38,38,38); text-rendering:geometricPrecision; color-rendering:optimizeQuality; image-rendering:optimizeQuality; stroke-linejoin:round; color-interpolation:linearRGB; stroke:rgb(38,38,38); stroke-width:0.5;"
       id="g393">
      <line
         y2="182"
         style="fill:none;"
         x1="287"
         x2="455"
         y1="182"
         id="line395" />
      <line
         y2="16"
         style="fill:none;"
         x1="287"
         x2="455"
         y1="16"
         id="line397" />
      <line
         y2="180.32"
         style="fill:none;"
         x1="292.2571"
         x2="292.2571"
         y1="182"
         id="line399" />
      <line
         y2="180.32"
         style="fill:none;"
         x1="346.5048"
         x2="346.5048"
         y1="182"
         id="line401" />
      <line
         y2="180.32"
         style="fill:none;"
         x1="400.7524"
         x2="400.7524"
         y1="182"
         id="line403" />
      <line
         y2="180.32"
         style="fill:none;"
         x1="455"
         x2="455"
         y1="182"
         id="line405" />
      <line
         y2="17.68"
         style="fill:none;"
         x1="292.2571"
         x2="292.2571"
         y1="16"
         id="line407" />
      <line
         y2="17.68"
         style="fill:none;"
         x1="346.5048"
         x2="346.5048"
         y1="16"
         id="line409" />
      <line
         y2="17.68"
         style="fill:none;"
         x1="400.7524"
         x2="400.7524"
         y1="16"
         id="line411" />
      <line
         y2="17.68"
         style="fill:none;"
         x1="455"
         x2="455"
         y1="16"
         id="line413" />
      <line
         y2="181.16"
         style="fill:none;"
         x1="287"
         x2="287"
         y1="182"
         id="line415" />
      <line
         y2="181.16"
         style="fill:none;"
         x1="289.7749"
         x2="289.7749"
         y1="182"
         id="line417" />
      <line
         y2="181.16"
         style="fill:none;"
         x1="292.2571"
         x2="292.2571"
         y1="182"
         id="line419" />
      <line
         y2="181.16"
         style="fill:none;"
         x1="308.5873"
         x2="308.5873"
         y1="182"
         id="line421" />
      <line
         y2="181.16"
         style="fill:none;"
         x1="318.1398"
         x2="318.1398"
         y1="182"
         id="line423" />
      <line
         y2="181.16"
         style="fill:none;"
         x1="324.9174"
         x2="324.9174"
         y1="182"
         id="line425" />
      <line
         y2="181.16"
         style="fill:none;"
         x1="330.1746"
         x2="330.1746"
         y1="182"
         id="line427" />
      <line
         y2="181.16"
         style="fill:none;"
         x1="334.47"
         x2="334.47"
         y1="182"
         id="line429" />
      <line
         y2="181.16"
         style="fill:none;"
         x1="338.1017"
         x2="338.1017"
         y1="182"
         id="line431" />
      <line
         y2="181.16"
         style="fill:none;"
         x1="341.2476"
         x2="341.2476"
         y1="182"
         id="line433" />
      <line
         y2="181.16"
         style="fill:none;"
         x1="344.0225"
         x2="344.0225"
         y1="182"
         id="line435" />
      <line
         y2="181.16"
         style="fill:none;"
         x1="346.5048"
         x2="346.5048"
         y1="182"
         id="line437" />
      <line
         y2="181.16"
         style="fill:none;"
         x1="362.8349"
         x2="362.8349"
         y1="182"
         id="line439" />
      <line
         y2="181.16"
         style="fill:none;"
         x1="372.3875"
         x2="372.3875"
         y1="182"
         id="line441" />
      <line
         y2="181.16"
         style="fill:none;"
         x1="379.1651"
         x2="379.1651"
         y1="182"
         id="line443" />
      <line
         y2="181.16"
         style="fill:none;"
         x1="384.4222"
         x2="384.4222"
         y1="182"
         id="line445" />
      <line
         y2="181.16"
         style="fill:none;"
         x1="388.7176"
         x2="388.7176"
         y1="182"
         id="line447" />
      <line
         y2="181.16"
         style="fill:none;"
         x1="392.3493"
         x2="392.3493"
         y1="182"
         id="line449" />
      <line
         y2="181.16"
         style="fill:none;"
         x1="395.4952"
         x2="395.4952"
         y1="182"
         id="line451" />
      <line
         y2="181.16"
         style="fill:none;"
         x1="398.2701"
         x2="398.2701"
         y1="182"
         id="line453" />
      <line
         y2="181.16"
         style="fill:none;"
         x1="400.7524"
         x2="400.7524"
         y1="182"
         id="line455" />
      <line
         y2="181.16"
         style="fill:none;"
         x1="417.0826"
         x2="417.0826"
         y1="182"
         id="line457" />
      <line
         y2="181.16"
         style="fill:none;"
         x1="426.6351"
         x2="426.6351"
         y1="182"
         id="line459" />
      <line
         y2="181.16"
         style="fill:none;"
         x1="433.4127"
         x2="433.4127"
         y1="182"
         id="line461" />
      <line
         y2="181.16"
         style="fill:none;"
         x1="438.6698"
         x2="438.6698"
         y1="182"
         id="line463" />
      <line
         y2="181.16"
         style="fill:none;"
         x1="442.9652"
         x2="442.9652"
         y1="182"
         id="line465" />
      <line
         y2="181.16"
         style="fill:none;"
         x1="446.5969"
         x2="446.5969"
         y1="182"
         id="line467" />
      <line
         y2="181.16"
         style="fill:none;"
         x1="449.7429"
         x2="449.7429"
         y1="182"
         id="line469" />
      <line
         y2="181.16"
         style="fill:none;"
         x1="452.5178"
         x2="452.5178"
         y1="182"
         id="line471" />
      <line
         y2="181.16"
         style="fill:none;"
         x1="455"
         x2="455"
         y1="182"
         id="line473" />
      <line
         y2="16.84"
         style="fill:none;"
         x1="287"
         x2="287"
         y1="16"
         id="line475" />
      <line
         y2="16.84"
         style="fill:none;"
         x1="289.7749"
         x2="289.7749"
         y1="16"
         id="line477" />
      <line
         y2="16.84"
         style="fill:none;"
         x1="292.2571"
         x2="292.2571"
         y1="16"
         id="line479" />
      <line
         y2="16.84"
         style="fill:none;"
         x1="308.5873"
         x2="308.5873"
         y1="16"
         id="line481" />
      <line
         y2="16.84"
         style="fill:none;"
         x1="318.1398"
         x2="318.1398"
         y1="16"
         id="line483" />
      <line
         y2="16.84"
         style="fill:none;"
         x1="324.9174"
         x2="324.9174"
         y1="16"
         id="line485" />
      <line
         y2="16.84"
         style="fill:none;"
         x1="330.1746"
         x2="330.1746"
         y1="16"
         id="line487" />
      <line
         y2="16.84"
         style="fill:none;"
         x1="334.47"
         x2="334.47"
         y1="16"
         id="line489" />
      <line
         y2="16.84"
         style="fill:none;"
         x1="338.1017"
         x2="338.1017"
         y1="16"
         id="line491" />
      <line
         y2="16.84"
         style="fill:none;"
         x1="341.2476"
         x2="341.2476"
         y1="16"
         id="line493" />
      <line
         y2="16.84"
         style="fill:none;"
         x1="344.0225"
         x2="344.0225"
         y1="16"
         id="line495" />
      <line
         y2="16.84"
         style="fill:none;"
         x1="346.5048"
         x2="346.5048"
         y1="16"
         id="line497" />
      <line
         y2="16.84"
         style="fill:none;"
         x1="362.8349"
         x2="362.8349"
         y1="16"
         id="line499" />
      <line
         y2="16.84"
         style="fill:none;"
         x1="372.3875"
         x2="372.3875"
         y1="16"
         id="line501" />
      <line
         y2="16.84"
         style="fill:none;"
         x1="379.1651"
         x2="379.1651"
         y1="16"
         id="line503" />
      <line
         y2="16.84"
         style="fill:none;"
         x1="384.4222"
         x2="384.4222"
         y1="16"
         id="line505" />
      <line
         y2="16.84"
         style="fill:none;"
         x1="388.7176"
         x2="388.7176"
         y1="16"
         id="line507" />
      <line
         y2="16.84"
         style="fill:none;"
         x1="392.3493"
         x2="392.3493"
         y1="16"
         id="line509" />
      <line
         y2="16.84"
         style="fill:none;"
         x1="395.4952"
         x2="395.4952"
         y1="16"
         id="line511" />
      <line
         y2="16.84"
         style="fill:none;"
         x1="398.2701"
         x2="398.2701"
         y1="16"
         id="line513" />
      <line
         y2="16.84"
         style="fill:none;"
         x1="400.7524"
         x2="400.7524"
         y1="16"
         id="line515" />
      <line
         y2="16.84"
         style="fill:none;"
         x1="417.0826"
         x2="417.0826"
         y1="16"
         id="line517" />
      <line
         y2="16.84"
         style="fill:none;"
         x1="426.6351"
         x2="426.6351"
         y1="16"
         id="line519" />
      <line
         y2="16.84"
         style="fill:none;"
         x1="433.4127"
         x2="433.4127"
         y1="16"
         id="line521" />
      <line
         y2="16.84"
         style="fill:none;"
         x1="438.6698"
         x2="438.6698"
         y1="16"
         id="line523" />
      <line
         y2="16.84"
         style="fill:none;"
         x1="442.9652"
         x2="442.9652"
         y1="16"
         id="line525" />
      <line
         y2="16.84"
         style="fill:none;"
         x1="446.5969"
         x2="446.5969"
         y1="16"
         id="line527" />
      <line
         y2="16.84"
         style="fill:none;"
         x1="449.7429"
         x2="449.7429"
         y1="16"
         id="line529" />
      <line
         y2="16.84"
         style="fill:none;"
         x1="452.5178"
         x2="452.5178"
         y1="16"
         id="line531" />
      <line
         y2="16.84"
         style="fill:none;"
         x1="455"
         x2="455"
         y1="16"
         id="line533" />
    </g>
    <g
       transform="translate(282,200)"
       style="fill:rgb(38,38,38); text-rendering:geometricPrecision; color-rendering:optimizeQuality; image-rendering:optimizeQuality; font-family:'Myriad Pro'; color-interpolation:linearRGB; stroke:rgb(38,38,38);"
       id="g535">
      <path
         style="stroke:none;"
         d="M2.832 0 L3.852 0 L3.852 -7.8 L2.952 -7.8 L1.248 -6.888 L1.452 -6.084 L2.808 -6.816 L2.832 -6.816 ZM9.3 -7.932 C7.716 -7.932 6.588 -6.492 6.588 -3.876 C6.612 -1.296 7.644 0.132 9.168 0.132 C10.896 0.132 11.88 -1.332 11.88 -3.984 C11.88 -6.468 10.944 -7.932 9.3 -7.932 ZM9.24 -7.116 C10.332 -7.116 10.824 -5.856 10.824 -3.936 C10.824 -1.944 10.308 -0.684 9.228 -0.684 C8.268 -0.684 7.644 -1.836 7.644 -3.864 C7.644 -5.988 8.316 -7.116 9.24 -7.116 Z"
         id="path537" />
    </g>
    <g
       transform="translate(295,194)"
       style="font-size:10px; fill:rgb(38,38,38); text-rendering:geometricPrecision; color-rendering:optimizeQuality; image-rendering:optimizeQuality; font-family:'Myriad Pro'; color-interpolation:linearRGB; stroke:rgb(38,38,38);"
       id="g539">
      <path
         style="stroke:none;"
         d="M2.62 -6.61 C1.3 -6.61 0.36 -5.41 0.36 -3.23 C0.38 -1.08 1.24 0.11 2.51 0.11 C3.95 0.11 4.77 -1.11 4.77 -3.32 C4.77 -5.39 3.99 -6.61 2.62 -6.61 ZM2.57 -5.93 C3.48 -5.93 3.89 -4.88 3.89 -3.28 C3.89 -1.62 3.46 -0.57 2.56 -0.57 C1.76 -0.57 1.24 -1.53 1.24 -3.22 C1.24 -4.99 1.8 -5.93 2.57 -5.93 Z"
         id="path541" />
    </g>
    <g
       transform="translate(337,200)"
       style="fill:rgb(38,38,38); text-rendering:geometricPrecision; color-rendering:optimizeQuality; image-rendering:optimizeQuality; font-family:'Myriad Pro'; color-interpolation:linearRGB; stroke:rgb(38,38,38);"
       id="g543">
      <path
         style="stroke:none;"
         d="M2.832 0 L3.852 0 L3.852 -7.8 L2.952 -7.8 L1.248 -6.888 L1.452 -6.084 L2.808 -6.816 L2.832 -6.816 ZM9.3 -7.932 C7.716 -7.932 6.588 -6.492 6.588 -3.876 C6.612 -1.296 7.644 0.132 9.168 0.132 C10.896 0.132 11.88 -1.332 11.88 -3.984 C11.88 -6.468 10.944 -7.932 9.3 -7.932 ZM9.24 -7.116 C10.332 -7.116 10.824 -5.856 10.824 -3.936 C10.824 -1.944 10.308 -0.684 9.228 -0.684 C8.268 -0.684 7.644 -1.836 7.644 -3.864 C7.644 -5.988 8.316 -7.116 9.24 -7.116 Z"
         id="path545" />
    </g>
    <g
       transform="translate(350,194)"
       style="font-size:10px; fill:rgb(38,38,38); text-rendering:geometricPrecision; color-rendering:optimizeQuality; image-rendering:optimizeQuality; font-family:'Myriad Pro'; color-interpolation:linearRGB; stroke:rgb(38,38,38);"
       id="g547">
      <path
         style="stroke:none;"
         d="M2.36 0 L3.21 0 L3.21 -6.5 L2.46 -6.5 L1.04 -5.74 L1.21 -5.07 L2.34 -5.68 L2.36 -5.68 Z"
         id="path549" />
    </g>
    <g
       transform="translate(391,200)"
       style="fill:rgb(38,38,38); text-rendering:geometricPrecision; color-rendering:optimizeQuality; image-rendering:optimizeQuality; font-family:'Myriad Pro'; color-interpolation:linearRGB; stroke:rgb(38,38,38);"
       id="g551">
      <path
         style="stroke:none;"
         d="M2.832 0 L3.852 0 L3.852 -7.8 L2.952 -7.8 L1.248 -6.888 L1.452 -6.084 L2.808 -6.816 L2.832 -6.816 ZM9.3 -7.932 C7.716 -7.932 6.588 -6.492 6.588 -3.876 C6.612 -1.296 7.644 0.132 9.168 0.132 C10.896 0.132 11.88 -1.332 11.88 -3.984 C11.88 -6.468 10.944 -7.932 9.3 -7.932 ZM9.24 -7.116 C10.332 -7.116 10.824 -5.856 10.824 -3.936 C10.824 -1.944 10.308 -0.684 9.228 -0.684 C8.268 -0.684 7.644 -1.836 7.644 -3.864 C7.644 -5.988 8.316 -7.116 9.24 -7.116 Z"
         id="path553" />
    </g>
    <g
       transform="translate(404,194)"
       style="font-size:10px; fill:rgb(38,38,38); text-rendering:geometricPrecision; color-rendering:optimizeQuality; image-rendering:optimizeQuality; font-family:'Myriad Pro'; color-interpolation:linearRGB; stroke:rgb(38,38,38);"
       id="g555">
      <path
         style="stroke:none;"
         d="M4.6 0 L4.6 -0.73 L1.68 -0.73 L1.68 -0.75 L2.2 -1.23 C3.57 -2.55 4.44 -3.52 4.44 -4.72 C4.44 -5.65 3.85 -6.61 2.45 -6.61 C1.7 -6.61 1.06 -6.33 0.61 -5.95 L0.89 -5.33 C1.19 -5.58 1.68 -5.88 2.27 -5.88 C3.24 -5.88 3.56 -5.27 3.56 -4.61 C3.55 -3.63 2.8 -2.79 1.14 -1.21 L0.45 -0.54 L0.45 0 Z"
         id="path557" />
    </g>
    <g
       transform="translate(445,200)"
       style="fill:rgb(38,38,38); text-rendering:geometricPrecision; color-rendering:optimizeQuality; image-rendering:optimizeQuality; font-family:'Myriad Pro'; color-interpolation:linearRGB; stroke:rgb(38,38,38);"
       id="g559">
      <path
         style="stroke:none;"
         d="M2.832 0 L3.852 0 L3.852 -7.8 L2.952 -7.8 L1.248 -6.888 L1.452 -6.084 L2.808 -6.816 L2.832 -6.816 ZM9.3 -7.932 C7.716 -7.932 6.588 -6.492 6.588 -3.876 C6.612 -1.296 7.644 0.132 9.168 0.132 C10.896 0.132 11.88 -1.332 11.88 -3.984 C11.88 -6.468 10.944 -7.932 9.3 -7.932 ZM9.24 -7.116 C10.332 -7.116 10.824 -5.856 10.824 -3.936 C10.824 -1.944 10.308 -0.684 9.228 -0.684 C8.268 -0.684 7.644 -1.836 7.644 -3.864 C7.644 -5.988 8.316 -7.116 9.24 -7.116 Z"
         id="path561" />
    </g>
    <g
       transform="translate(458,194)"
       style="font-size:10px; fill:rgb(38,38,38); text-rendering:geometricPrecision; color-rendering:optimizeQuality; image-rendering:optimizeQuality; font-family:'Myriad Pro'; color-interpolation:linearRGB; stroke:rgb(38,38,38);"
       id="g563">
      <path
         style="stroke:none;"
         d="M0.42 -0.33 C0.74 -0.12 1.38 0.11 2.11 0.11 C3.67 0.11 4.48 -0.8 4.48 -1.84 C4.48 -2.75 3.83 -3.35 3.03 -3.51 L3.03 -3.53 C3.83 -3.82 4.23 -4.39 4.23 -5.06 C4.23 -5.85 3.65 -6.61 2.37 -6.61 C1.67 -6.61 1.01 -6.36 0.67 -6.11 L0.9 -5.47 C1.18 -5.67 1.68 -5.9 2.2 -5.9 C3.01 -5.9 3.34 -5.44 3.34 -4.92 C3.34 -4.15 2.53 -3.82 1.89 -3.82 L1.4 -3.82 L1.4 -3.16 L1.89 -3.16 C2.74 -3.16 3.56 -2.77 3.57 -1.86 C3.58 -1.32 3.23 -0.6 2.1 -0.6 C1.49 -0.6 0.91 -0.85 0.66 -1.01 Z"
         id="path565" />
    </g>
    <g
       transform="translate(371.0001,204.4)"
       style="fill:rgb(38,38,38); text-rendering:geometricPrecision; color-rendering:optimizeQuality; image-rendering:optimizeQuality; font-family:'Myriad Pro'; color-interpolation:linearRGB; stroke:rgb(38,38,38);"
       id="g567">
      <path
         style="stroke:none;"
         d="M-32.664 3.06 C-34.272 3.06 -35.544 4.2 -35.544 6.144 C-35.544 7.98 -34.332 9.132 -32.76 9.132 C-31.356 9.132 -29.868 8.196 -29.868 6.048 C-29.868 4.272 -30.996 3.06 -32.664 3.06 ZM-32.688 3.852 C-31.44 3.852 -30.948 5.1 -30.948 6.084 C-30.948 7.392 -31.704 8.34 -32.712 8.34 C-33.744 8.34 -34.476 7.38 -34.476 6.108 C-34.476 5.004 -33.936 3.852 -32.688 3.852 ZM-28.536 7.5 C-28.536 8.016 -28.56 8.604 -28.584 9 L-27.672 9 L-27.624 8.04 L-27.588 8.04 C-27.156 8.808 -26.484 9.132 -25.644 9.132 C-24.348 9.132 -23.04 8.1 -23.04 6.024 C-23.028 4.26 -24.048 3.06 -25.488 3.06 C-26.424 3.06 -27.096 3.48 -27.468 4.128 L-27.492 4.128 L-27.492 0.48 L-28.536 0.48 ZM-27.492 5.628 C-27.492 5.46 -27.456 5.316 -27.432 5.196 C-27.216 4.392 -26.544 3.9 -25.824 3.9 C-24.696 3.9 -24.096 4.896 -24.096 6.06 C-24.096 7.392 -24.756 8.292 -25.86 8.292 C-26.628 8.292 -27.24 7.788 -27.444 7.056 C-27.468 6.936 -27.492 6.804 -27.492 6.672 ZM-22.116 8.724 C-21.708 8.964 -21.12 9.132 -20.484 9.132 C-19.104 9.132 -18.312 8.4 -18.312 7.38 C-18.312 6.516 -18.828 6.012 -19.836 5.628 C-20.592 5.34 -20.94 5.124 -20.94 4.644 C-20.94 4.212 -20.592 3.852 -19.968 3.852 C-19.428 3.852 -19.008 4.044 -18.78 4.188 L-18.516 3.42 C-18.84 3.228 -19.356 3.06 -19.944 3.06 C-21.192 3.06 -21.948 3.828 -21.948 4.764 C-21.948 5.46 -21.456 6.036 -20.412 6.408 C-19.632 6.696 -19.332 6.972 -19.332 7.476 C-19.332 7.956 -19.692 8.34 -20.46 8.34 C-20.988 8.34 -21.54 8.124 -21.852 7.92 ZM-12.288 6.288 C-12.276 6.18 -12.252 6.012 -12.252 5.796 C-12.252 4.728 -12.756 3.06 -14.652 3.06 C-16.344 3.06 -17.376 4.44 -17.376 6.192 C-17.376 7.944 -16.308 9.132 -14.52 9.132 C-13.596 9.132 -12.96 8.928 -12.588 8.76 L-12.768 8.004 C-13.164 8.172 -13.62 8.304 -14.376 8.304 C-15.432 8.304 -16.344 7.716 -16.368 6.288 ZM-16.356 5.532 C-16.272 4.8 -15.804 3.816 -14.736 3.816 C-13.548 3.816 -13.26 4.86 -13.272 5.532 ZM-10.944 9 L-9.9 9 L-9.9 5.904 C-9.9 5.724 -9.876 5.556 -9.852 5.412 C-9.708 4.62 -9.18 4.056 -8.436 4.056 C-8.292 4.056 -8.184 4.068 -8.076 4.092 L-8.076 3.096 C-8.172 3.072 -8.256 3.06 -8.376 3.06 C-9.084 3.06 -9.72 3.552 -9.984 4.332 L-10.032 4.332 L-10.068 3.192 L-10.992 3.192 C-10.956 3.732 -10.944 4.32 -10.944 5.004 ZM-7.74 3.192 L-5.532 9 L-4.524 9 L-2.244 3.192 L-3.348 3.192 L-4.476 6.456 C-4.668 6.984 -4.836 7.464 -4.968 7.944 L-5.004 7.944 C-5.124 7.464 -5.28 6.984 -5.472 6.456 L-6.612 3.192 ZM3.42 6.288 C3.432 6.18 3.456 6.012 3.456 5.796 C3.456 4.728 2.952 3.06 1.056 3.06 C-0.636 3.06 -1.668 4.44 -1.668 6.192 C-1.668 7.944 -0.6 9.132 1.188 9.132 C2.112 9.132 2.748 8.928 3.12 8.76 L2.94 8.004 C2.544 8.172 2.088 8.304 1.332 8.304 C0.276 8.304 -0.636 7.716 -0.66 6.288 ZM-0.648 5.532 C-0.564 4.8 -0.096 3.816 0.972 3.816 C2.16 3.816 2.448 4.86 2.436 5.532 ZM8.724 0.48 L8.724 3.948 L8.7 3.948 C8.436 3.48 7.836 3.06 6.948 3.06 C5.532 3.06 4.332 4.248 4.344 6.18 C4.344 7.944 5.424 9.132 6.828 9.132 C7.776 9.132 8.484 8.64 8.808 7.992 L8.832 7.992 L8.88 9 L9.828 9 C9.792 8.604 9.78 8.016 9.78 7.5 L9.78 0.48 ZM8.724 6.564 C8.724 6.732 8.712 6.876 8.676 7.02 C8.484 7.812 7.836 8.28 7.128 8.28 C5.988 8.28 5.412 7.308 5.412 6.132 C5.412 4.848 6.06 3.888 7.152 3.888 C7.944 3.888 8.52 4.44 8.676 5.112 C8.712 5.244 8.724 5.424 8.724 5.556 ZM14.076 9 L15.12 9 L15.12 5.904 C15.12 5.724 15.144 5.556 15.168 5.412 C15.312 4.62 15.84 4.056 16.584 4.056 C16.728 4.056 16.836 4.068 16.944 4.092 L16.944 3.096 C16.848 3.072 16.764 3.06 16.644 3.06 C15.936 3.06 15.3 3.552 15.036 4.332 L14.988 4.332 L14.952 3.192 L14.028 3.192 C14.064 3.732 14.076 4.32 14.076 5.004 ZM22.08 5.436 C22.08 4.272 21.648 3.06 19.872 3.06 C19.14 3.06 18.444 3.264 17.964 3.576 L18.204 4.272 C18.612 4.008 19.176 3.84 19.716 3.84 C20.904 3.84 21.036 4.704 21.036 5.184 L21.036 5.304 C18.792 5.292 17.544 6.06 17.544 7.464 C17.544 8.304 18.144 9.132 19.32 9.132 C20.148 9.132 20.772 8.724 21.096 8.268 L21.132 8.268 L21.216 9 L22.176 9 C22.104 8.604 22.08 8.112 22.08 7.608 ZM21.06 7.044 C21.06 7.152 21.036 7.272 21 7.38 C20.832 7.872 20.352 8.352 19.596 8.352 C19.056 8.352 18.6 8.028 18.6 7.344 C18.6 6.216 19.908 6.012 21.06 6.036 ZM23.784 9 L24.84 9 L24.84 5.508 C24.84 5.328 24.864 5.148 24.912 5.016 C25.092 4.428 25.632 3.936 26.328 3.936 C27.324 3.936 27.672 4.716 27.672 5.652 L27.672 9 L28.728 9 L28.728 5.532 C28.728 3.54 27.48 3.06 26.676 3.06 C25.716 3.06 25.044 3.6 24.756 4.152 L24.732 4.152 L24.672 3.192 L23.736 3.192 C23.772 3.672 23.784 4.164 23.784 4.764 ZM31.488 0.48 L30.444 0.48 L30.444 9 L31.488 9 L31.488 6.816 L32.028 6.216 L34.032 9 L35.316 9 L32.76 5.58 L35.004 3.192 L33.732 3.192 L32.028 5.196 C31.86 5.4 31.656 5.652 31.512 5.856 L31.488 5.856 Z"
         id="path569" />
    </g>
    <g
       style="fill:rgb(38,38,38); text-rendering:geometricPrecision; color-rendering:optimizeQuality; image-rendering:optimizeQuality; stroke-linejoin:round; color-interpolation:linearRGB; stroke:rgb(38,38,38); stroke-width:0.5;"
       id="g571">
      <line
         y2="16"
         style="fill:none;"
         x1="287"
         x2="287"
         y1="182"
         id="line573" />
      <line
         y2="16"
         style="fill:none;"
         x1="455"
         x2="455"
         y1="182"
         id="line575" />
      <line
         y2="174.3282"
         style="fill:none;"
         x1="287"
         x2="288.68"
         y1="174.3282"
         id="line577" />
      <line
         y2="95.1641"
         style="fill:none;"
         x1="287"
         x2="288.68"
         y1="95.1641"
         id="line579" />
      <line
         y2="16"
         style="fill:none;"
         x1="287"
         x2="288.68"
         y1="16"
         id="line581" />
      <line
         y2="174.3282"
         style="fill:none;"
         x1="455"
         x2="453.32"
         y1="174.3282"
         id="line583" />
      <line
         y2="95.1641"
         style="fill:none;"
         x1="455"
         x2="453.32"
         y1="95.1641"
         id="line585" />
      <line
         y2="16"
         style="fill:none;"
         x1="455"
         x2="453.32"
         y1="16"
         id="line587" />
      <line
         y2="182"
         style="fill:none;"
         x1="287"
         x2="287.84"
         y1="182"
         id="line589" />
      <line
         y2="177.9506"
         style="fill:none;"
         x1="287"
         x2="287.84"
         y1="177.9506"
         id="line591" />
      <line
         y2="174.3282"
         style="fill:none;"
         x1="287"
         x2="287.84"
         y1="174.3282"
         id="line593" />
      <line
         y2="150.4974"
         style="fill:none;"
         x1="287"
         x2="287.84"
         y1="150.4974"
         id="line595" />
      <line
         y2="136.5573"
         style="fill:none;"
         x1="287"
         x2="287.84"
         y1="136.5573"
         id="line597" />
      <line
         y2="126.6667"
         style="fill:none;"
         x1="287"
         x2="287.84"
         y1="126.6667"
         id="line599" />
      <line
         y2="118.9949"
         style="fill:none;"
         x1="287"
         x2="287.84"
         y1="118.9949"
         id="line601" />
      <line
         y2="112.7266"
         style="fill:none;"
         x1="287"
         x2="287.84"
         y1="112.7266"
         id="line603" />
      <line
         y2="107.4268"
         style="fill:none;"
         x1="287"
         x2="287.84"
         y1="107.4268"
         id="line605" />
      <line
         y2="102.8359"
         style="fill:none;"
         x1="287"
         x2="287.84"
         y1="102.8359"
         id="line607" />
      <line
         y2="98.7865"
         style="fill:none;"
         x1="287"
         x2="287.84"
         y1="98.7865"
         id="line609" />
      <line
         y2="95.1641"
         style="fill:none;"
         x1="287"
         x2="287.84"
         y1="95.1641"
         id="line611" />
      <line
         y2="71.3333"
         style="fill:none;"
         x1="287"
         x2="287.84"
         y1="71.3333"
         id="line613" />
      <line
         y2="57.3932"
         style="fill:none;"
         x1="287"
         x2="287.84"
         y1="57.3932"
         id="line615" />
      <line
         y2="47.5026"
         style="fill:none;"
         x1="287"
         x2="287.84"
         y1="47.5026"
         id="line617" />
      <line
         y2="39.8308"
         style="fill:none;"
         x1="287"
         x2="287.84"
         y1="39.8308"
         id="line619" />
      <line
         y2="33.5625"
         style="fill:none;"
         x1="287"
         x2="287.84"
         y1="33.5625"
         id="line621" />
      <line
         y2="28.2627"
         style="fill:none;"
         x1="287"
         x2="287.84"
         y1="28.2627"
         id="line623" />
      <line
         y2="23.6718"
         style="fill:none;"
         x1="287"
         x2="287.84"
         y1="23.6718"
         id="line625" />
      <line
         y2="19.6223"
         style="fill:none;"
         x1="287"
         x2="287.84"
         y1="19.6223"
         id="line627" />
      <line
         y2="16"
         style="fill:none;"
         x1="287"
         x2="287.84"
         y1="16"
         id="line629" />
      <line
         y2="182"
         style="fill:none;"
         x1="455"
         x2="454.16"
         y1="182"
         id="line631" />
      <line
         y2="177.9506"
         style="fill:none;"
         x1="455"
         x2="454.16"
         y1="177.9506"
         id="line633" />
      <line
         y2="174.3282"
         style="fill:none;"
         x1="455"
         x2="454.16"
         y1="174.3282"
         id="line635" />
      <line
         y2="150.4974"
         style="fill:none;"
         x1="455"
         x2="454.16"
         y1="150.4974"
         id="line637" />
      <line
         y2="136.5573"
         style="fill:none;"
         x1="455"
         x2="454.16"
         y1="136.5573"
         id="line639" />
      <line
         y2="126.6667"
         style="fill:none;"
         x1="455"
         x2="454.16"
         y1="126.6667"
         id="line641" />
      <line
         y2="118.9949"
         style="fill:none;"
         x1="455"
         x2="454.16"
         y1="118.9949"
         id="line643" />
      <line
         y2="112.7266"
         style="fill:none;"
         x1="455"
         x2="454.16"
         y1="112.7266"
         id="line645" />
      <line
         y2="107.4268"
         style="fill:none;"
         x1="455"
         x2="454.16"
         y1="107.4268"
         id="line647" />
      <line
         y2="102.8359"
         style="fill:none;"
         x1="455"
         x2="454.16"
         y1="102.8359"
         id="line649" />
      <line
         y2="98.7865"
         style="fill:none;"
         x1="455"
         x2="454.16"
         y1="98.7865"
         id="line651" />
      <line
         y2="95.1641"
         style="fill:none;"
         x1="455"
         x2="454.16"
         y1="95.1641"
         id="line653" />
      <line
         y2="71.3333"
         style="fill:none;"
         x1="455"
         x2="454.16"
         y1="71.3333"
         id="line655" />
      <line
         y2="57.3932"
         style="fill:none;"
         x1="455"
         x2="454.16"
         y1="57.3932"
         id="line657" />
      <line
         y2="47.5026"
         style="fill:none;"
         x1="455"
         x2="454.16"
         y1="47.5026"
         id="line659" />
      <line
         y2="39.8308"
         style="fill:none;"
         x1="455"
         x2="454.16"
         y1="39.8308"
         id="line661" />
      <line
         y2="33.5625"
         style="fill:none;"
         x1="455"
         x2="454.16"
         y1="33.5625"
         id="line663" />
      <line
         y2="28.2627"
         style="fill:none;"
         x1="455"
         x2="454.16"
         y1="28.2627"
         id="line665" />
      <line
         y2="23.6718"
         style="fill:none;"
         x1="455"
         x2="454.16"
         y1="23.6718"
         id="line667" />
      <line
         y2="19.6223"
         style="fill:none;"
         x1="455"
         x2="454.16"
         y1="19.6223"
         id="line669" />
      <line
         y2="16"
         style="fill:none;"
         x1="455"
         x2="454.16"
         y1="16"
         id="line671" />
    </g>
    <g
       transform="translate(264,180)"
       style="fill:rgb(38,38,38); text-rendering:geometricPrecision; color-rendering:optimizeQuality; image-rendering:optimizeQuality; font-family:'Myriad Pro'; color-interpolation:linearRGB; stroke:rgb(38,38,38);"
       id="g673">
      <path
         style="stroke:none;"
         d="M2.832 0 L3.852 0 L3.852 -7.8 L2.952 -7.8 L1.248 -6.888 L1.452 -6.084 L2.808 -6.816 L2.832 -6.816 ZM9.3 -7.932 C7.716 -7.932 6.588 -6.492 6.588 -3.876 C6.612 -1.296 7.644 0.132 9.168 0.132 C10.896 0.132 11.88 -1.332 11.88 -3.984 C11.88 -6.468 10.944 -7.932 9.3 -7.932 ZM9.24 -7.116 C10.332 -7.116 10.824 -5.856 10.824 -3.936 C10.824 -1.944 10.308 -0.684 9.228 -0.684 C8.268 -0.684 7.644 -1.836 7.644 -3.864 C7.644 -5.988 8.316 -7.116 9.24 -7.116 Z"
         id="path675" />
    </g>
    <g
       transform="translate(277,174)"
       style="font-size:10px; fill:rgb(38,38,38); text-rendering:geometricPrecision; color-rendering:optimizeQuality; image-rendering:optimizeQuality; font-family:'Myriad Pro'; color-interpolation:linearRGB; stroke:rgb(38,38,38);"
       id="g677">
      <path
         style="stroke:none;"
         d="M2.62 -6.61 C1.3 -6.61 0.36 -5.41 0.36 -3.23 C0.38 -1.08 1.24 0.11 2.51 0.11 C3.95 0.11 4.77 -1.11 4.77 -3.32 C4.77 -5.39 3.99 -6.61 2.62 -6.61 ZM2.57 -5.93 C3.48 -5.93 3.89 -4.88 3.89 -3.28 C3.89 -1.62 3.46 -0.57 2.56 -0.57 C1.76 -0.57 1.24 -1.53 1.24 -3.22 C1.24 -4.99 1.8 -5.93 2.57 -5.93 Z"
         id="path679" />
    </g>
    <g
       transform="translate(264,101)"
       style="fill:rgb(38,38,38); text-rendering:geometricPrecision; color-rendering:optimizeQuality; image-rendering:optimizeQuality; font-family:'Myriad Pro'; color-interpolation:linearRGB; stroke:rgb(38,38,38);"
       id="g681">
      <path
         style="stroke:none;"
         d="M2.832 0 L3.852 0 L3.852 -7.8 L2.952 -7.8 L1.248 -6.888 L1.452 -6.084 L2.808 -6.816 L2.832 -6.816 ZM9.3 -7.932 C7.716 -7.932 6.588 -6.492 6.588 -3.876 C6.612 -1.296 7.644 0.132 9.168 0.132 C10.896 0.132 11.88 -1.332 11.88 -3.984 C11.88 -6.468 10.944 -7.932 9.3 -7.932 ZM9.24 -7.116 C10.332 -7.116 10.824 -5.856 10.824 -3.936 C10.824 -1.944 10.308 -0.684 9.228 -0.684 C8.268 -0.684 7.644 -1.836 7.644 -3.864 C7.644 -5.988 8.316 -7.116 9.24 -7.116 Z"
         id="path683" />
    </g>
    <g
       transform="translate(277,95)"
       style="font-size:10px; fill:rgb(38,38,38); text-rendering:geometricPrecision; color-rendering:optimizeQuality; image-rendering:optimizeQuality; font-family:'Myriad Pro'; color-interpolation:linearRGB; stroke:rgb(38,38,38);"
       id="g685">
      <path
         style="stroke:none;"
         d="M2.36 0 L3.21 0 L3.21 -6.5 L2.46 -6.5 L1.04 -5.74 L1.21 -5.07 L2.34 -5.68 L2.36 -5.68 Z"
         id="path687" />
    </g>
    <g
       transform="translate(264,22)"
       style="fill:rgb(38,38,38); text-rendering:geometricPrecision; color-rendering:optimizeQuality; image-rendering:optimizeQuality; font-family:'Myriad Pro'; color-interpolation:linearRGB; stroke:rgb(38,38,38);"
       id="g689">
      <path
         style="stroke:none;"
         d="M2.832 0 L3.852 0 L3.852 -7.8 L2.952 -7.8 L1.248 -6.888 L1.452 -6.084 L2.808 -6.816 L2.832 -6.816 ZM9.3 -7.932 C7.716 -7.932 6.588 -6.492 6.588 -3.876 C6.612 -1.296 7.644 0.132 9.168 0.132 C10.896 0.132 11.88 -1.332 11.88 -3.984 C11.88 -6.468 10.944 -7.932 9.3 -7.932 ZM9.24 -7.116 C10.332 -7.116 10.824 -5.856 10.824 -3.936 C10.824 -1.944 10.308 -0.684 9.228 -0.684 C8.268 -0.684 7.644 -1.836 7.644 -3.864 C7.644 -5.988 8.316 -7.116 9.24 -7.116 Z"
         id="path691" />
    </g>
    <g
       transform="translate(277,16)"
       style="font-size:10px; fill:rgb(38,38,38); text-rendering:geometricPrecision; color-rendering:optimizeQuality; image-rendering:optimizeQuality; font-family:'Myriad Pro'; color-interpolation:linearRGB; stroke:rgb(38,38,38);"
       id="g693">
      <path
         style="stroke:none;"
         d="M4.6 0 L4.6 -0.73 L1.68 -0.73 L1.68 -0.75 L2.2 -1.23 C3.57 -2.55 4.44 -3.52 4.44 -4.72 C4.44 -5.65 3.85 -6.61 2.45 -6.61 C1.7 -6.61 1.06 -6.33 0.61 -5.95 L0.89 -5.33 C1.19 -5.58 1.68 -5.88 2.27 -5.88 C3.24 -5.88 3.56 -5.27 3.56 -4.61 C3.55 -3.63 2.8 -2.79 1.14 -1.21 L0.45 -0.54 L0.45 0 Z"
         id="path695" />
    </g>
    <g
       transform="translate(260.6,98.9999) rotate(-90)"
       style="fill:rgb(38,38,38); text-rendering:geometricPrecision; color-rendering:optimizeQuality; image-rendering:optimizeQuality; font-family:'Myriad Pro'; color-interpolation:linearRGB; stroke:rgb(38,38,38);"
       id="g697">
      <path
         style="stroke:none;"
         d="M-49.664 -8.94 C-51.272 -8.94 -52.544 -7.8 -52.544 -5.856 C-52.544 -4.02 -51.332 -2.868 -49.76 -2.868 C-48.356 -2.868 -46.868 -3.804 -46.868 -5.952 C-46.868 -7.728 -47.996 -8.94 -49.664 -8.94 ZM-49.688 -8.148 C-48.44 -8.148 -47.948 -6.9 -47.948 -5.916 C-47.948 -4.608 -48.704 -3.66 -49.712 -3.66 C-50.744 -3.66 -51.476 -4.62 -51.476 -5.892 C-51.476 -6.996 -50.936 -8.148 -49.688 -8.148 ZM-45.536 -4.5 C-45.536 -3.984 -45.56 -3.396 -45.584 -3 L-44.672 -3 L-44.624 -3.96 L-44.588 -3.96 C-44.156 -3.192 -43.484 -2.868 -42.644 -2.868 C-41.348 -2.868 -40.04 -3.9 -40.04 -5.976 C-40.028 -7.74 -41.048 -8.94 -42.488 -8.94 C-43.424 -8.94 -44.096 -8.52 -44.468 -7.872 L-44.492 -7.872 L-44.492 -11.52 L-45.536 -11.52 ZM-44.492 -6.372 C-44.492 -6.54 -44.456 -6.684 -44.432 -6.804 C-44.216 -7.608 -43.544 -8.1 -42.824 -8.1 C-41.696 -8.1 -41.096 -7.104 -41.096 -5.94 C-41.096 -4.608 -41.756 -3.708 -42.86 -3.708 C-43.628 -3.708 -44.24 -4.212 -44.444 -4.944 C-44.468 -5.064 -44.492 -5.196 -44.492 -5.328 ZM-39.116 -3.276 C-38.708 -3.036 -38.12 -2.868 -37.484 -2.868 C-36.104 -2.868 -35.312 -3.6 -35.312 -4.62 C-35.312 -5.484 -35.828 -5.988 -36.836 -6.372 C-37.592 -6.66 -37.94 -6.876 -37.94 -7.356 C-37.94 -7.788 -37.592 -8.148 -36.968 -8.148 C-36.428 -8.148 -36.008 -7.956 -35.78 -7.812 L-35.516 -8.58 C-35.84 -8.772 -36.356 -8.94 -36.944 -8.94 C-38.192 -8.94 -38.948 -8.172 -38.948 -7.236 C-38.948 -6.54 -38.456 -5.964 -37.412 -5.592 C-36.632 -5.304 -36.332 -5.028 -36.332 -4.524 C-36.332 -4.044 -36.692 -3.66 -37.46 -3.66 C-37.988 -3.66 -38.54 -3.876 -38.852 -4.08 ZM-29.288 -5.712 C-29.276 -5.82 -29.252 -5.988 -29.252 -6.204 C-29.252 -7.272 -29.756 -8.94 -31.652 -8.94 C-33.344 -8.94 -34.376 -7.56 -34.376 -5.808 C-34.376 -4.056 -33.308 -2.868 -31.52 -2.868 C-30.596 -2.868 -29.96 -3.072 -29.588 -3.24 L-29.768 -3.996 C-30.164 -3.828 -30.62 -3.696 -31.376 -3.696 C-32.432 -3.696 -33.344 -4.284 -33.368 -5.712 ZM-33.356 -6.468 C-33.272 -7.2 -32.804 -8.184 -31.736 -8.184 C-30.548 -8.184 -30.26 -7.14 -30.272 -6.468 ZM-27.944 -3 L-26.9 -3 L-26.9 -6.096 C-26.9 -6.276 -26.876 -6.444 -26.852 -6.588 C-26.708 -7.38 -26.18 -7.944 -25.436 -7.944 C-25.292 -7.944 -25.184 -7.932 -25.076 -7.908 L-25.076 -8.904 C-25.172 -8.928 -25.256 -8.94 -25.376 -8.94 C-26.084 -8.94 -26.72 -8.448 -26.984 -7.668 L-27.032 -7.668 L-27.068 -8.808 L-27.992 -8.808 C-27.956 -8.268 -27.944 -7.68 -27.944 -6.996 ZM-24.74 -8.808 L-22.532 -3 L-21.524 -3 L-19.244 -8.808 L-20.348 -8.808 L-21.476 -5.544 C-21.668 -5.016 -21.836 -4.536 -21.968 -4.056 L-22.004 -4.056 C-22.124 -4.536 -22.28 -5.016 -22.472 -5.544 L-23.612 -8.808 ZM-13.58 -5.712 C-13.568 -5.82 -13.544 -5.988 -13.544 -6.204 C-13.544 -7.272 -14.048 -8.94 -15.944 -8.94 C-17.636 -8.94 -18.668 -7.56 -18.668 -5.808 C-18.668 -4.056 -17.6 -2.868 -15.812 -2.868 C-14.888 -2.868 -14.252 -3.072 -13.88 -3.24 L-14.06 -3.996 C-14.456 -3.828 -14.912 -3.696 -15.668 -3.696 C-16.724 -3.696 -17.636 -4.284 -17.66 -5.712 ZM-17.648 -6.468 C-17.564 -7.2 -17.096 -8.184 -16.028 -8.184 C-14.84 -8.184 -14.552 -7.14 -14.564 -6.468 ZM-8.276 -11.52 L-8.276 -8.052 L-8.3 -8.052 C-8.564 -8.52 -9.164 -8.94 -10.052 -8.94 C-11.468 -8.94 -12.668 -7.752 -12.656 -5.82 C-12.656 -4.056 -11.576 -2.868 -10.172 -2.868 C-9.224 -2.868 -8.516 -3.36 -8.192 -4.008 L-8.168 -4.008 L-8.12 -3 L-7.172 -3 C-7.208 -3.396 -7.22 -3.984 -7.22 -4.5 L-7.22 -11.52 ZM-8.276 -5.436 C-8.276 -5.268 -8.288 -5.124 -8.324 -4.98 C-8.516 -4.188 -9.164 -3.72 -9.872 -3.72 C-11.012 -3.72 -11.588 -4.692 -11.588 -5.868 C-11.588 -7.152 -10.94 -8.112 -9.848 -8.112 C-9.056 -8.112 -8.48 -7.56 -8.324 -6.888 C-8.288 -6.756 -8.276 -6.576 -8.276 -6.444 ZM1.156 -6.564 C1.156 -7.728 0.724 -8.94 -1.052 -8.94 C-1.784 -8.94 -2.48 -8.736 -2.96 -8.424 L-2.72 -7.728 C-2.312 -7.992 -1.748 -8.16 -1.208 -8.16 C-0.02 -8.16 0.112 -7.296 0.112 -6.816 L0.112 -6.696 C-2.132 -6.708 -3.38 -5.94 -3.38 -4.536 C-3.38 -3.696 -2.78 -2.868 -1.604 -2.868 C-0.776 -2.868 -0.152 -3.276 0.172 -3.732 L0.208 -3.732 L0.292 -3 L1.252 -3 C1.18 -3.396 1.156 -3.888 1.156 -4.392 ZM0.136 -4.956 C0.136 -4.848 0.112 -4.728 0.076 -4.62 C-0.092 -4.128 -0.572 -3.648 -1.328 -3.648 C-1.868 -3.648 -2.324 -3.972 -2.324 -4.656 C-2.324 -5.784 -1.016 -5.988 0.136 -5.964 ZM2.86 -4.5 C2.86 -3.984 2.836 -3.396 2.812 -3 L3.724 -3 L3.772 -3.96 L3.808 -3.96 C4.24 -3.192 4.912 -2.868 5.752 -2.868 C7.048 -2.868 8.356 -3.9 8.356 -5.976 C8.368 -7.74 7.348 -8.94 5.908 -8.94 C4.972 -8.94 4.3 -8.52 3.928 -7.872 L3.904 -7.872 L3.904 -11.52 L2.86 -11.52 ZM3.904 -6.372 C3.904 -6.54 3.94 -6.684 3.964 -6.804 C4.18 -7.608 4.852 -8.1 5.572 -8.1 C6.7 -8.1 7.3 -7.104 7.3 -5.94 C7.3 -4.608 6.64 -3.708 5.536 -3.708 C4.768 -3.708 4.156 -4.212 3.952 -4.944 C3.928 -5.064 3.904 -5.196 3.904 -5.328 ZM14.548 -8.808 L13.492 -8.808 L13.492 -5.244 C13.492 -5.052 13.456 -4.86 13.396 -4.704 C13.204 -4.236 12.712 -3.744 12.004 -3.744 C11.044 -3.744 10.708 -4.488 10.708 -5.592 L10.708 -8.808 L9.652 -8.808 L9.652 -5.412 C9.652 -3.372 10.744 -2.868 11.656 -2.868 C12.688 -2.868 13.3 -3.48 13.576 -3.948 L13.6 -3.948 L13.66 -3 L14.596 -3 C14.56 -3.456 14.548 -3.984 14.548 -4.584 ZM16.3 -3 L17.356 -3 L17.356 -6.492 C17.356 -6.672 17.38 -6.852 17.428 -6.984 C17.608 -7.572 18.148 -8.064 18.844 -8.064 C19.84 -8.064 20.188 -7.284 20.188 -6.348 L20.188 -3 L21.244 -3 L21.244 -6.468 C21.244 -8.46 19.996 -8.94 19.192 -8.94 C18.232 -8.94 17.56 -8.4 17.272 -7.848 L17.248 -7.848 L17.188 -8.808 L16.252 -8.808 C16.288 -8.328 16.3 -7.836 16.3 -7.236 ZM26.92 -11.52 L26.92 -8.052 L26.896 -8.052 C26.632 -8.52 26.032 -8.94 25.144 -8.94 C23.728 -8.94 22.528 -7.752 22.54 -5.82 C22.54 -4.056 23.62 -2.868 25.024 -2.868 C25.972 -2.868 26.68 -3.36 27.004 -4.008 L27.028 -4.008 L27.076 -3 L28.024 -3 C27.988 -3.396 27.976 -3.984 27.976 -4.5 L27.976 -11.52 ZM26.92 -5.436 C26.92 -5.268 26.908 -5.124 26.872 -4.98 C26.68 -4.188 26.032 -3.72 25.324 -3.72 C24.184 -3.72 23.608 -4.692 23.608 -5.868 C23.608 -7.152 24.256 -8.112 25.348 -8.112 C26.14 -8.112 26.716 -7.56 26.872 -6.888 C26.908 -6.756 26.92 -6.576 26.92 -6.444 ZM33.808 -6.564 C33.808 -7.728 33.376 -8.94 31.6 -8.94 C30.868 -8.94 30.172 -8.736 29.692 -8.424 L29.932 -7.728 C30.34 -7.992 30.904 -8.16 31.444 -8.16 C32.632 -8.16 32.764 -7.296 32.764 -6.816 L32.764 -6.696 C30.52 -6.708 29.272 -5.94 29.272 -4.536 C29.272 -3.696 29.872 -2.868 31.048 -2.868 C31.876 -2.868 32.5 -3.276 32.824 -3.732 L32.86 -3.732 L32.944 -3 L33.904 -3 C33.832 -3.396 33.808 -3.888 33.808 -4.392 ZM32.788 -4.956 C32.788 -4.848 32.764 -4.728 32.728 -4.62 C32.56 -4.128 32.08 -3.648 31.324 -3.648 C30.784 -3.648 30.328 -3.972 30.328 -4.656 C30.328 -5.784 31.636 -5.988 32.788 -5.964 ZM35.512 -3 L36.568 -3 L36.568 -6.492 C36.568 -6.672 36.592 -6.852 36.64 -6.984 C36.82 -7.572 37.36 -8.064 38.056 -8.064 C39.052 -8.064 39.4 -7.284 39.4 -6.348 L39.4 -3 L40.456 -3 L40.456 -6.468 C40.456 -8.46 39.208 -8.94 38.404 -8.94 C37.444 -8.94 36.772 -8.4 36.484 -7.848 L36.46 -7.848 L36.4 -8.808 L35.464 -8.808 C35.5 -8.328 35.512 -7.836 35.512 -7.236 ZM46.132 -4.008 C45.832 -3.876 45.436 -3.72 44.836 -3.72 C43.684 -3.72 42.82 -4.548 42.82 -5.892 C42.82 -7.104 43.54 -8.088 44.872 -8.088 C45.448 -8.088 45.844 -7.956 46.096 -7.812 L46.336 -8.628 C46.048 -8.772 45.496 -8.928 44.872 -8.928 C42.976 -8.928 41.752 -7.632 41.752 -5.844 C41.752 -4.068 42.892 -2.868 44.644 -2.868 C45.424 -2.868 46.036 -3.072 46.312 -3.216 ZM52.216 -5.712 C52.228 -5.82 52.252 -5.988 52.252 -6.204 C52.252 -7.272 51.748 -8.94 49.852 -8.94 C48.16 -8.94 47.128 -7.56 47.128 -5.808 C47.128 -4.056 48.196 -2.868 49.984 -2.868 C50.908 -2.868 51.544 -3.072 51.916 -3.24 L51.736 -3.996 C51.34 -3.828 50.884 -3.696 50.128 -3.696 C49.072 -3.696 48.16 -4.284 48.136 -5.712 ZM48.148 -6.468 C48.232 -7.2 48.7 -8.184 49.768 -8.184 C50.956 -8.184 51.244 -7.14 51.232 -6.468 Z"
         id="path699" />
    </g>
    <g
       transform="translate(292.2571,55.1744)"
       style="text-rendering:geometricPrecision; color-interpolation:linearRGB; color-rendering:optimizeQuality; stroke-linecap:butt; image-rendering:optimizeQuality;"
       id="g701">
      <circle
         r="5"
         style="fill:none;"
         cx="-0.5"
         cy="-0.5"
         id="circle703" />
      <circle
         r="5"
         style="fill:none;"
         cx="-0.5"
         transform="translate(16.3302,19.7813)"
         cy="-0.5"
         id="circle705" />
      <circle
         r="5"
         style="fill:none;"
         cx="-0.5"
         transform="translate(25.8827,47.6615)"
         cy="-0.5"
         id="circle707" />
      <circle
         r="5"
         style="fill:none;"
         cx="-0.5"
         transform="translate(32.6603,52.2524)"
         cy="-0.5"
         id="circle709" />
      <circle
         r="5"
         style="fill:none;"
         cx="-0.5"
         transform="translate(37.9174,71.4923)"
         cy="-0.5"
         id="circle711" />
      <circle
         r="5"
         style="fill:none;"
         cx="-0.5"
         transform="translate(42.2129,95.3231)"
         cy="-0.5"
         id="circle713" />
      <circle
         r="5"
         style="fill:none;"
         cx="-0.5"
         transform="translate(45.8445,95.3231)"
         cy="-0.5"
         id="circle715" />
      <circle
         r="5"
         style="fill:none;"
         cx="-0.5"
         transform="translate(48.9905,95.3231)"
         cy="-0.5"
         id="circle717" />
      <circle
         r="5"
         style="fill:none;"
         cx="-0.5"
         transform="translate(51.7654,95.3231)"
         cy="-0.5"
         id="circle719" />
      <circle
         r="5"
         style="fill:none;"
         cx="-0.5"
         transform="translate(54.2476,95.3231)"
         cy="-0.5"
         id="circle721" />
      <circle
         r="5"
         style="fill:none;"
         cx="-0.5"
         transform="translate(56.4931,119.1538)"
         cy="-0.5"
         id="circle723" />
      <circle
         r="5"
         style="fill:none;"
         cx="-0.5"
         transform="translate(58.543,119.1538)"
         cy="-0.5"
         id="circle725" />
      <circle
         r="5"
         style="fill:none;"
         cx="-0.5"
         transform="translate(60.4288,119.1538)"
         cy="-0.5"
         id="circle727" />
      <circle
         r="5"
         style="fill:none;"
         cx="-0.5"
         transform="translate(62.1747,119.1538)"
         cy="-0.5"
         id="circle729" />
      <circle
         r="5"
         style="fill:none;"
         cx="-0.5"
         transform="translate(63.8001,119.1538)"
         cy="-0.5"
         id="circle731" />
      <circle
         r="5"
         style="fill:none;"
         cx="-0.5"
         transform="translate(65.3206,119.1538)"
         cy="-0.5"
         id="circle733" />
      <circle
         r="5"
         style="fill:none;"
         cx="-0.5"
         transform="translate(66.7489,119.1538)"
         cy="-0.5"
         id="circle735" />
      <circle
         r="5"
         style="fill:none;"
         cx="-0.5"
         transform="translate(68.0956,119.1538)"
         cy="-0.5"
         id="circle737" />
      <circle
         r="5"
         style="fill:none;"
         cx="-0.5"
         transform="translate(69.3693,119.1538)"
         cy="-0.5"
         id="circle739" />
      <circle
         r="5"
         style="fill:none;"
         cx="-0.5"
         transform="translate(70.5778,119.1538)"
         cy="-0.5"
         id="circle741" />
      <circle
         r="5"
         style="fill:none;"
         cx="-0.5"
         transform="translate(71.7273,119.1538)"
         cy="-0.5"
         id="circle743" />
      <circle
         r="5"
         style="fill:none;"
         cx="-0.5"
         transform="translate(72.8232,119.1538)"
         cy="-0.5"
         id="circle745" />
      <circle
         r="5"
         style="fill:none;"
         cx="-0.5"
         transform="translate(73.8705,119.1538)"
         cy="-0.5"
         id="circle747" />
      <circle
         r="5"
         style="fill:none;"
         cx="-0.5"
         transform="translate(74.8732,119.1538)"
         cy="-0.5"
         id="circle749" />
      <circle
         r="5"
         style="fill:none;"
         cx="-0.5"
         transform="translate(75.8349,119.1538)"
         cy="-0.5"
         id="circle751" />
      <circle
         r="5"
         style="fill:none;"
         cx="-0.5"
         transform="translate(76.7589,119.1538)"
         cy="-0.5"
         id="circle753" />
      <circle
         r="5"
         style="fill:none;"
         cx="-0.5"
         transform="translate(77.6481,119.1538)"
         cy="-0.5"
         id="circle755" />
      <circle
         r="5"
         style="fill:none;"
         cx="-0.5"
         transform="translate(78.5049,119.1538)"
         cy="-0.5"
         id="circle757" />
      <circle
         r="5"
         style="fill:none;"
         cx="-0.5"
         transform="translate(79.3316,119.1538)"
         cy="-0.5"
         id="circle759" />
      <circle
         r="5"
         style="fill:none;"
         cx="-0.5"
         transform="translate(80.1303,119.1538)"
         cy="-0.5"
         id="circle761" />
      <circle
         r="5"
         style="fill:none;"
         cx="-0.5"
         transform="translate(80.9028,119.1538)"
         cy="-0.5"
         id="circle763" />
    </g>
  </g>
  <flowRoot
     xml:space="preserve"
     id="flowRoot4895"
     style="font-style:normal;font-weight:normal;font-size:15px;line-height:125%;font-family:sans-serif;letter-spacing:0px;word-spacing:0px;fill:#000000;fill-opacity:1;stroke:none;stroke-width:1px;stroke-linecap:butt;stroke-linejoin:miter;stroke-opacity:1"
     transform="translate(21.820933,0)"><flowRegion
       id="flowRegion4897"><rect
         id="rect4899"
         width="43.641865"
         height="35.36496"
         x="3.7622299"
         y="-1.4568827" /></flowRegion><flowPara
       id="flowPara4901"
       style="font-weight:bold">A</flowPara></flowRoot>  <flowRoot
     transform="translate(243.79249,0)"
     style="font-style:normal;font-weight:normal;font-size:15px;line-height:125%;font-family:sans-serif;letter-spacing:0px;word-spacing:0px;fill:#000000;fill-opacity:1;stroke:none;stroke-width:1px;stroke-linecap:butt;stroke-linejoin:miter;stroke-opacity:1"
     id="flowRoot4903"
     xml:space="preserve"><flowRegion
       id="flowRegion4905"><rect
         y="-1.4568827"
         x="3.7622299"
         height="35.36496"
         width="43.641865"
         id="rect4907" /></flowRegion><flowPara
       style="font-weight:bold"
       id="flowPara4909">B</flowPara></flowRoot></svg>
